<svg xmlns="http://www.w3.org/2000/svg" xmlns:xlink="http://www.w3.org/1999/xlink" width="1000" zoomAndPan="magnify" viewBox="0 0 750 749.999995" height="1000" preserveAspectRatio="xMidYMid meet" version="1.2"><g id="93710c7597"><path style=" stroke:none;fill-rule:nonzero;fill:#fbfdfc;fill-opacity:1;" d="M 109.792969 639.917969 C 112.398438 642.527344 114.714844 644.84375 117.324219 647.160156 L 102.550781 632.386719 C 104.867188 634.996094 107.472656 637.601562 109.792969 639.917969 Z M 109.792969 639.917969 "/><path style=" stroke:none;fill-rule:nonzero;fill:#fbfdfc;fill-opacity:1;" d="M 714.949219 216.976562 C 696.988281 178.15625 672.074219 141.945312 639.917969 109.792969 C 608.054688 77.925781 571.550781 52.722656 532.734375 34.761719 Z M 714.949219 216.976562 "/><path style=" stroke:none;fill-rule:nonzero;fill:#fbfdfc;fill-opacity:1;" d="M 439.457031 5.792969 L 744.207031 310.542969 C 741.890625 296.351562 738.414062 282.445312 734.355469 268.539062 L 481.171875 15.351562 C 467.265625 11.296875 453.359375 8.109375 439.457031 5.792969 Z M 439.457031 5.792969 "/><path style=" stroke:none;fill-rule:nonzero;fill:#fbfdfc;fill-opacity:1;" d="M 369.640625 0.289062 L 749.710938 380.359375 C 750 369.351562 749.421875 358.34375 748.839844 347.335938 L 402.664062 1.160156 C 391.65625 0.289062 380.648438 0 369.640625 0.289062 Z M 369.640625 0.289062 "/><path style=" stroke:none;fill-rule:nonzero;fill:#fbfdfc;fill-opacity:1;" d="M 310.835938 5.792969 L 744.207031 439.164062 C 745.945312 429.894531 747.101562 420.335938 747.972656 410.777344 L 339.222656 1.738281 C 329.664062 2.898438 320.105469 4.054688 310.835938 5.792969 Z M 310.835938 5.792969 "/><path style=" stroke:none;fill-rule:nonzero;fill:#fbfdfc;fill-opacity:1;" d="M 259.269531 18.25 L 731.460938 490.441406 C 734.066406 482.039062 736.382812 473.929688 738.703125 465.527344 L 284.183594 11.296875 C 275.78125 13.324219 267.382812 15.644531 259.269531 18.25 Z M 259.269531 18.25 "/><path style=" stroke:none;fill-rule:nonzero;fill:#fbfdfc;fill-opacity:1;" d="M 213.210938 36.789062 L 712.921875 536.5 C 716.394531 529.257812 719.582031 521.726562 722.769531 514.195312 L 235.515625 26.941406 C 227.984375 29.835938 220.742188 33.023438 213.210938 36.789062 Z M 213.210938 36.789062 "/><path style=" stroke:none;fill-rule:nonzero;fill:#fbfdfc;fill-opacity:1;" d="M 172.074219 59.675781 L 690.035156 577.636719 C 694.378906 570.972656 698.4375 564.308594 702.203125 557.648438 L 192.0625 47.507812 C 185.398438 51.273438 178.738281 55.332031 172.074219 59.675781 Z M 172.074219 59.675781 "/><path style=" stroke:none;fill-rule:nonzero;fill:#fbfdfc;fill-opacity:1;" d="M 134.996094 86.90625 L 662.804688 614.714844 C 667.730469 608.921875 672.363281 602.839844 677 596.753906 L 152.953125 72.710938 C 146.871094 77.347656 141.078125 81.980469 134.996094 86.90625 Z M 134.996094 86.90625 "/><path style=" stroke:none;fill-rule:nonzero;fill:#fbfdfc;fill-opacity:1;" d="M 109.792969 109.792969 C 107.183594 112.398438 104.578125 115.296875 101.96875 117.902344 L 631.808594 647.742188 C 634.414062 645.132812 637.3125 642.527344 639.917969 639.917969 C 642.527344 637.3125 645.132812 634.414062 647.742188 631.808594 L 117.902344 101.96875 C 115.296875 104.578125 112.398438 107.183594 109.792969 109.792969 Z M 109.792969 109.792969 "/><path style=" stroke:none;fill-rule:nonzero;fill:#fbfdfc;fill-opacity:1;" d="M 72.710938 152.953125 L 596.753906 677 C 602.839844 672.363281 608.921875 667.730469 614.714844 662.804688 L 86.90625 134.996094 C 81.980469 141.078125 77.347656 146.871094 72.710938 152.953125 Z M 72.710938 152.953125 "/><path style=" stroke:none;fill-rule:nonzero;fill:#fbfdfc;fill-opacity:1;" d="M 47.507812 192.0625 L 557.648438 702.203125 C 564.308594 698.4375 570.972656 694.378906 577.636719 690.035156 L 59.675781 172.074219 C 55.332031 178.738281 51.273438 185.398438 47.507812 192.0625 Z M 47.507812 192.0625 "/><path style=" stroke:none;fill-rule:nonzero;fill:#fbfdfc;fill-opacity:1;" d="M 26.941406 235.515625 L 514.195312 722.769531 C 521.726562 719.871094 529.257812 716.394531 536.5 712.921875 L 36.5 213.210938 C 33.023438 220.742188 29.835938 227.984375 26.941406 235.515625 Z M 26.941406 235.515625 "/><path style=" stroke:none;fill-rule:nonzero;fill:#fbfdfc;fill-opacity:1;" d="M 11.296875 284.183594 L 465.816406 738.703125 C 474.21875 736.675781 482.617188 734.355469 490.730469 731.460938 L 18.25 259.269531 C 15.644531 267.382812 13.324219 275.78125 11.296875 284.183594 Z M 11.296875 284.183594 "/><path style=" stroke:none;fill-rule:nonzero;fill:#fbfdfc;fill-opacity:1;" d="M 1.738281 338.933594 L 410.777344 747.972656 C 420.335938 747.101562 429.605469 745.65625 439.164062 744.207031 L 5.503906 310.835938 C 4.054688 320.105469 2.605469 329.664062 1.738281 338.933594 Z M 1.738281 338.933594 "/><path style=" stroke:none;fill-rule:nonzero;fill:#fbfdfc;fill-opacity:1;" d="M 1.160156 402.664062 L 347.335938 748.839844 C 358.34375 749.710938 369.351562 750 380.359375 749.710938 L 0 369.351562 C 0 380.359375 0.289062 391.65625 1.160156 402.664062 Z M 1.160156 402.664062 "/><path style=" stroke:none;fill-rule:nonzero;fill:#fbfdfc;fill-opacity:1;" d="M 15.351562 480.878906 L 268.828125 734.355469 C 282.734375 738.414062 296.640625 741.597656 310.542969 744.207031 L 5.503906 439.164062 C 8.109375 453.359375 11.296875 467.265625 15.351562 480.878906 Z M 15.351562 480.878906 "/><path style=" stroke:none;fill-rule:nonzero;fill:#fbfdfc;fill-opacity:1;" d="M 34.761719 532.445312 C 51.273438 568.367188 73.871094 602.257812 102.550781 632.386719 L 117.324219 647.160156 C 147.449219 675.839844 181.34375 698.4375 217.265625 714.949219 Z M 34.761719 532.445312 "/></g></svg>