<svg xmlns="http://www.w3.org/2000/svg" xmlns:xlink="http://www.w3.org/1999/xlink" width="500" zoomAndPan="magnify" viewBox="0 0 375 374.999991" height="500" preserveAspectRatio="xMidYMid meet" version="1.2"><defs><clipPath id="38c1955f45"><path d="M 156 135 L 227 135 L 227 182.753906 L 156 182.753906 Z M 156 135 "/></clipPath><clipPath id="299e880587"><path d="M 131.035156 95.753906 L 252 95.753906 L 252 156 L 131.035156 156 Z M 131.035156 95.753906 "/></clipPath></defs><g id="5723d28a41"><rect x="0" width="375" y="0" height="374.999991" style="fill:#ffffff;fill-opacity:1;stroke:none;"/><rect x="0" width="375" y="0" height="374.999991" style="fill:#9f0b0b;fill-opacity:1;stroke:none;"/><g clip-rule="nonzero" clip-path="url(#38c1955f45)"><path style=" stroke:none;fill-rule:nonzero;fill:#ffffff;fill-opacity:1;" d="M 218.484375 164.898438 L 204.964844 164.898438 C 199.988281 164.898438 195.183594 166.699219 191.445312 169.847656 C 187.695312 166.6875 182.902344 164.898438 177.925781 164.898438 L 164.421875 164.898438 L 164.421875 135.492188 L 156.1875 135.492188 L 156.1875 173.140625 L 177.9375 173.140625 C 182.011719 173.140625 185.726562 175.015625 188.152344 178.285156 L 191.457031 182.753906 L 194.761719 178.285156 C 197.1875 175.015625 200.902344 173.140625 204.976562 173.140625 L 226.726562 173.140625 L 226.726562 135.492188 L 218.484375 135.492188 Z M 218.484375 164.898438 "/></g><path style=" stroke:none;fill-rule:nonzero;fill:#ffffff;fill-opacity:1;" d="M 171.257812 144.9375 L 180.582031 144.9375 L 180.582031 154.265625 L 171.257812 154.265625 Z M 171.257812 144.9375 "/><path style=" stroke:none;fill-rule:nonzero;fill:#ffffff;fill-opacity:1;" d="M 186.78125 144.9375 L 196.109375 144.9375 L 196.109375 154.265625 L 186.78125 154.265625 Z M 186.78125 144.9375 "/><path style=" stroke:none;fill-rule:nonzero;fill:#ffffff;fill-opacity:1;" d="M 202.308594 144.9375 L 211.632812 144.9375 L 211.632812 154.265625 L 202.308594 154.265625 Z M 202.308594 144.9375 "/><g clip-rule="nonzero" clip-path="url(#299e880587)"><path style=" stroke:none;fill-rule:nonzero;fill:#ffffff;fill-opacity:1;" d="M 241.757812 142.726562 L 241.757812 120.558594 L 251.527344 117.085938 L 191.445312 95.765625 L 131.363281 117.085938 L 191.445312 138.414062 L 233.515625 123.476562 L 233.515625 142.726562 C 231.75 144 230.59375 146.082031 230.59375 148.4375 C 230.59375 152.328125 233.742188 155.476562 237.636719 155.476562 C 241.53125 155.476562 244.679688 152.328125 244.679688 148.4375 C 244.679688 146.09375 243.523438 144.015625 241.757812 142.726562 Z M 241.757812 142.726562 "/></g><g style="fill:#ffffff;fill-opacity:1;"><g transform="translate(118.699215, 227.224058)"><path style="stroke:none" d="M 27.40625 0 L 21.46875 0 L 19.3125 -6.578125 L 8.375 -6.578125 L 6.234375 0 L 0.4375 0 L 10.296875 -28.5625 L 17.546875 -28.5625 Z M 13.578125 -22.59375 L 9.90625 -11.328125 L 17.75 -11.328125 L 14.0625 -22.59375 Z M 13.578125 -22.59375 "/></g></g><g style="fill:#ffffff;fill-opacity:1;"><g transform="translate(146.528533, 227.224058)"><path style="stroke:none" d="M 10.078125 0.40625 C 8.609375 0.40625 7.257812 0.234375 6.03125 -0.109375 C 4.8125 -0.453125 3.769531 -0.925781 2.90625 -1.53125 C 2.039062 -2.132812 1.398438 -2.828125 0.984375 -3.609375 L 3.984375 -6.859375 L 4.390625 -6.859375 C 5.109375 -5.890625 5.957031 -5.164062 6.9375 -4.6875 C 7.914062 -4.207031 8.976562 -3.96875 10.125 -3.96875 C 11.175781 -3.96875 11.96875 -4.15625 12.5 -4.53125 C 13.03125 -4.90625 13.296875 -5.445312 13.296875 -6.15625 C 13.296875 -6.695312 13.101562 -7.15625 12.71875 -7.53125 C 12.34375 -7.90625 11.722656 -8.195312 10.859375 -8.40625 L 8.015625 -9.078125 C 5.878906 -9.585938 4.316406 -10.363281 3.328125 -11.40625 C 2.347656 -12.457031 1.859375 -13.789062 1.859375 -15.40625 C 1.859375 -16.75 2.195312 -17.914062 2.875 -18.90625 C 3.5625 -19.894531 4.523438 -20.648438 5.765625 -21.171875 C 7.015625 -21.691406 8.46875 -21.953125 10.125 -21.953125 C 12.0625 -21.953125 13.664062 -21.671875 14.9375 -21.109375 C 16.21875 -20.554688 17.21875 -19.8125 17.9375 -18.875 L 15.046875 -15.75 L 14.65625 -15.75 C 14.050781 -16.425781 13.375 -16.921875 12.625 -17.234375 C 11.875 -17.546875 11.039062 -17.703125 10.125 -17.703125 C 7.988281 -17.703125 6.921875 -17.035156 6.921875 -15.703125 C 6.921875 -15.140625 7.117188 -14.679688 7.515625 -14.328125 C 7.910156 -13.984375 8.609375 -13.703125 9.609375 -13.484375 L 12.265625 -12.890625 C 14.453125 -12.421875 16.050781 -11.664062 17.0625 -10.625 C 18.070312 -9.59375 18.578125 -8.207031 18.578125 -6.46875 C 18.578125 -5.101562 18.238281 -3.898438 17.5625 -2.859375 C 16.882812 -1.816406 15.90625 -1.007812 14.625 -0.4375 C 13.351562 0.125 11.835938 0.40625 10.078125 0.40625 Z M 10.078125 0.40625 "/></g></g><g style="fill:#ffffff;fill-opacity:1;"><g transform="translate(166.389879, 227.224058)"><path style="stroke:none" d="M 3.109375 8.734375 L 3.109375 -21.546875 L 8.515625 -21.546875 L 8.515625 -18.734375 L 8.921875 -18.65625 C 9.566406 -19.75 10.421875 -20.570312 11.484375 -21.125 C 12.554688 -21.675781 13.804688 -21.953125 15.234375 -21.953125 C 16.960938 -21.953125 18.472656 -21.539062 19.765625 -20.71875 C 21.066406 -19.90625 22.078125 -18.660156 22.796875 -16.984375 C 23.523438 -15.304688 23.890625 -13.234375 23.890625 -10.765625 C 23.890625 -8.304688 23.507812 -6.242188 22.75 -4.578125 C 21.988281 -2.910156 20.929688 -1.660156 19.578125 -0.828125 C 18.222656 -0.00390625 16.660156 0.40625 14.890625 0.40625 C 13.546875 0.40625 12.382812 0.179688 11.40625 -0.265625 C 10.425781 -0.710938 9.597656 -1.410156 8.921875 -2.359375 L 8.515625 -2.28125 L 8.515625 8.734375 Z M 13.375 -4.1875 C 14.988281 -4.1875 16.210938 -4.710938 17.046875 -5.765625 C 17.878906 -6.816406 18.296875 -8.484375 18.296875 -10.765625 C 18.296875 -13.046875 17.878906 -14.710938 17.046875 -15.765625 C 16.210938 -16.828125 14.988281 -17.359375 13.375 -17.359375 C 11.863281 -17.359375 10.664062 -16.8125 9.78125 -15.71875 C 8.894531 -14.625 8.453125 -12.972656 8.453125 -10.765625 C 8.453125 -8.566406 8.894531 -6.921875 9.78125 -5.828125 C 10.664062 -4.734375 11.863281 -4.1875 13.375 -4.1875 Z M 13.375 -4.1875 "/></g></g><g style="fill:#ffffff;fill-opacity:1;"><g transform="translate(192.188144, 227.224058)"><path style="stroke:none" d="M 5.796875 -24.125 C 4.828125 -24.125 4.035156 -24.421875 3.421875 -25.015625 C 2.804688 -25.609375 2.5 -26.375 2.5 -27.3125 C 2.5 -28.226562 2.804688 -28.984375 3.421875 -29.578125 C 4.035156 -30.171875 4.828125 -30.46875 5.796875 -30.46875 C 6.453125 -30.46875 7.03125 -30.332031 7.53125 -30.0625 C 8.039062 -29.789062 8.4375 -29.414062 8.71875 -28.9375 C 9 -28.457031 9.140625 -27.914062 9.140625 -27.3125 C 9.140625 -26.695312 9 -26.144531 8.71875 -25.65625 C 8.4375 -25.175781 8.039062 -24.800781 7.53125 -24.53125 C 7.03125 -24.257812 6.453125 -24.125 5.796875 -24.125 Z M 3.109375 0 L 3.109375 -21.546875 L 8.515625 -21.546875 L 8.515625 0 Z M 3.109375 0 "/></g></g><g style="fill:#ffffff;fill-opacity:1;"><g transform="translate(203.788573, 227.224058)"><path style="stroke:none" d="M 3.109375 0 L 3.109375 -21.546875 L 8.359375 -21.546875 L 8.359375 -18.34375 L 8.765625 -18.265625 C 9.285156 -19.460938 9.96875 -20.335938 10.8125 -20.890625 C 11.664062 -21.453125 12.695312 -21.734375 13.90625 -21.734375 C 15.132812 -21.734375 16.066406 -21.523438 16.703125 -21.109375 L 15.78125 -16.453125 L 15.375 -16.375 C 15.019531 -16.507812 14.679688 -16.609375 14.359375 -16.671875 C 14.035156 -16.742188 13.640625 -16.78125 13.171875 -16.78125 C 11.660156 -16.78125 10.503906 -16.25 9.703125 -15.1875 C 8.910156 -14.125 8.515625 -12.421875 8.515625 -10.078125 L 8.515625 0 Z M 3.109375 0 "/></g></g><g style="fill:#ffffff;fill-opacity:1;"><g transform="translate(220.681459, 227.224058)"><path style="stroke:none" d="M 21.296875 -9.546875 L 7.4375 -9.546875 C 7.59375 -7.671875 8.125 -6.304688 9.03125 -5.453125 C 9.945312 -4.609375 11.195312 -4.1875 12.78125 -4.1875 C 14.007812 -4.1875 15.007812 -4.414062 15.78125 -4.875 C 16.550781 -5.332031 17.171875 -6.03125 17.640625 -6.96875 L 18.046875 -6.96875 L 21.640625 -4.671875 C 20.941406 -3.160156 19.878906 -1.9375 18.453125 -1 C 17.035156 -0.0625 15.144531 0.40625 12.78125 0.40625 C 10.550781 0.40625 8.625 -0.015625 7 -0.859375 C 5.382812 -1.703125 4.132812 -2.960938 3.25 -4.640625 C 2.375 -6.316406 1.9375 -8.359375 1.9375 -10.765625 C 1.9375 -13.210938 2.394531 -15.273438 3.3125 -16.953125 C 4.238281 -18.628906 5.488281 -19.878906 7.0625 -20.703125 C 8.644531 -21.535156 10.421875 -21.953125 12.390625 -21.953125 C 15.429688 -21.953125 17.757812 -21.144531 19.375 -19.53125 C 21 -17.914062 21.8125 -15.546875 21.8125 -12.421875 C 21.8125 -11.285156 21.773438 -10.40625 21.703125 -9.78125 Z M 16.640625 -13.046875 C 16.585938 -14.691406 16.207031 -15.882812 15.5 -16.625 C 14.789062 -17.375 13.753906 -17.75 12.390625 -17.75 C 9.648438 -17.75 8.039062 -16.179688 7.5625 -13.046875 Z M 16.640625 -13.046875 "/></g></g><g style="fill:#ffffff;fill-opacity:1;"><g transform="translate(244.097145, 227.224058)"><path style="stroke:none" d="M 8.953125 0.40625 C 7.003906 0.40625 5.519531 -0.113281 4.5 -1.15625 C 3.476562 -2.207031 2.96875 -3.800781 2.96875 -5.9375 L 2.96875 -30.203125 L 8.375 -30.203125 L 8.375 -6.15625 C 8.375 -4.84375 8.921875 -4.1875 10.015625 -4.1875 C 10.328125 -4.1875 10.660156 -4.238281 11.015625 -4.34375 L 11.296875 -4.265625 L 11.78125 -0.09375 C 11.476562 0.0625 11.078125 0.179688 10.578125 0.265625 C 10.085938 0.359375 9.546875 0.40625 8.953125 0.40625 Z M 8.953125 0.40625 "/></g></g><g style="fill:#ffffff;fill-opacity:1;"><g transform="translate(256.478747, 227.224058)"><path style="stroke:none" d="M 4.765625 9.140625 C 3.835938 9.140625 3 9.066406 2.25 8.921875 C 1.507812 8.785156 0.90625 8.597656 0.4375 8.359375 L 1.296875 3.984375 L 1.640625 3.875 C 1.960938 4.039062 2.363281 4.175781 2.84375 4.28125 C 3.332031 4.382812 3.832031 4.4375 4.34375 4.4375 C 5.207031 4.4375 5.929688 4.320312 6.515625 4.09375 C 7.097656 3.863281 7.585938 3.484375 7.984375 2.953125 C 8.390625 2.429688 8.75 1.703125 9.0625 0.765625 L 0.46875 -21.546875 L 6.140625 -21.546875 L 11.484375 -6.5625 L 11.953125 -6.5625 L 17.171875 -21.546875 L 22.671875 -21.546875 L 14.03125 1.34375 C 13.332031 3.195312 12.570312 4.6875 11.75 5.8125 C 10.925781 6.9375 9.945312 7.769531 8.8125 8.3125 C 7.6875 8.863281 6.335938 9.140625 4.765625 9.140625 Z M 4.765625 9.140625 "/></g></g><g style="fill:#ffffff;fill-opacity:1;"><g transform="translate(132.27622, 251.219137)"><path style="stroke:none" d="M 3.765625 0.125 C 3.171875 0.125 2.644531 0.0507812 2.1875 -0.09375 C 1.726562 -0.238281 1.347656 -0.425781 1.046875 -0.65625 C 0.742188 -0.894531 0.507812 -1.160156 0.34375 -1.453125 L 1.265625 -2.578125 L 1.40625 -2.578125 C 1.664062 -2.191406 1.988281 -1.882812 2.375 -1.65625 C 2.769531 -1.4375 3.234375 -1.328125 3.765625 -1.328125 C 4.210938 -1.328125 4.550781 -1.421875 4.78125 -1.609375 C 5.007812 -1.804688 5.125 -2.066406 5.125 -2.390625 C 5.125 -2.597656 5.085938 -2.769531 5.015625 -2.90625 C 4.941406 -3.039062 4.816406 -3.15625 4.640625 -3.25 C 4.472656 -3.34375 4.242188 -3.425781 3.953125 -3.5 L 2.859375 -3.75 C 2.097656 -3.925781 1.53125 -4.210938 1.15625 -4.609375 C 0.78125 -5.015625 0.59375 -5.539062 0.59375 -6.1875 C 0.59375 -6.675781 0.710938 -7.097656 0.953125 -7.453125 C 1.191406 -7.816406 1.539062 -8.097656 2 -8.296875 C 2.457031 -8.503906 3.007812 -8.609375 3.65625 -8.609375 C 4.3125 -8.609375 4.867188 -8.519531 5.328125 -8.34375 C 5.796875 -8.175781 6.191406 -7.914062 6.515625 -7.5625 L 5.6875 -6.421875 L 5.53125 -6.421875 C 5.289062 -6.671875 5.015625 -6.859375 4.703125 -6.984375 C 4.398438 -7.109375 4.050781 -7.171875 3.65625 -7.171875 C 3.195312 -7.171875 2.84375 -7.085938 2.59375 -6.921875 C 2.351562 -6.765625 2.234375 -6.546875 2.234375 -6.265625 C 2.234375 -5.992188 2.316406 -5.773438 2.484375 -5.609375 C 2.660156 -5.453125 2.957031 -5.332031 3.375 -5.25 L 4.484375 -5.015625 C 5.304688 -4.835938 5.898438 -4.539062 6.265625 -4.125 C 6.640625 -3.707031 6.828125 -3.164062 6.828125 -2.5 C 6.828125 -1.96875 6.710938 -1.503906 6.484375 -1.109375 C 6.265625 -0.722656 5.921875 -0.421875 5.453125 -0.203125 C 4.992188 0.015625 4.429688 0.125 3.765625 0.125 Z M 3.765625 0.125 "/></g></g><g style="fill:#ffffff;fill-opacity:1;"><g transform="translate(139.562249, 251.219137)"><path style="stroke:none" d="M 4.390625 -8.484375 C 4.992188 -8.484375 5.507812 -8.375 5.9375 -8.15625 C 6.375 -7.9375 6.703125 -7.625 6.921875 -7.21875 C 7.140625 -6.820312 7.25 -6.359375 7.25 -5.828125 C 7.25 -5.296875 7.140625 -4.828125 6.921875 -4.421875 C 6.703125 -4.023438 6.375 -3.71875 5.9375 -3.5 C 5.507812 -3.28125 4.992188 -3.171875 4.390625 -3.171875 L 2.78125 -3.171875 L 2.78125 0 L 1.109375 0 L 1.109375 -8.484375 Z M 4.15625 -4.5 C 5.09375 -4.5 5.5625 -4.941406 5.5625 -5.828125 C 5.5625 -6.710938 5.09375 -7.15625 4.15625 -7.15625 L 2.78125 -7.15625 L 2.78125 -4.5 Z M 4.15625 -4.5 "/></g></g><g style="fill:#ffffff;fill-opacity:1;"><g transform="translate(147.312355, 251.219137)"><path style="stroke:none" d="M 2.78125 -3.734375 L 2.78125 -1.40625 L 6.828125 -1.40625 L 6.828125 0 L 1.109375 0 L 1.109375 -8.484375 L 6.734375 -8.484375 L 6.734375 -7.078125 L 2.78125 -7.078125 L 2.78125 -5.09375 L 6.234375 -5.09375 L 6.234375 -3.734375 Z M 2.78125 -3.734375 "/></g></g><g style="fill:#ffffff;fill-opacity:1;"><g transform="translate(154.604189, 251.219137)"><path style="stroke:none" d="M 8.140625 0 L 6.375 0 L 5.734375 -1.953125 L 2.484375 -1.953125 L 1.859375 0 L 0.125 0 L 3.0625 -8.484375 L 5.21875 -8.484375 Z M 4.03125 -6.71875 L 2.9375 -3.375 L 5.28125 -3.375 L 4.1875 -6.71875 Z M 4.03125 -6.71875 "/></g></g><g style="fill:#ffffff;fill-opacity:1;"><g transform="translate(162.870588, 251.219137)"><path style="stroke:none" d="M 1.109375 0 L 1.109375 -8.484375 L 2.78125 -8.484375 L 2.78125 -5.015625 L 2.96875 -5.015625 L 5.796875 -8.484375 L 7.515625 -8.484375 L 7.515625 -8.34375 L 4.390625 -4.484375 L 7.84375 -0.140625 L 7.84375 0 L 5.953125 0 L 2.96875 -3.65625 L 2.78125 -3.65625 L 2.78125 0 Z M 1.109375 0 "/></g></g><g style="fill:#ffffff;fill-opacity:1;"><g transform="translate(170.707713, 251.219137)"><path style="stroke:none" d=""/></g></g><g style="fill:#ffffff;fill-opacity:1;"><g transform="translate(173.509591, 251.219137)"><path style="stroke:none" d="M 6.796875 -8.484375 L 6.796875 -7.078125 L 4.359375 -7.078125 L 4.359375 0 L 2.6875 0 L 2.6875 -7.078125 L 0.234375 -7.078125 L 0.234375 -8.484375 Z M 6.796875 -8.484375 "/></g></g><g style="fill:#ffffff;fill-opacity:1;"><g transform="translate(180.540376, 251.219137)"><path style="stroke:none" d="M 4.625 0.125 C 3.84375 0.125 3.15625 -0.03125 2.5625 -0.34375 C 1.96875 -0.664062 1.503906 -1.148438 1.171875 -1.796875 C 0.835938 -2.453125 0.671875 -3.269531 0.671875 -4.25 C 0.671875 -5.21875 0.835938 -6.023438 1.171875 -6.671875 C 1.503906 -7.328125 1.96875 -7.8125 2.5625 -8.125 C 3.15625 -8.445312 3.84375 -8.609375 4.625 -8.609375 C 5.40625 -8.609375 6.09375 -8.445312 6.6875 -8.125 C 7.28125 -7.8125 7.742188 -7.328125 8.078125 -6.671875 C 8.410156 -6.023438 8.578125 -5.21875 8.578125 -4.25 C 8.578125 -3.269531 8.410156 -2.453125 8.078125 -1.796875 C 7.742188 -1.148438 7.28125 -0.664062 6.6875 -0.34375 C 6.09375 -0.03125 5.40625 0.125 4.625 0.125 Z M 4.625 -1.328125 C 5.34375 -1.328125 5.890625 -1.554688 6.265625 -2.015625 C 6.648438 -2.484375 6.84375 -3.226562 6.84375 -4.25 C 6.84375 -5.257812 6.648438 -5.992188 6.265625 -6.453125 C 5.890625 -6.921875 5.34375 -7.15625 4.625 -7.15625 C 3.90625 -7.15625 3.351562 -6.921875 2.96875 -6.453125 C 2.582031 -5.992188 2.390625 -5.257812 2.390625 -4.25 C 2.390625 -3.226562 2.582031 -2.484375 2.96875 -2.015625 C 3.351562 -1.554688 3.90625 -1.328125 4.625 -1.328125 Z M 4.625 -1.328125 "/></g></g><g style="fill:#ffffff;fill-opacity:1;"><g transform="translate(189.781338, 251.219137)"><path style="stroke:none" d=""/></g></g><g style="fill:#ffffff;fill-opacity:1;"><g transform="translate(192.583215, 251.219137)"><path style="stroke:none" d="M 6.796875 -8.484375 L 6.796875 -7.078125 L 4.359375 -7.078125 L 4.359375 0 L 2.6875 0 L 2.6875 -7.078125 L 0.234375 -7.078125 L 0.234375 -8.484375 Z M 6.796875 -8.484375 "/></g></g><g style="fill:#ffffff;fill-opacity:1;"><g transform="translate(199.614001, 251.219137)"><path style="stroke:none" d="M 6.578125 -5.296875 L 6.578125 -8.484375 L 8.25 -8.484375 L 8.25 0 L 6.578125 0 L 6.578125 -3.859375 L 2.78125 -3.859375 L 2.78125 0 L 1.109375 0 L 1.109375 -8.484375 L 2.78125 -8.484375 L 2.78125 -5.296875 Z M 6.578125 -5.296875 "/></g></g><g style="fill:#ffffff;fill-opacity:1;"><g transform="translate(208.970983, 251.219137)"><path style="stroke:none" d="M 2.78125 -3.734375 L 2.78125 -1.40625 L 6.828125 -1.40625 L 6.828125 0 L 1.109375 0 L 1.109375 -8.484375 L 6.734375 -8.484375 L 6.734375 -7.078125 L 2.78125 -7.078125 L 2.78125 -5.09375 L 6.234375 -5.09375 L 6.234375 -3.734375 Z M 2.78125 -3.734375 "/></g></g><g style="fill:#ffffff;fill-opacity:1;"><g transform="translate(216.262817, 251.219137)"><path style="stroke:none" d=""/></g></g><g style="fill:#ffffff;fill-opacity:1;"><g transform="translate(219.064694, 251.219137)"><path style="stroke:none" d="M 4.046875 0 L 2.171875 0 L 0.234375 -8.484375 L 1.90625 -8.484375 L 3.1875 -2.515625 L 3.328125 -2.515625 L 4.859375 -8.484375 L 6.28125 -8.484375 L 7.84375 -2.515625 L 7.984375 -2.515625 L 9.265625 -8.484375 L 10.890625 -8.484375 L 8.953125 0 L 7.0625 0 L 5.578125 -5.46875 L 5.453125 -5.46875 Z M 4.046875 0 "/></g></g><g style="fill:#ffffff;fill-opacity:1;"><g transform="translate(230.167766, 251.219137)"><path style="stroke:none" d="M 4.625 0.125 C 3.84375 0.125 3.15625 -0.03125 2.5625 -0.34375 C 1.96875 -0.664062 1.503906 -1.148438 1.171875 -1.796875 C 0.835938 -2.453125 0.671875 -3.269531 0.671875 -4.25 C 0.671875 -5.21875 0.835938 -6.023438 1.171875 -6.671875 C 1.503906 -7.328125 1.96875 -7.8125 2.5625 -8.125 C 3.15625 -8.445312 3.84375 -8.609375 4.625 -8.609375 C 5.40625 -8.609375 6.09375 -8.445312 6.6875 -8.125 C 7.28125 -7.8125 7.742188 -7.328125 8.078125 -6.671875 C 8.410156 -6.023438 8.578125 -5.21875 8.578125 -4.25 C 8.578125 -3.269531 8.410156 -2.453125 8.078125 -1.796875 C 7.742188 -1.148438 7.28125 -0.664062 6.6875 -0.34375 C 6.09375 -0.03125 5.40625 0.125 4.625 0.125 Z M 4.625 -1.328125 C 5.34375 -1.328125 5.890625 -1.554688 6.265625 -2.015625 C 6.648438 -2.484375 6.84375 -3.226562 6.84375 -4.25 C 6.84375 -5.257812 6.648438 -5.992188 6.265625 -6.453125 C 5.890625 -6.921875 5.34375 -7.15625 4.625 -7.15625 C 3.90625 -7.15625 3.351562 -6.921875 2.96875 -6.453125 C 2.582031 -5.992188 2.390625 -5.257812 2.390625 -4.25 C 2.390625 -3.226562 2.582031 -2.484375 2.96875 -2.015625 C 3.351562 -1.554688 3.90625 -1.328125 4.625 -1.328125 Z M 4.625 -1.328125 "/></g></g><g style="fill:#ffffff;fill-opacity:1;"><g transform="translate(239.408729, 251.219137)"><path style="stroke:none" d="M 1.109375 0 L 1.109375 -8.484375 L 4.515625 -8.484375 C 5.390625 -8.484375 6.050781 -8.28125 6.5 -7.875 C 6.945312 -7.476562 7.171875 -6.921875 7.171875 -6.203125 C 7.171875 -5.691406 7.039062 -5.269531 6.78125 -4.9375 C 6.519531 -4.613281 6.128906 -4.363281 5.609375 -4.1875 L 5.609375 -4.0625 C 5.878906 -3.945312 6.09375 -3.773438 6.25 -3.546875 C 6.414062 -3.316406 6.570312 -2.976562 6.71875 -2.53125 L 7.578125 0 L 5.84375 0 L 5.015625 -2.53125 C 4.929688 -2.789062 4.832031 -2.988281 4.71875 -3.125 C 4.613281 -3.269531 4.476562 -3.375 4.3125 -3.4375 C 4.15625 -3.5 3.945312 -3.53125 3.6875 -3.53125 L 2.78125 -3.53125 L 2.78125 0 Z M 4.3125 -4.859375 C 5.125 -4.859375 5.53125 -5.238281 5.53125 -6 C 5.53125 -6.769531 5.125 -7.15625 4.3125 -7.15625 L 2.78125 -7.15625 L 2.78125 -4.859375 Z M 4.3125 -4.859375 "/></g></g><g style="fill:#ffffff;fill-opacity:1;"><g transform="translate(247.33867, 251.219137)"><path style="stroke:none" d="M 2.78125 -8.484375 L 2.78125 -1.40625 L 6.59375 -1.40625 L 6.59375 0 L 1.109375 0 L 1.109375 -8.484375 Z M 2.78125 -8.484375 "/></g></g><g style="fill:#ffffff;fill-opacity:1;"><g transform="translate(254.207028, 251.219137)"><path style="stroke:none" d="M 4.15625 -8.484375 C 5.53125 -8.484375 6.582031 -8.128906 7.3125 -7.421875 C 8.039062 -6.710938 8.40625 -5.65625 8.40625 -4.25 C 8.40625 -2.84375 8.039062 -1.78125 7.3125 -1.0625 C 6.582031 -0.351562 5.53125 0 4.15625 0 L 1.109375 0 L 1.109375 -8.484375 Z M 4.0625 -1.40625 C 4.9375 -1.40625 5.585938 -1.628906 6.015625 -2.078125 C 6.453125 -2.523438 6.671875 -3.25 6.671875 -4.25 C 6.671875 -5.238281 6.453125 -5.957031 6.015625 -6.40625 C 5.585938 -6.851562 4.9375 -7.078125 4.0625 -7.078125 L 2.78125 -7.078125 L 2.78125 -1.40625 Z M 4.0625 -1.40625 "/></g></g></g></svg>