<svg xmlns="http://www.w3.org/2000/svg" xmlns:xlink="http://www.w3.org/1999/xlink" width="2000" zoomAndPan="magnify" viewBox="0 0 1500 1499.999933" height="2000" preserveAspectRatio="xMidYMid meet" version="1.2"><defs><clipPath id="e6602923b6"><path d="M 488 425 L 1013 425 L 1013 776.375 L 488 776.375 Z M 488 425 "/></clipPath><clipPath id="6b9fd1f4d0"><path d="M 303 129.875 L 1197 129.875 L 1197 574 L 303 574 Z M 303 129.875 "/></clipPath></defs><g id="54d537c23f"><g clip-rule="nonzero" clip-path="url(#e6602923b6)"><path style=" stroke:none;fill-rule:nonzero;fill:#ffffff;fill-opacity:1;" d="M 950.851562 643.523438 L 850.425781 643.523438 C 813.46875 643.523438 777.761719 656.914062 749.996094 680.300781 C 722.144531 656.824219 686.527344 643.523438 649.570312 643.523438 L 549.234375 643.523438 L 549.234375 425.082031 L 488.085938 425.082031 L 488.085938 704.761719 L 649.660156 704.761719 C 679.921875 704.761719 707.507812 718.6875 725.539062 742.96875 L 750.085938 776.175781 L 774.636719 742.96875 C 792.667969 718.6875 820.25 704.761719 850.511719 704.761719 L 1012.089844 704.761719 L 1012.089844 425.082031 L 950.851562 425.082031 Z M 950.851562 643.523438 "/></g><path style=" stroke:none;fill-rule:nonzero;fill:#ffffff;fill-opacity:1;" d="M 600.027344 495.25 L 669.300781 495.25 L 669.300781 564.519531 L 600.027344 564.519531 Z M 600.027344 495.25 "/><path style=" stroke:none;fill-rule:nonzero;fill:#ffffff;fill-opacity:1;" d="M 715.363281 495.25 L 784.632812 495.25 L 784.632812 564.519531 L 715.363281 564.519531 Z M 715.363281 495.25 "/><path style=" stroke:none;fill-rule:nonzero;fill:#ffffff;fill-opacity:1;" d="M 830.695312 495.25 L 899.96875 495.25 L 899.96875 564.519531 L 830.695312 564.519531 Z M 830.695312 495.25 "/><g clip-rule="nonzero" clip-path="url(#6b9fd1f4d0)"><path style=" stroke:none;fill-rule:nonzero;fill:#ffffff;fill-opacity:1;" d="M 1123.761719 478.824219 L 1123.761719 314.125 L 1196.339844 288.324219 L 749.996094 129.964844 L 303.65625 288.324219 L 749.996094 446.777344 L 1062.523438 335.816406 L 1062.523438 478.824219 C 1049.402344 488.285156 1040.832031 503.730469 1040.832031 521.226562 C 1040.832031 550.148438 1064.222656 573.535156 1093.144531 573.535156 C 1122.066406 573.535156 1145.457031 550.148438 1145.457031 521.226562 C 1145.457031 503.816406 1136.886719 488.375 1123.761719 478.824219 Z M 1123.761719 478.824219 "/></g><g style="fill:#ffffff;fill-opacity:1;"><g transform="translate(153.89908, 1102.331413)"><path style="stroke:none" d="M 203 0 L 159.015625 0 L 143.09375 -48.765625 L 62.078125 -48.765625 L 46.15625 0 L 3.1875 0 L 76.25 -211.53125 L 129.9375 -211.53125 Z M 100.5625 -167.40625 L 73.359375 -83.921875 L 131.53125 -83.921875 L 104.171875 -167.40625 Z M 100.5625 -167.40625 "/></g></g><g style="fill:#ffffff;fill-opacity:1;"><g transform="translate(360.08249, 1102.331413)"><path style="stroke:none" d="M 74.65625 3.03125 C 63.757812 3.03125 53.773438 1.753906 44.703125 -0.796875 C 35.640625 -3.347656 27.898438 -6.867188 21.484375 -11.359375 C 15.066406 -15.847656 10.316406 -20.984375 7.234375 -26.765625 L 29.515625 -50.78125 L 32.5625 -50.78125 C 37.863281 -43.644531 44.128906 -38.289062 51.359375 -34.71875 C 58.597656 -31.15625 66.460938 -29.375 74.953125 -29.375 C 82.765625 -29.375 88.644531 -30.769531 92.59375 -33.5625 C 96.550781 -36.363281 98.53125 -40.367188 98.53125 -45.578125 C 98.53125 -49.628906 97.109375 -53.03125 94.265625 -55.78125 C 91.421875 -58.53125 86.816406 -60.675781 80.453125 -62.21875 L 59.328125 -67.28125 C 43.503906 -71.039062 31.953125 -76.800781 24.671875 -84.5625 C 17.390625 -92.332031 13.75 -102.195312 13.75 -114.15625 C 13.75 -124.09375 16.28125 -132.726562 21.34375 -140.0625 C 26.40625 -147.394531 33.539062 -152.988281 42.75 -156.84375 C 51.96875 -160.707031 62.703125 -162.640625 74.953125 -162.640625 C 89.328125 -162.640625 101.238281 -160.5625 110.6875 -156.40625 C 120.144531 -152.257812 127.523438 -146.710938 132.828125 -139.765625 L 111.40625 -116.625 L 108.515625 -116.625 C 104.078125 -121.632812 99.082031 -125.296875 93.53125 -127.609375 C 87.988281 -129.929688 81.796875 -131.09375 74.953125 -131.09375 C 59.128906 -131.09375 51.21875 -126.171875 51.21875 -116.328125 C 51.21875 -112.179688 52.6875 -108.804688 55.625 -106.203125 C 58.570312 -103.597656 63.757812 -101.476562 71.1875 -99.84375 L 90.859375 -95.5 C 107.066406 -92.019531 118.910156 -86.445312 126.390625 -78.78125 C 133.867188 -71.113281 137.609375 -60.816406 137.609375 -47.890625 C 137.609375 -37.765625 135.097656 -28.84375 130.078125 -21.125 C 125.054688 -13.40625 117.816406 -7.445312 108.359375 -3.25 C 98.910156 0.9375 87.675781 3.03125 74.65625 3.03125 Z M 74.65625 3.03125 "/></g></g><g style="fill:#ffffff;fill-opacity:1;"><g transform="translate(507.232343, 1102.331413)"><path style="stroke:none" d="M 23 64.671875 L 23 -159.59375 L 63.078125 -159.59375 L 63.078125 -138.765625 L 66.125 -138.1875 C 70.851562 -146.28125 77.171875 -152.378906 85.078125 -156.484375 C 92.984375 -160.585938 102.242188 -162.640625 112.859375 -162.640625 C 125.691406 -162.640625 136.90625 -159.597656 146.5 -153.515625 C 156.09375 -147.441406 163.566406 -138.207031 168.921875 -125.8125 C 174.273438 -113.414062 176.953125 -98.050781 176.953125 -79.71875 C 176.953125 -61.488281 174.128906 -46.203125 168.484375 -33.859375 C 162.847656 -21.515625 155.015625 -12.28125 144.984375 -6.15625 C 134.953125 -0.03125 123.375 3.03125 110.25 3.03125 C 100.320312 3.03125 91.738281 1.367188 84.5 -1.953125 C 77.257812 -5.273438 71.132812 -10.457031 66.125 -17.5 L 63.078125 -16.921875 L 63.078125 64.671875 Z M 99.109375 -30.96875 C 111.078125 -30.96875 120.144531 -34.875 126.3125 -42.6875 C 132.488281 -50.5 135.578125 -62.84375 135.578125 -79.71875 C 135.578125 -96.601562 132.488281 -108.972656 126.3125 -116.828125 C 120.144531 -124.691406 111.078125 -128.625 99.109375 -128.625 C 87.921875 -128.625 79.046875 -124.570312 72.484375 -116.46875 C 65.929688 -108.375 62.65625 -96.125 62.65625 -79.71875 C 62.65625 -63.414062 65.929688 -51.210938 72.484375 -43.109375 C 79.046875 -35.015625 87.921875 -30.96875 99.109375 -30.96875 Z M 99.109375 -30.96875 "/></g></g><g style="fill:#ffffff;fill-opacity:1;"><g transform="translate(698.367984, 1102.331413)"><path style="stroke:none" d="M 42.96875 -178.6875 C 35.738281 -178.6875 29.851562 -180.878906 25.3125 -185.265625 C 20.78125 -189.660156 18.515625 -195.332031 18.515625 -202.28125 C 18.515625 -209.125 20.78125 -214.738281 25.3125 -219.125 C 29.851562 -223.519531 35.738281 -225.71875 42.96875 -225.71875 C 47.789062 -225.71875 52.082031 -224.703125 55.84375 -222.671875 C 59.613281 -220.648438 62.535156 -217.878906 64.609375 -214.359375 C 66.679688 -210.835938 67.71875 -206.8125 67.71875 -202.28125 C 67.71875 -197.75 66.679688 -193.695312 64.609375 -190.125 C 62.535156 -186.550781 59.613281 -183.75 55.84375 -181.71875 C 52.082031 -179.695312 47.789062 -178.6875 42.96875 -178.6875 Z M 23 0 L 23 -159.59375 L 63.078125 -159.59375 L 63.078125 0 Z M 23 0 "/></g></g><g style="fill:#ffffff;fill-opacity:1;"><g transform="translate(784.313893, 1102.331413)"><path style="stroke:none" d="M 23 0 L 23 -159.59375 L 61.921875 -159.59375 L 61.921875 -135.859375 L 64.96875 -135.28125 C 68.820312 -144.15625 73.882812 -150.664062 80.15625 -154.8125 C 86.425781 -158.96875 94.046875 -161.046875 103.015625 -161.046875 C 112.085938 -161.046875 118.988281 -159.5 123.71875 -156.40625 L 116.90625 -121.828125 L 113.875 -121.25 C 111.269531 -122.3125 108.757812 -123.082031 106.34375 -123.5625 C 103.9375 -124.050781 100.992188 -124.296875 97.515625 -124.296875 C 86.328125 -124.296875 77.789062 -120.363281 71.90625 -112.5 C 66.019531 -104.632812 63.078125 -92.019531 63.078125 -74.65625 L 63.078125 0 Z M 23 0 "/></g></g><g style="fill:#ffffff;fill-opacity:1;"><g transform="translate(909.470853, 1102.331413)"><path style="stroke:none" d="M 157.71875 -70.75 L 55.125 -70.75 C 56.28125 -56.863281 60.234375 -46.757812 66.984375 -40.4375 C 73.742188 -34.125 82.957031 -30.96875 94.625 -30.96875 C 103.789062 -30.96875 111.21875 -32.675781 116.90625 -36.09375 C 122.601562 -39.519531 127.1875 -44.707031 130.65625 -51.65625 L 133.6875 -51.65625 L 160.3125 -34.578125 C 155.101562 -23.390625 147.242188 -14.320312 136.734375 -7.375 C 126.222656 -0.4375 112.1875 3.03125 94.625 3.03125 C 78.132812 3.03125 63.882812 -0.0976562 51.875 -6.359375 C 39.863281 -12.628906 30.601562 -21.960938 24.09375 -34.359375 C 17.582031 -46.753906 14.328125 -61.875 14.328125 -79.71875 C 14.328125 -97.851562 17.75 -113.140625 24.59375 -125.578125 C 31.445312 -138.023438 40.707031 -147.3125 52.375 -153.4375 C 64.050781 -159.570312 77.171875 -162.640625 91.734375 -162.640625 C 114.304688 -162.640625 131.597656 -156.65625 143.609375 -144.6875 C 155.617188 -132.726562 161.625 -115.175781 161.625 -92.03125 C 161.625 -83.632812 161.332031 -77.117188 160.75 -72.484375 Z M 123.28125 -96.65625 C 122.894531 -108.8125 120.070312 -117.660156 114.8125 -123.203125 C 109.550781 -128.753906 101.859375 -131.53125 91.734375 -131.53125 C 71.472656 -131.53125 59.5625 -119.90625 56 -96.65625 Z M 123.28125 -96.65625 "/></g></g><g style="fill:#ffffff;fill-opacity:1;"><g transform="translate(1082.954304, 1102.331413)"><path style="stroke:none" d="M 66.265625 3.03125 C 51.890625 3.03125 40.914062 -0.847656 33.34375 -8.609375 C 25.78125 -16.367188 22 -28.160156 22 -43.984375 L 22 -223.6875 L 62.078125 -223.6875 L 62.078125 -45.578125 C 62.078125 -35.835938 66.128906 -30.96875 74.234375 -30.96875 C 76.546875 -30.96875 79.003906 -31.351562 81.609375 -32.125 L 83.625 -31.546875 L 87.25 -0.71875 C 85.03125 0.4375 82.085938 1.347656 78.421875 2.015625 C 74.753906 2.691406 70.703125 3.03125 66.265625 3.03125 Z M 66.265625 3.03125 "/></g></g><g style="fill:#ffffff;fill-opacity:1;"><g transform="translate(1174.687815, 1102.331413)"><path style="stroke:none" d="M 35.3125 67.71875 C 28.457031 67.71875 22.253906 67.1875 16.703125 66.125 C 11.160156 65.0625 6.65625 63.660156 3.1875 61.921875 L 9.546875 29.515625 L 12.15625 28.65625 C 14.5625 29.90625 17.550781 30.914062 21.125 31.6875 C 24.695312 32.457031 28.363281 32.84375 32.125 32.84375 C 38.582031 32.84375 43.957031 32 48.25 30.3125 C 52.539062 28.625 56.179688 25.828125 59.171875 21.921875 C 62.171875 18.015625 64.828125 12.585938 67.140625 5.640625 L 3.46875 -159.59375 L 45.4375 -159.59375 L 85.078125 -48.609375 L 88.546875 -48.609375 L 127.1875 -159.59375 L 167.984375 -159.59375 L 103.890625 9.984375 C 98.773438 23.679688 93.15625 34.703125 87.03125 43.046875 C 80.90625 51.390625 73.671875 57.585938 65.328125 61.640625 C 56.984375 65.691406 46.976562 67.71875 35.3125 67.71875 Z M 35.3125 67.71875 "/></g></g><g style="fill:#ffffff;fill-opacity:1;"><g transform="translate(264.65337, 1289.47208)"><path style="stroke:none" d="M 27.859375 0.90625 C 23.503906 0.90625 19.628906 0.367188 16.234375 -0.703125 C 12.835938 -1.785156 10.003906 -3.195312 7.734375 -4.9375 C 5.472656 -6.6875 3.738281 -8.609375 2.53125 -10.703125 L 9.375 -19.046875 L 10.453125 -19.046875 C 12.335938 -16.234375 14.734375 -13.992188 17.640625 -12.328125 C 20.554688 -10.671875 23.960938 -9.84375 27.859375 -9.84375 C 31.179688 -9.84375 33.6875 -10.546875 35.375 -11.953125 C 37.070312 -13.359375 37.921875 -15.296875 37.921875 -17.765625 C 37.921875 -19.253906 37.648438 -20.5 37.109375 -21.5 C 36.566406 -22.5 35.660156 -23.359375 34.390625 -24.078125 C 33.128906 -24.796875 31.425781 -25.410156 29.28125 -25.921875 L 21.203125 -27.78125 C 15.554688 -29.070312 11.347656 -31.210938 8.578125 -34.203125 C 5.804688 -37.203125 4.421875 -41.09375 4.421875 -45.875 C 4.421875 -49.4375 5.3125 -52.5625 7.09375 -55.25 C 8.875 -57.945312 11.460938 -60.039062 14.859375 -61.53125 C 18.253906 -63.019531 22.316406 -63.765625 27.046875 -63.765625 C 31.890625 -63.765625 36.035156 -63.125 39.484375 -61.84375 C 42.941406 -60.570312 45.863281 -58.617188 48.25 -55.984375 L 42.09375 -47.5625 L 41.015625 -47.5625 C 39.242188 -49.425781 37.207031 -50.820312 34.90625 -51.75 C 32.613281 -52.675781 29.992188 -53.140625 27.046875 -53.140625 C 23.628906 -53.140625 21.03125 -52.535156 19.25 -51.328125 C 17.476562 -50.128906 16.59375 -48.472656 16.59375 -46.359375 C 16.59375 -44.378906 17.21875 -42.800781 18.46875 -41.625 C 19.71875 -40.445312 21.875 -39.53125 24.9375 -38.875 L 33.203125 -37.15625 C 39.304688 -35.863281 43.734375 -33.675781 46.484375 -30.59375 C 49.234375 -27.507812 50.609375 -23.488281 50.609375 -18.53125 C 50.609375 -14.601562 49.757812 -11.179688 48.0625 -8.265625 C 46.375 -5.359375 43.820312 -3.101562 40.40625 -1.5 C 37 0.101562 32.816406 0.90625 27.859375 0.90625 Z M 27.859375 0.90625 "/></g></g><g style="fill:#ffffff;fill-opacity:1;"><g transform="translate(318.634503, 1289.47208)"><path style="stroke:none" d="M 32.46875 -62.859375 C 36.96875 -62.859375 40.8125 -62.035156 44 -60.390625 C 47.195312 -58.742188 49.613281 -56.4375 51.25 -53.46875 C 52.882812 -50.5 53.703125 -47.050781 53.703125 -43.125 C 53.703125 -39.195312 52.882812 -35.753906 51.25 -32.796875 C 49.613281 -29.847656 47.195312 -27.550781 44 -25.90625 C 40.8125 -24.257812 36.96875 -23.4375 32.46875 -23.4375 L 20.59375 -23.4375 L 20.59375 0 L 8.171875 0 L 8.171875 -62.859375 Z M 30.828125 -33.28125 C 37.734375 -33.28125 41.1875 -36.5625 41.1875 -43.125 C 41.1875 -49.71875 37.734375 -53.015625 30.828125 -53.015625 L 20.59375 -53.015625 L 20.59375 -33.28125 Z M 30.828125 -33.28125 "/></g></g><g style="fill:#ffffff;fill-opacity:1;"><g transform="translate(376.053925, 1289.47208)"><path style="stroke:none" d="M 20.59375 -27.609375 L 20.59375 -10.40625 L 50.609375 -10.40625 L 50.609375 0 L 8.171875 0 L 8.171875 -62.859375 L 49.921875 -62.859375 L 49.921875 -52.453125 L 20.59375 -52.453125 L 20.59375 -37.75 L 46.21875 -37.75 L 46.21875 -27.609375 Z M 20.59375 -27.609375 "/></g></g><g style="fill:#ffffff;fill-opacity:1;"><g transform="translate(430.078073, 1289.47208)"><path style="stroke:none" d="M 60.328125 0 L 47.25 0 L 42.53125 -14.484375 L 18.453125 -14.484375 L 13.71875 0 L 0.953125 0 L 22.65625 -62.859375 L 38.609375 -62.859375 Z M 29.890625 -49.75 L 21.796875 -24.9375 L 39.09375 -24.9375 L 30.953125 -49.75 Z M 29.890625 -49.75 "/></g></g><g style="fill:#ffffff;fill-opacity:1;"><g transform="translate(491.322626, 1289.47208)"><path style="stroke:none" d="M 8.171875 0 L 8.171875 -62.859375 L 20.59375 -62.859375 L 20.59375 -37.1875 L 21.96875 -37.1875 L 42.953125 -62.859375 L 55.6875 -62.859375 L 55.6875 -61.796875 L 32.546875 -33.203125 L 58.09375 -1.078125 L 58.09375 0 L 44.03125 0 L 21.96875 -27.125 L 20.59375 -27.125 L 20.59375 0 Z M 8.171875 0 "/></g></g><g style="fill:#ffffff;fill-opacity:1;"><g transform="translate(549.386763, 1289.47208)"><path style="stroke:none" d=""/></g></g><g style="fill:#ffffff;fill-opacity:1;"><g transform="translate(570.145466, 1289.47208)"><path style="stroke:none" d="M 50.390625 -62.859375 L 50.390625 -52.421875 L 32.25 -52.421875 L 32.25 0 L 19.859375 0 L 19.859375 -52.421875 L 1.71875 -52.421875 L 1.71875 -62.859375 Z M 50.390625 -62.859375 "/></g></g><g style="fill:#ffffff;fill-opacity:1;"><g transform="translate(622.235541, 1289.47208)"><path style="stroke:none" d="M 34.265625 0.90625 C 28.503906 0.90625 23.421875 -0.269531 19.015625 -2.625 C 14.617188 -4.976562 11.171875 -8.566406 8.671875 -13.390625 C 6.179688 -18.222656 4.9375 -24.238281 4.9375 -31.4375 C 4.9375 -38.625 6.179688 -44.632812 8.671875 -49.46875 C 11.171875 -54.300781 14.617188 -57.890625 19.015625 -60.234375 C 23.421875 -62.585938 28.503906 -63.765625 34.265625 -63.765625 C 40.023438 -63.765625 45.097656 -62.597656 49.484375 -60.265625 C 53.878906 -57.929688 57.316406 -54.335938 59.796875 -49.484375 C 62.273438 -44.640625 63.515625 -38.625 63.515625 -31.4375 C 63.515625 -24.238281 62.273438 -18.21875 59.796875 -13.375 C 57.316406 -8.53125 53.878906 -4.9375 49.484375 -2.59375 C 45.097656 -0.257812 40.023438 0.90625 34.265625 0.90625 Z M 34.265625 -9.890625 C 39.597656 -9.890625 43.671875 -11.601562 46.484375 -15.03125 C 49.296875 -18.457031 50.703125 -23.925781 50.703125 -31.4375 C 50.703125 -38.945312 49.296875 -44.421875 46.484375 -47.859375 C 43.671875 -51.296875 39.597656 -53.015625 34.265625 -53.015625 C 28.910156 -53.015625 24.820312 -51.296875 22 -47.859375 C 19.175781 -44.421875 17.765625 -38.945312 17.765625 -31.4375 C 17.765625 -23.925781 19.175781 -18.457031 22 -15.03125 C 24.820312 -11.601562 28.910156 -9.890625 34.265625 -9.890625 Z M 34.265625 -9.890625 "/></g></g><g style="fill:#ffffff;fill-opacity:1;"><g transform="translate(690.700501, 1289.47208)"><path style="stroke:none" d=""/></g></g><g style="fill:#ffffff;fill-opacity:1;"><g transform="translate(711.459204, 1289.47208)"><path style="stroke:none" d="M 50.390625 -62.859375 L 50.390625 -52.421875 L 32.25 -52.421875 L 32.25 0 L 19.859375 0 L 19.859375 -52.421875 L 1.71875 -52.421875 L 1.71875 -62.859375 Z M 50.390625 -62.859375 "/></g></g><g style="fill:#ffffff;fill-opacity:1;"><g transform="translate(763.549278, 1289.47208)"><path style="stroke:none" d="M 48.765625 -39.21875 L 48.765625 -62.859375 L 61.140625 -62.859375 L 61.140625 0 L 48.765625 0 L 48.765625 -28.640625 L 20.59375 -28.640625 L 20.59375 0 L 8.171875 0 L 8.171875 -62.859375 L 20.59375 -62.859375 L 20.59375 -39.21875 Z M 48.765625 -39.21875 "/></g></g><g style="fill:#ffffff;fill-opacity:1;"><g transform="translate(832.873811, 1289.47208)"><path style="stroke:none" d="M 20.59375 -27.609375 L 20.59375 -10.40625 L 50.609375 -10.40625 L 50.609375 0 L 8.171875 0 L 8.171875 -62.859375 L 49.921875 -62.859375 L 49.921875 -52.453125 L 20.59375 -52.453125 L 20.59375 -37.75 L 46.21875 -37.75 L 46.21875 -27.609375 Z M 20.59375 -27.609375 "/></g></g><g style="fill:#ffffff;fill-opacity:1;"><g transform="translate(886.897958, 1289.47208)"><path style="stroke:none" d=""/></g></g><g style="fill:#ffffff;fill-opacity:1;"><g transform="translate(907.656661, 1289.47208)"><path style="stroke:none" d="M 30.015625 0 L 16.125 0 L 1.71875 -62.859375 L 14.109375 -62.859375 L 23.609375 -18.65625 L 24.6875 -18.65625 L 35.953125 -62.859375 L 46.5625 -62.859375 L 58.046875 -18.65625 L 59.125 -18.65625 L 68.671875 -62.859375 L 80.625 -62.859375 L 66.265625 0 L 52.328125 0 L 41.328125 -40.546875 L 40.421875 -40.546875 Z M 30.015625 0 "/></g></g><g style="fill:#ffffff;fill-opacity:1;"><g transform="translate(989.917722, 1289.47208)"><path style="stroke:none" d="M 34.265625 0.90625 C 28.503906 0.90625 23.421875 -0.269531 19.015625 -2.625 C 14.617188 -4.976562 11.171875 -8.566406 8.671875 -13.390625 C 6.179688 -18.222656 4.9375 -24.238281 4.9375 -31.4375 C 4.9375 -38.625 6.179688 -44.632812 8.671875 -49.46875 C 11.171875 -54.300781 14.617188 -57.890625 19.015625 -60.234375 C 23.421875 -62.585938 28.503906 -63.765625 34.265625 -63.765625 C 40.023438 -63.765625 45.097656 -62.597656 49.484375 -60.265625 C 53.878906 -57.929688 57.316406 -54.335938 59.796875 -49.484375 C 62.273438 -44.640625 63.515625 -38.625 63.515625 -31.4375 C 63.515625 -24.238281 62.273438 -18.21875 59.796875 -13.375 C 57.316406 -8.53125 53.878906 -4.9375 49.484375 -2.59375 C 45.097656 -0.257812 40.023438 0.90625 34.265625 0.90625 Z M 34.265625 -9.890625 C 39.597656 -9.890625 43.671875 -11.601562 46.484375 -15.03125 C 49.296875 -18.457031 50.703125 -23.925781 50.703125 -31.4375 C 50.703125 -38.945312 49.296875 -44.421875 46.484375 -47.859375 C 43.671875 -51.296875 39.597656 -53.015625 34.265625 -53.015625 C 28.910156 -53.015625 24.820312 -51.296875 22 -47.859375 C 19.175781 -44.421875 17.765625 -38.945312 17.765625 -31.4375 C 17.765625 -23.925781 19.175781 -18.457031 22 -15.03125 C 24.820312 -11.601562 28.910156 -9.890625 34.265625 -9.890625 Z M 34.265625 -9.890625 "/></g></g><g style="fill:#ffffff;fill-opacity:1;"><g transform="translate(1058.382682, 1289.47208)"><path style="stroke:none" d="M 8.171875 0 L 8.171875 -62.859375 L 33.40625 -62.859375 C 39.914062 -62.859375 44.828125 -61.359375 48.140625 -58.359375 C 51.453125 -55.367188 53.109375 -51.238281 53.109375 -45.96875 C 53.109375 -42.15625 52.140625 -39.03125 50.203125 -36.59375 C 48.265625 -34.15625 45.375 -32.289062 41.53125 -31 L 41.53125 -30.09375 C 43.507812 -29.238281 45.109375 -27.960938 46.328125 -26.265625 C 47.546875 -24.578125 48.703125 -22.070312 49.796875 -18.75 L 56.078125 0 L 43.296875 0 L 37.15625 -18.796875 C 36.519531 -20.679688 35.804688 -22.144531 35.015625 -23.1875 C 34.234375 -24.238281 33.234375 -25 32.015625 -25.46875 C 30.796875 -25.945312 29.210938 -26.1875 27.265625 -26.1875 L 20.59375 -26.1875 L 20.59375 0 Z M 31.90625 -36.03125 C 37.925781 -36.03125 40.9375 -38.84375 40.9375 -44.46875 C 40.9375 -50.164062 37.925781 -53.015625 31.90625 -53.015625 L 20.59375 -53.015625 L 20.59375 -36.03125 Z M 31.90625 -36.03125 "/></g></g><g style="fill:#ffffff;fill-opacity:1;"><g transform="translate(1117.134476, 1289.47208)"><path style="stroke:none" d="M 20.59375 -62.859375 L 20.59375 -10.40625 L 48.84375 -10.40625 L 48.84375 0 L 8.171875 0 L 8.171875 -62.859375 Z M 20.59375 -62.859375 "/></g></g><g style="fill:#ffffff;fill-opacity:1;"><g transform="translate(1168.021149, 1289.47208)"><path style="stroke:none" d="M 30.78125 -62.859375 C 40.988281 -62.859375 48.78125 -60.222656 54.15625 -54.953125 C 59.53125 -49.679688 62.21875 -41.84375 62.21875 -31.4375 C 62.21875 -21.050781 59.53125 -13.210938 54.15625 -7.921875 C 48.78125 -2.640625 40.988281 0 30.78125 0 L 8.171875 0 L 8.171875 -62.859375 Z M 30.0625 -10.453125 C 36.539062 -10.453125 41.382812 -12.101562 44.59375 -15.40625 C 47.800781 -18.71875 49.40625 -24.0625 49.40625 -31.4375 C 49.40625 -38.800781 47.800781 -44.140625 44.59375 -47.453125 C 41.382812 -50.765625 36.539062 -52.421875 30.0625 -52.421875 L 20.59375 -52.421875 L 20.59375 -10.453125 Z M 30.0625 -10.453125 "/></g></g></g></svg>