<svg xmlns="http://www.w3.org/2000/svg" xmlns:xlink="http://www.w3.org/1999/xlink" width="1000" zoomAndPan="magnify" viewBox="0 0 750 217.499994" height="290" preserveAspectRatio="xMidYMid meet" version="1.2"><defs/><g id="0eef199e76"><path style=" stroke:none;fill-rule:nonzero;fill:#9f0b0b;fill-opacity:1;" d="M 218.992188 172.460938 L 185.273438 172.460938 C 172.863281 172.460938 160.875 176.957031 151.554688 184.8125 C 142.203125 176.929688 130.242188 172.460938 117.835938 172.460938 L 84.144531 172.460938 L 84.144531 99.121094 L 63.613281 99.121094 L 63.613281 193.023438 L 117.863281 193.023438 C 128.027344 193.023438 137.289062 197.699219 143.339844 205.851562 L 151.585938 217 L 159.828125 205.851562 C 165.882812 197.699219 175.140625 193.023438 185.304688 193.023438 L 239.554688 193.023438 L 239.554688 99.121094 L 218.992188 99.121094 Z M 218.992188 172.460938 "/><path style=" stroke:none;fill-rule:nonzero;fill:#9f0b0b;fill-opacity:1;" d="M 101.199219 122.675781 L 124.457031 122.675781 L 124.457031 145.9375 L 101.199219 145.9375 Z M 101.199219 122.675781 "/><path style=" stroke:none;fill-rule:nonzero;fill:#9f0b0b;fill-opacity:1;" d="M 139.925781 122.675781 L 163.183594 122.675781 L 163.183594 145.9375 L 139.925781 145.9375 Z M 139.925781 122.675781 "/><path style=" stroke:none;fill-rule:nonzero;fill:#9f0b0b;fill-opacity:1;" d="M 178.648438 122.675781 L 201.90625 122.675781 L 201.90625 145.9375 L 178.648438 145.9375 Z M 178.648438 122.675781 "/><path style=" stroke:none;fill-rule:nonzero;fill:#9f0b0b;fill-opacity:1;" d="M 277.050781 117.164062 L 277.050781 61.863281 L 301.417969 53.203125 L 151.554688 0.03125 L 1.691406 53.203125 L 151.554688 106.402344 L 256.488281 69.148438 L 256.488281 117.164062 C 252.082031 120.339844 249.203125 125.523438 249.203125 131.398438 C 249.203125 141.109375 257.058594 148.964844 266.769531 148.964844 C 276.480469 148.964844 284.332031 141.109375 284.332031 131.398438 C 284.332031 125.554688 281.453125 120.371094 277.050781 117.164062 Z M 277.050781 117.164062 "/><g style="fill:#0d356b;fill-opacity:1;"><g transform="translate(319.881854, 146.976816)"><path style="stroke:none" d="M 70.140625 0 L 54.9375 0 L 49.4375 -16.84375 L 21.4375 -16.84375 L 15.953125 0 L 1.09375 0 L 26.34375 -73.078125 L 44.890625 -73.078125 Z M 34.734375 -57.828125 L 25.34375 -29 L 45.4375 -29 L 35.984375 -57.828125 Z M 34.734375 -57.828125 "/></g></g><g style="fill:#0d356b;fill-opacity:1;"><g transform="translate(391.109357, 146.976816)"><path style="stroke:none" d="M 25.796875 1.046875 C 22.023438 1.046875 18.570312 0.609375 15.4375 -0.265625 C 12.3125 -1.148438 9.640625 -2.367188 7.421875 -3.921875 C 5.203125 -5.472656 3.5625 -7.25 2.5 -9.25 L 10.203125 -17.546875 L 11.25 -17.546875 C 13.082031 -15.078125 15.25 -13.222656 17.75 -11.984375 C 20.25 -10.753906 22.960938 -10.140625 25.890625 -10.140625 C 28.585938 -10.140625 30.617188 -10.625 31.984375 -11.59375 C 33.359375 -12.5625 34.046875 -13.945312 34.046875 -15.75 C 34.046875 -17.144531 33.550781 -18.316406 32.5625 -19.265625 C 31.582031 -20.210938 29.992188 -20.957031 27.796875 -21.5 L 20.5 -23.25 C 15.03125 -24.539062 11.035156 -26.523438 8.515625 -29.203125 C 6.003906 -31.890625 4.75 -35.300781 4.75 -39.4375 C 4.75 -42.875 5.625 -45.859375 7.375 -48.390625 C 9.125 -50.921875 11.585938 -52.851562 14.765625 -54.1875 C 17.953125 -55.519531 21.660156 -56.1875 25.890625 -56.1875 C 30.859375 -56.1875 34.972656 -55.46875 38.234375 -54.03125 C 41.503906 -52.601562 44.054688 -50.6875 45.890625 -48.28125 L 38.484375 -40.296875 L 37.484375 -40.296875 C 35.953125 -42.023438 34.226562 -43.285156 32.3125 -44.078125 C 30.394531 -44.878906 28.253906 -45.28125 25.890625 -45.28125 C 20.429688 -45.28125 17.703125 -43.582031 17.703125 -40.1875 C 17.703125 -38.757812 18.207031 -37.59375 19.21875 -36.6875 C 20.238281 -35.789062 22.03125 -35.054688 24.59375 -34.484375 L 31.390625 -32.984375 C 36.992188 -31.785156 41.082031 -29.863281 43.65625 -27.21875 C 46.238281 -24.570312 47.53125 -21.015625 47.53125 -16.546875 C 47.53125 -13.046875 46.664062 -9.960938 44.9375 -7.296875 C 43.207031 -4.628906 40.707031 -2.570312 37.4375 -1.125 C 34.175781 0.320312 30.296875 1.046875 25.796875 1.046875 Z M 25.796875 1.046875 "/></g></g><g style="fill:#0d356b;fill-opacity:1;"><g transform="translate(441.943304, 146.976816)"><path style="stroke:none" d="M 7.953125 22.34375 L 7.953125 -55.140625 L 21.796875 -55.140625 L 21.796875 -47.9375 L 22.84375 -47.734375 C 24.476562 -50.535156 26.660156 -52.644531 29.390625 -54.0625 C 32.117188 -55.476562 35.316406 -56.1875 38.984375 -56.1875 C 43.421875 -56.1875 47.296875 -55.132812 50.609375 -53.03125 C 53.929688 -50.9375 56.515625 -47.75 58.359375 -43.46875 C 60.210938 -39.1875 61.140625 -33.878906 61.140625 -27.546875 C 61.140625 -21.242188 60.160156 -15.957031 58.203125 -11.6875 C 56.253906 -7.425781 53.546875 -4.238281 50.078125 -2.125 C 46.617188 -0.0078125 42.625 1.046875 38.09375 1.046875 C 34.65625 1.046875 31.6875 0.472656 29.1875 -0.671875 C 26.6875 -1.828125 24.570312 -3.617188 22.84375 -6.046875 L 21.796875 -5.84375 L 21.796875 22.34375 Z M 34.234375 -10.703125 C 38.367188 -10.703125 41.503906 -12.050781 43.640625 -14.75 C 45.773438 -17.445312 46.84375 -21.710938 46.84375 -27.546875 C 46.84375 -33.378906 45.773438 -37.648438 43.640625 -40.359375 C 41.503906 -43.078125 38.367188 -44.4375 34.234375 -44.4375 C 30.367188 -44.4375 27.300781 -43.035156 25.03125 -40.234375 C 22.769531 -37.441406 21.640625 -33.210938 21.640625 -27.546875 C 21.640625 -21.910156 22.769531 -17.691406 25.03125 -14.890625 C 27.300781 -12.097656 30.367188 -10.703125 34.234375 -10.703125 Z M 34.234375 -10.703125 "/></g></g><g style="fill:#0d356b;fill-opacity:1;"><g transform="translate(507.972449, 146.976816)"><path style="stroke:none" d="M 14.84375 -61.734375 C 12.34375 -61.734375 10.3125 -62.488281 8.75 -64 C 7.1875 -65.519531 6.40625 -67.484375 6.40625 -69.890625 C 6.40625 -72.253906 7.1875 -74.191406 8.75 -75.703125 C 10.3125 -77.222656 12.34375 -77.984375 14.84375 -77.984375 C 16.507812 -77.984375 17.992188 -77.628906 19.296875 -76.921875 C 20.597656 -76.222656 21.601562 -75.265625 22.3125 -74.046875 C 23.03125 -72.835938 23.390625 -71.453125 23.390625 -69.890625 C 23.390625 -68.316406 23.03125 -66.910156 22.3125 -65.671875 C 21.601562 -64.441406 20.597656 -63.476562 19.296875 -62.78125 C 17.992188 -62.082031 16.507812 -61.734375 14.84375 -61.734375 Z M 7.953125 0 L 7.953125 -55.140625 L 21.796875 -55.140625 L 21.796875 0 Z M 7.953125 0 "/></g></g><g style="fill:#0d356b;fill-opacity:1;"><g transform="translate(537.663065, 146.976816)"><path style="stroke:none" d="M 7.953125 0 L 7.953125 -55.140625 L 21.390625 -55.140625 L 21.390625 -46.9375 L 22.4375 -46.734375 C 23.769531 -49.804688 25.519531 -52.054688 27.6875 -53.484375 C 29.851562 -54.921875 32.488281 -55.640625 35.59375 -55.640625 C 38.726562 -55.640625 41.109375 -55.101562 42.734375 -54.03125 L 40.390625 -42.09375 L 39.34375 -41.890625 C 38.4375 -42.253906 37.566406 -42.519531 36.734375 -42.6875 C 35.898438 -42.851562 34.882812 -42.9375 33.6875 -42.9375 C 29.820312 -42.9375 26.875 -41.578125 24.84375 -38.859375 C 22.8125 -36.148438 21.796875 -31.796875 21.796875 -25.796875 L 21.796875 0 Z M 7.953125 0 "/></g></g><g style="fill:#0d356b;fill-opacity:1;"><g transform="translate(580.899413, 146.976816)"><path style="stroke:none" d="M 54.484375 -24.4375 L 19.046875 -24.4375 C 19.441406 -19.644531 20.804688 -16.15625 23.140625 -13.96875 C 25.472656 -11.789062 28.65625 -10.703125 32.6875 -10.703125 C 35.851562 -10.703125 38.421875 -11.289062 40.390625 -12.46875 C 42.359375 -13.65625 43.941406 -15.445312 45.140625 -17.84375 L 46.1875 -17.84375 L 55.390625 -11.953125 C 53.585938 -8.085938 50.867188 -4.953125 47.234375 -2.546875 C 43.609375 -0.148438 38.757812 1.046875 32.6875 1.046875 C 26.988281 1.046875 22.066406 -0.0351562 17.921875 -2.203125 C 13.773438 -4.367188 10.578125 -7.59375 8.328125 -11.875 C 6.078125 -16.15625 4.953125 -21.378906 4.953125 -27.546875 C 4.953125 -33.804688 6.132812 -39.085938 8.5 -43.390625 C 10.863281 -47.691406 14.0625 -50.898438 18.09375 -53.015625 C 22.125 -55.128906 26.65625 -56.1875 31.6875 -56.1875 C 39.488281 -56.1875 45.460938 -54.117188 49.609375 -49.984375 C 53.765625 -45.859375 55.84375 -39.796875 55.84375 -31.796875 C 55.84375 -28.890625 55.738281 -26.640625 55.53125 -25.046875 Z M 42.59375 -33.390625 C 42.457031 -37.585938 41.476562 -40.644531 39.65625 -42.5625 C 37.84375 -44.476562 35.1875 -45.4375 31.6875 -45.4375 C 24.6875 -45.4375 20.570312 -41.421875 19.34375 -33.390625 Z M 42.59375 -33.390625 "/></g></g><g style="fill:#0d356b;fill-opacity:1;"><g transform="translate(640.830486, 146.976816)"><path style="stroke:none" d="M 22.890625 1.046875 C 17.929688 1.046875 14.140625 -0.289062 11.515625 -2.96875 C 8.898438 -5.65625 7.59375 -9.734375 7.59375 -15.203125 L 7.59375 -77.28125 L 21.4375 -77.28125 L 21.4375 -15.75 C 21.4375 -12.382812 22.835938 -10.703125 25.640625 -10.703125 C 26.441406 -10.703125 27.289062 -10.832031 28.1875 -11.09375 L 28.890625 -10.890625 L 30.140625 -0.25 C 29.378906 0.144531 28.363281 0.457031 27.09375 0.6875 C 25.820312 0.925781 24.421875 1.046875 22.890625 1.046875 Z M 22.890625 1.046875 "/></g></g><g style="fill:#0d356b;fill-opacity:1;"><g transform="translate(672.52047, 146.976816)"><path style="stroke:none" d="M 12.203125 23.390625 C 9.828125 23.390625 7.679688 23.207031 5.765625 22.84375 C 3.859375 22.476562 2.300781 21.992188 1.09375 21.390625 L 3.296875 10.203125 L 4.203125 9.890625 C 5.035156 10.328125 6.066406 10.675781 7.296875 10.9375 C 8.523438 11.207031 9.789062 11.34375 11.09375 11.34375 C 13.332031 11.34375 15.191406 11.050781 16.671875 10.46875 C 18.148438 9.882812 19.40625 8.914062 20.4375 7.5625 C 21.476562 6.21875 22.394531 4.347656 23.1875 1.953125 L 1.203125 -55.140625 L 15.703125 -55.140625 L 29.390625 -16.796875 L 30.59375 -16.796875 L 43.9375 -55.140625 L 58.03125 -55.140625 L 35.890625 3.453125 C 34.117188 8.179688 32.175781 11.988281 30.0625 14.875 C 27.945312 17.757812 25.445312 19.898438 22.5625 21.296875 C 19.6875 22.691406 16.234375 23.390625 12.203125 23.390625 Z M 12.203125 23.390625 "/></g></g></g></svg>