<svg xmlns="http://www.w3.org/2000/svg" xmlns:xlink="http://www.w3.org/1999/xlink" width="500" zoomAndPan="magnify" viewBox="0 0 375 374.999991" height="500" preserveAspectRatio="xMidYMid meet" version="1.2"><defs><clipPath id="60428612cd"><path d="M 146 140 L 218 140 L 218 187.265625 L 146 187.265625 Z M 146 140 "/></clipPath><clipPath id="0e28806405"><path d="M 121.4375 100.265625 L 242 100.265625 L 242 160 L 121.4375 160 Z M 121.4375 100.265625 "/></clipPath></defs><g id="64ee69a045"><rect x="0" width="375" y="0" height="374.999991" style="fill:#ffffff;fill-opacity:1;stroke:none;"/><rect x="0" width="375" y="0" height="374.999991" style="fill:#ffffff;fill-opacity:1;stroke:none;"/><g clip-rule="nonzero" clip-path="url(#60428612cd)"><path style=" stroke:none;fill-rule:nonzero;fill:#9f0b0b;fill-opacity:1;" d="M 208.886719 169.410156 L 195.367188 169.410156 C 190.390625 169.410156 185.585938 171.210938 181.847656 174.359375 C 178.097656 171.199219 173.304688 169.410156 168.328125 169.410156 L 154.824219 169.410156 L 154.824219 140.003906 L 146.589844 140.003906 L 146.589844 177.652344 L 168.339844 177.652344 C 172.414062 177.652344 176.128906 179.527344 178.554688 182.796875 L 181.859375 187.265625 L 185.164062 182.796875 C 187.589844 179.527344 191.304688 177.652344 195.378906 177.652344 L 217.128906 177.652344 L 217.128906 140.003906 L 208.886719 140.003906 Z M 208.886719 169.410156 "/></g><path style=" stroke:none;fill-rule:nonzero;fill:#9f0b0b;fill-opacity:1;" d="M 161.660156 149.449219 L 170.984375 149.449219 L 170.984375 158.773438 L 161.660156 158.773438 Z M 161.660156 149.449219 "/><path style=" stroke:none;fill-rule:nonzero;fill:#9f0b0b;fill-opacity:1;" d="M 177.183594 149.449219 L 186.511719 149.449219 L 186.511719 158.773438 L 177.183594 158.773438 Z M 177.183594 149.449219 "/><path style=" stroke:none;fill-rule:nonzero;fill:#9f0b0b;fill-opacity:1;" d="M 192.710938 149.449219 L 202.035156 149.449219 L 202.035156 158.773438 L 192.710938 158.773438 Z M 192.710938 149.449219 "/><g clip-rule="nonzero" clip-path="url(#0e28806405)"><path style=" stroke:none;fill-rule:nonzero;fill:#9f0b0b;fill-opacity:1;" d="M 232.160156 147.238281 L 232.160156 125.066406 L 241.929688 121.59375 L 181.847656 100.277344 L 121.765625 121.59375 L 181.847656 142.925781 L 223.917969 127.988281 L 223.917969 147.238281 C 222.152344 148.511719 220.996094 150.589844 220.996094 152.945312 C 220.996094 156.839844 224.144531 159.988281 228.039062 159.988281 C 231.933594 159.988281 235.082031 156.839844 235.082031 152.945312 C 235.082031 150.601562 233.925781 148.523438 232.160156 147.238281 Z M 232.160156 147.238281 "/></g><g style="fill:#0c2f5d;fill-opacity:1;"><g transform="translate(107.03906, 226.250025)"><path style="stroke:none" d="M 27.40625 0 L 21.46875 0 L 19.3125 -6.578125 L 8.375 -6.578125 L 6.234375 0 L 0.4375 0 L 10.296875 -28.5625 L 17.546875 -28.5625 Z M 13.578125 -22.59375 L 9.90625 -11.328125 L 17.75 -11.328125 L 14.0625 -22.59375 Z M 13.578125 -22.59375 "/></g></g><g style="fill:#0c2f5d;fill-opacity:1;"><g transform="translate(134.868377, 226.250025)"><path style="stroke:none" d="M 10.078125 0.40625 C 8.609375 0.40625 7.257812 0.234375 6.03125 -0.109375 C 4.8125 -0.453125 3.769531 -0.925781 2.90625 -1.53125 C 2.039062 -2.132812 1.398438 -2.828125 0.984375 -3.609375 L 3.984375 -6.859375 L 4.390625 -6.859375 C 5.109375 -5.890625 5.957031 -5.164062 6.9375 -4.6875 C 7.914062 -4.207031 8.976562 -3.96875 10.125 -3.96875 C 11.175781 -3.96875 11.96875 -4.15625 12.5 -4.53125 C 13.03125 -4.90625 13.296875 -5.445312 13.296875 -6.15625 C 13.296875 -6.695312 13.101562 -7.15625 12.71875 -7.53125 C 12.34375 -7.90625 11.722656 -8.195312 10.859375 -8.40625 L 8.015625 -9.078125 C 5.878906 -9.585938 4.316406 -10.363281 3.328125 -11.40625 C 2.347656 -12.457031 1.859375 -13.789062 1.859375 -15.40625 C 1.859375 -16.75 2.195312 -17.914062 2.875 -18.90625 C 3.5625 -19.894531 4.523438 -20.648438 5.765625 -21.171875 C 7.015625 -21.691406 8.46875 -21.953125 10.125 -21.953125 C 12.0625 -21.953125 13.664062 -21.671875 14.9375 -21.109375 C 16.21875 -20.554688 17.21875 -19.8125 17.9375 -18.875 L 15.046875 -15.75 L 14.65625 -15.75 C 14.050781 -16.425781 13.375 -16.921875 12.625 -17.234375 C 11.875 -17.546875 11.039062 -17.703125 10.125 -17.703125 C 7.988281 -17.703125 6.921875 -17.035156 6.921875 -15.703125 C 6.921875 -15.140625 7.117188 -14.679688 7.515625 -14.328125 C 7.910156 -13.984375 8.609375 -13.703125 9.609375 -13.484375 L 12.265625 -12.890625 C 14.453125 -12.421875 16.050781 -11.664062 17.0625 -10.625 C 18.070312 -9.59375 18.578125 -8.207031 18.578125 -6.46875 C 18.578125 -5.101562 18.238281 -3.898438 17.5625 -2.859375 C 16.882812 -1.816406 15.90625 -1.007812 14.625 -0.4375 C 13.351562 0.125 11.835938 0.40625 10.078125 0.40625 Z M 10.078125 0.40625 "/></g></g><g style="fill:#0c2f5d;fill-opacity:1;"><g transform="translate(154.729723, 226.250025)"><path style="stroke:none" d="M 3.109375 8.734375 L 3.109375 -21.546875 L 8.515625 -21.546875 L 8.515625 -18.734375 L 8.921875 -18.65625 C 9.566406 -19.75 10.421875 -20.570312 11.484375 -21.125 C 12.554688 -21.675781 13.804688 -21.953125 15.234375 -21.953125 C 16.960938 -21.953125 18.472656 -21.539062 19.765625 -20.71875 C 21.066406 -19.90625 22.078125 -18.660156 22.796875 -16.984375 C 23.523438 -15.304688 23.890625 -13.234375 23.890625 -10.765625 C 23.890625 -8.304688 23.507812 -6.242188 22.75 -4.578125 C 21.988281 -2.910156 20.929688 -1.660156 19.578125 -0.828125 C 18.222656 -0.00390625 16.660156 0.40625 14.890625 0.40625 C 13.546875 0.40625 12.382812 0.179688 11.40625 -0.265625 C 10.425781 -0.710938 9.597656 -1.410156 8.921875 -2.359375 L 8.515625 -2.28125 L 8.515625 8.734375 Z M 13.375 -4.1875 C 14.988281 -4.1875 16.210938 -4.710938 17.046875 -5.765625 C 17.878906 -6.816406 18.296875 -8.484375 18.296875 -10.765625 C 18.296875 -13.046875 17.878906 -14.710938 17.046875 -15.765625 C 16.210938 -16.828125 14.988281 -17.359375 13.375 -17.359375 C 11.863281 -17.359375 10.664062 -16.8125 9.78125 -15.71875 C 8.894531 -14.625 8.453125 -12.972656 8.453125 -10.765625 C 8.453125 -8.566406 8.894531 -6.921875 9.78125 -5.828125 C 10.664062 -4.734375 11.863281 -4.1875 13.375 -4.1875 Z M 13.375 -4.1875 "/></g></g><g style="fill:#0c2f5d;fill-opacity:1;"><g transform="translate(180.527989, 226.250025)"><path style="stroke:none" d="M 5.796875 -24.125 C 4.828125 -24.125 4.035156 -24.421875 3.421875 -25.015625 C 2.804688 -25.609375 2.5 -26.375 2.5 -27.3125 C 2.5 -28.226562 2.804688 -28.984375 3.421875 -29.578125 C 4.035156 -30.171875 4.828125 -30.46875 5.796875 -30.46875 C 6.453125 -30.46875 7.03125 -30.332031 7.53125 -30.0625 C 8.039062 -29.789062 8.4375 -29.414062 8.71875 -28.9375 C 9 -28.457031 9.140625 -27.914062 9.140625 -27.3125 C 9.140625 -26.695312 9 -26.144531 8.71875 -25.65625 C 8.4375 -25.175781 8.039062 -24.800781 7.53125 -24.53125 C 7.03125 -24.257812 6.453125 -24.125 5.796875 -24.125 Z M 3.109375 0 L 3.109375 -21.546875 L 8.515625 -21.546875 L 8.515625 0 Z M 3.109375 0 "/></g></g><g style="fill:#0c2f5d;fill-opacity:1;"><g transform="translate(192.128418, 226.250025)"><path style="stroke:none" d="M 3.109375 0 L 3.109375 -21.546875 L 8.359375 -21.546875 L 8.359375 -18.34375 L 8.765625 -18.265625 C 9.285156 -19.460938 9.96875 -20.335938 10.8125 -20.890625 C 11.664062 -21.453125 12.695312 -21.734375 13.90625 -21.734375 C 15.132812 -21.734375 16.066406 -21.523438 16.703125 -21.109375 L 15.78125 -16.453125 L 15.375 -16.375 C 15.019531 -16.507812 14.679688 -16.609375 14.359375 -16.671875 C 14.035156 -16.742188 13.640625 -16.78125 13.171875 -16.78125 C 11.660156 -16.78125 10.503906 -16.25 9.703125 -15.1875 C 8.910156 -14.125 8.515625 -12.421875 8.515625 -10.078125 L 8.515625 0 Z M 3.109375 0 "/></g></g><g style="fill:#0c2f5d;fill-opacity:1;"><g transform="translate(209.021303, 226.250025)"><path style="stroke:none" d="M 21.296875 -9.546875 L 7.4375 -9.546875 C 7.59375 -7.671875 8.125 -6.304688 9.03125 -5.453125 C 9.945312 -4.609375 11.195312 -4.1875 12.78125 -4.1875 C 14.007812 -4.1875 15.007812 -4.414062 15.78125 -4.875 C 16.550781 -5.332031 17.171875 -6.03125 17.640625 -6.96875 L 18.046875 -6.96875 L 21.640625 -4.671875 C 20.941406 -3.160156 19.878906 -1.9375 18.453125 -1 C 17.035156 -0.0625 15.144531 0.40625 12.78125 0.40625 C 10.550781 0.40625 8.625 -0.015625 7 -0.859375 C 5.382812 -1.703125 4.132812 -2.960938 3.25 -4.640625 C 2.375 -6.316406 1.9375 -8.359375 1.9375 -10.765625 C 1.9375 -13.210938 2.394531 -15.273438 3.3125 -16.953125 C 4.238281 -18.628906 5.488281 -19.878906 7.0625 -20.703125 C 8.644531 -21.535156 10.421875 -21.953125 12.390625 -21.953125 C 15.429688 -21.953125 17.757812 -21.144531 19.375 -19.53125 C 21 -17.914062 21.8125 -15.546875 21.8125 -12.421875 C 21.8125 -11.285156 21.773438 -10.40625 21.703125 -9.78125 Z M 16.640625 -13.046875 C 16.585938 -14.691406 16.207031 -15.882812 15.5 -16.625 C 14.789062 -17.375 13.753906 -17.75 12.390625 -17.75 C 9.648438 -17.75 8.039062 -16.179688 7.5625 -13.046875 Z M 16.640625 -13.046875 "/></g></g><g style="fill:#0c2f5d;fill-opacity:1;"><g transform="translate(232.43699, 226.250025)"><path style="stroke:none" d="M 8.953125 0.40625 C 7.003906 0.40625 5.519531 -0.113281 4.5 -1.15625 C 3.476562 -2.207031 2.96875 -3.800781 2.96875 -5.9375 L 2.96875 -30.203125 L 8.375 -30.203125 L 8.375 -6.15625 C 8.375 -4.84375 8.921875 -4.1875 10.015625 -4.1875 C 10.328125 -4.1875 10.660156 -4.238281 11.015625 -4.34375 L 11.296875 -4.265625 L 11.78125 -0.09375 C 11.476562 0.0625 11.078125 0.179688 10.578125 0.265625 C 10.085938 0.359375 9.546875 0.40625 8.953125 0.40625 Z M 8.953125 0.40625 "/></g></g><g style="fill:#0c2f5d;fill-opacity:1;"><g transform="translate(244.818592, 226.250025)"><path style="stroke:none" d="M 4.765625 9.140625 C 3.835938 9.140625 3 9.066406 2.25 8.921875 C 1.507812 8.785156 0.90625 8.597656 0.4375 8.359375 L 1.296875 3.984375 L 1.640625 3.875 C 1.960938 4.039062 2.363281 4.175781 2.84375 4.28125 C 3.332031 4.382812 3.832031 4.4375 4.34375 4.4375 C 5.207031 4.4375 5.929688 4.320312 6.515625 4.09375 C 7.097656 3.863281 7.585938 3.484375 7.984375 2.953125 C 8.390625 2.429688 8.75 1.703125 9.0625 0.765625 L 0.46875 -21.546875 L 6.140625 -21.546875 L 11.484375 -6.5625 L 11.953125 -6.5625 L 17.171875 -21.546875 L 22.671875 -21.546875 L 14.03125 1.34375 C 13.332031 3.195312 12.570312 4.6875 11.75 5.8125 C 10.925781 6.9375 9.945312 7.769531 8.8125 8.3125 C 7.6875 8.863281 6.335938 9.140625 4.765625 9.140625 Z M 4.765625 9.140625 "/></g></g><g style="fill:#ffffff;fill-opacity:1;"><g transform="translate(144.131633, 256.853528)"><path style="stroke:none" d="M 4.625 0.125 C 3.84375 0.125 3.15625 -0.03125 2.5625 -0.34375 C 1.96875 -0.664062 1.503906 -1.148438 1.171875 -1.796875 C 0.835938 -2.453125 0.671875 -3.269531 0.671875 -4.25 C 0.671875 -5.21875 0.835938 -6.023438 1.171875 -6.671875 C 1.503906 -7.328125 1.96875 -7.8125 2.5625 -8.125 C 3.15625 -8.445312 3.84375 -8.609375 4.625 -8.609375 C 5.40625 -8.609375 6.09375 -8.445312 6.6875 -8.125 C 7.28125 -7.8125 7.742188 -7.328125 8.078125 -6.671875 C 8.410156 -6.023438 8.578125 -5.21875 8.578125 -4.25 C 8.578125 -3.269531 8.410156 -2.453125 8.078125 -1.796875 C 7.742188 -1.148438 7.28125 -0.664062 6.6875 -0.34375 C 6.09375 -0.03125 5.40625 0.125 4.625 0.125 Z M 4.625 -1.328125 C 5.34375 -1.328125 5.890625 -1.554688 6.265625 -2.015625 C 6.648438 -2.484375 6.84375 -3.226562 6.84375 -4.25 C 6.84375 -5.257812 6.648438 -5.992188 6.265625 -6.453125 C 5.890625 -6.921875 5.34375 -7.15625 4.625 -7.15625 C 3.90625 -7.15625 3.351562 -6.921875 2.96875 -6.453125 C 2.582031 -5.992188 2.390625 -5.257812 2.390625 -4.25 C 2.390625 -3.226562 2.582031 -2.484375 2.96875 -2.015625 C 3.351562 -1.554688 3.90625 -1.328125 4.625 -1.328125 Z M 4.625 -1.328125 "/></g></g><g style="fill:#ffffff;fill-opacity:1;"><g transform="translate(153.372595, 256.853528)"><path style="stroke:none" d="M 2.734375 0 L 1.109375 0 L 1.109375 -8.484375 L 3.03125 -8.484375 L 6.4375 -3.015625 L 6.578125 -3.046875 L 6.578125 -8.484375 L 8.203125 -8.484375 L 8.203125 0 L 6.484375 0 L 2.875 -5.84375 L 2.734375 -5.8125 Z M 2.734375 0 "/></g></g><g style="fill:#ffffff;fill-opacity:1;"><g transform="translate(162.671568, 256.853528)"><path style="stroke:none" d="M 2.78125 -8.484375 L 2.78125 -1.40625 L 6.59375 -1.40625 L 6.59375 0 L 1.109375 0 L 1.109375 -8.484375 Z M 2.78125 -8.484375 "/></g></g><g style="fill:#ffffff;fill-opacity:1;"><g transform="translate(169.539925, 256.853528)"><path style="stroke:none" d="M 2.78125 0 L 1.109375 0 L 1.109375 -8.484375 L 2.78125 -8.484375 Z M 2.78125 0 "/></g></g><g style="fill:#ffffff;fill-opacity:1;"><g transform="translate(173.426581, 256.853528)"><path style="stroke:none" d="M 2.734375 0 L 1.109375 0 L 1.109375 -8.484375 L 3.03125 -8.484375 L 6.4375 -3.015625 L 6.578125 -3.046875 L 6.578125 -8.484375 L 8.203125 -8.484375 L 8.203125 0 L 6.484375 0 L 2.875 -5.84375 L 2.734375 -5.8125 Z M 2.734375 0 "/></g></g><g style="fill:#ffffff;fill-opacity:1;"><g transform="translate(182.725553, 256.853528)"><path style="stroke:none" d="M 2.78125 -3.734375 L 2.78125 -1.40625 L 6.828125 -1.40625 L 6.828125 0 L 1.109375 0 L 1.109375 -8.484375 L 6.734375 -8.484375 L 6.734375 -7.078125 L 2.78125 -7.078125 L 2.78125 -5.09375 L 6.234375 -5.09375 L 6.234375 -3.734375 Z M 2.78125 -3.734375 "/></g></g><g style="fill:#ffffff;fill-opacity:1;"><g transform="translate(190.017387, 256.853528)"><path style="stroke:none" d=""/></g></g><g style="fill:#ffffff;fill-opacity:1;"><g transform="translate(192.819264, 256.853528)"><path style="stroke:none" d="M 4.640625 0.125 C 3.859375 0.125 3.164062 -0.0351562 2.5625 -0.359375 C 1.96875 -0.691406 1.503906 -1.179688 1.171875 -1.828125 C 0.835938 -2.484375 0.671875 -3.289062 0.671875 -4.25 C 0.671875 -5.195312 0.835938 -6 1.171875 -6.65625 C 1.503906 -7.3125 1.96875 -7.800781 2.5625 -8.125 C 3.164062 -8.445312 3.859375 -8.609375 4.640625 -8.609375 C 5.453125 -8.609375 6.144531 -8.445312 6.71875 -8.125 C 7.289062 -7.8125 7.695312 -7.328125 7.9375 -6.671875 L 6.71875 -5.921875 L 6.578125 -5.921875 C 6.390625 -6.367188 6.140625 -6.6875 5.828125 -6.875 C 5.515625 -7.070312 5.117188 -7.171875 4.640625 -7.171875 C 3.929688 -7.171875 3.378906 -6.9375 2.984375 -6.46875 C 2.585938 -6 2.390625 -5.257812 2.390625 -4.25 C 2.390625 -3.238281 2.585938 -2.5 2.984375 -2.03125 C 3.378906 -1.5625 3.929688 -1.328125 4.640625 -1.328125 C 5.742188 -1.328125 6.421875 -1.863281 6.671875 -2.9375 L 6.8125 -2.9375 L 8.046875 -2.296875 C 7.816406 -1.484375 7.421875 -0.875 6.859375 -0.46875 C 6.296875 -0.0703125 5.554688 0.125 4.640625 0.125 Z M 4.640625 0.125 "/></g></g><g style="fill:#ffffff;fill-opacity:1;"><g transform="translate(201.137867, 256.853528)"><path style="stroke:none" d="M 2.78125 -8.484375 L 2.78125 -1.40625 L 6.59375 -1.40625 L 6.59375 0 L 1.109375 0 L 1.109375 -8.484375 Z M 2.78125 -8.484375 "/></g></g><g style="fill:#ffffff;fill-opacity:1;"><g transform="translate(208.006224, 256.853528)"><path style="stroke:none" d="M 8.140625 0 L 6.375 0 L 5.734375 -1.953125 L 2.484375 -1.953125 L 1.859375 0 L 0.125 0 L 3.0625 -8.484375 L 5.21875 -8.484375 Z M 4.03125 -6.71875 L 2.9375 -3.375 L 5.28125 -3.375 L 4.1875 -6.71875 Z M 4.03125 -6.71875 "/></g></g><g style="fill:#ffffff;fill-opacity:1;"><g transform="translate(216.272623, 256.853528)"><path style="stroke:none" d="M 3.765625 0.125 C 3.171875 0.125 2.644531 0.0507812 2.1875 -0.09375 C 1.726562 -0.238281 1.347656 -0.425781 1.046875 -0.65625 C 0.742188 -0.894531 0.507812 -1.160156 0.34375 -1.453125 L 1.265625 -2.578125 L 1.40625 -2.578125 C 1.664062 -2.191406 1.988281 -1.882812 2.375 -1.65625 C 2.769531 -1.4375 3.234375 -1.328125 3.765625 -1.328125 C 4.210938 -1.328125 4.550781 -1.421875 4.78125 -1.609375 C 5.007812 -1.804688 5.125 -2.066406 5.125 -2.390625 C 5.125 -2.597656 5.085938 -2.769531 5.015625 -2.90625 C 4.941406 -3.039062 4.816406 -3.15625 4.640625 -3.25 C 4.472656 -3.34375 4.242188 -3.425781 3.953125 -3.5 L 2.859375 -3.75 C 2.097656 -3.925781 1.53125 -4.210938 1.15625 -4.609375 C 0.78125 -5.015625 0.59375 -5.539062 0.59375 -6.1875 C 0.59375 -6.675781 0.710938 -7.097656 0.953125 -7.453125 C 1.191406 -7.816406 1.539062 -8.097656 2 -8.296875 C 2.457031 -8.503906 3.007812 -8.609375 3.65625 -8.609375 C 4.3125 -8.609375 4.867188 -8.519531 5.328125 -8.34375 C 5.796875 -8.175781 6.191406 -7.914062 6.515625 -7.5625 L 5.6875 -6.421875 L 5.53125 -6.421875 C 5.289062 -6.671875 5.015625 -6.859375 4.703125 -6.984375 C 4.398438 -7.109375 4.050781 -7.171875 3.65625 -7.171875 C 3.195312 -7.171875 2.84375 -7.085938 2.59375 -6.921875 C 2.351562 -6.765625 2.234375 -6.546875 2.234375 -6.265625 C 2.234375 -5.992188 2.316406 -5.773438 2.484375 -5.609375 C 2.660156 -5.453125 2.957031 -5.332031 3.375 -5.25 L 4.484375 -5.015625 C 5.304688 -4.835938 5.898438 -4.539062 6.265625 -4.125 C 6.640625 -3.707031 6.828125 -3.164062 6.828125 -2.5 C 6.828125 -1.96875 6.710938 -1.503906 6.484375 -1.109375 C 6.265625 -0.722656 5.921875 -0.421875 5.453125 -0.203125 C 4.992188 0.015625 4.429688 0.125 3.765625 0.125 Z M 3.765625 0.125 "/></g></g><g style="fill:#ffffff;fill-opacity:1;"><g transform="translate(223.558651, 256.853528)"><path style="stroke:none" d="M 3.765625 0.125 C 3.171875 0.125 2.644531 0.0507812 2.1875 -0.09375 C 1.726562 -0.238281 1.347656 -0.425781 1.046875 -0.65625 C 0.742188 -0.894531 0.507812 -1.160156 0.34375 -1.453125 L 1.265625 -2.578125 L 1.40625 -2.578125 C 1.664062 -2.191406 1.988281 -1.882812 2.375 -1.65625 C 2.769531 -1.4375 3.234375 -1.328125 3.765625 -1.328125 C 4.210938 -1.328125 4.550781 -1.421875 4.78125 -1.609375 C 5.007812 -1.804688 5.125 -2.066406 5.125 -2.390625 C 5.125 -2.597656 5.085938 -2.769531 5.015625 -2.90625 C 4.941406 -3.039062 4.816406 -3.15625 4.640625 -3.25 C 4.472656 -3.34375 4.242188 -3.425781 3.953125 -3.5 L 2.859375 -3.75 C 2.097656 -3.925781 1.53125 -4.210938 1.15625 -4.609375 C 0.78125 -5.015625 0.59375 -5.539062 0.59375 -6.1875 C 0.59375 -6.675781 0.710938 -7.097656 0.953125 -7.453125 C 1.191406 -7.816406 1.539062 -8.097656 2 -8.296875 C 2.457031 -8.503906 3.007812 -8.609375 3.65625 -8.609375 C 4.3125 -8.609375 4.867188 -8.519531 5.328125 -8.34375 C 5.796875 -8.175781 6.191406 -7.914062 6.515625 -7.5625 L 5.6875 -6.421875 L 5.53125 -6.421875 C 5.289062 -6.671875 5.015625 -6.859375 4.703125 -6.984375 C 4.398438 -7.109375 4.050781 -7.171875 3.65625 -7.171875 C 3.195312 -7.171875 2.84375 -7.085938 2.59375 -6.921875 C 2.351562 -6.765625 2.234375 -6.546875 2.234375 -6.265625 C 2.234375 -5.992188 2.316406 -5.773438 2.484375 -5.609375 C 2.660156 -5.453125 2.957031 -5.332031 3.375 -5.25 L 4.484375 -5.015625 C 5.304688 -4.835938 5.898438 -4.539062 6.265625 -4.125 C 6.640625 -3.707031 6.828125 -3.164062 6.828125 -2.5 C 6.828125 -1.96875 6.710938 -1.503906 6.484375 -1.109375 C 6.265625 -0.722656 5.921875 -0.421875 5.453125 -0.203125 C 4.992188 0.015625 4.429688 0.125 3.765625 0.125 Z M 3.765625 0.125 "/></g></g><g style="fill:#0c2f5d;fill-opacity:1;"><g transform="translate(100.353513, 256.497581)"><path style="stroke:none" d="M 2.984375 -9.09375 L 2.984375 -1.5 L 7.0625 -1.5 L 7.0625 0 L 1.1875 0 L 1.1875 -9.09375 Z M 2.984375 -9.09375 "/></g></g><g style="fill:#0c2f5d;fill-opacity:1;"><g transform="translate(107.711056, 256.497581)"><path style="stroke:none" d="M 6.78125 -3.046875 L 2.375 -3.046875 C 2.414062 -2.441406 2.582031 -2.003906 2.875 -1.734375 C 3.164062 -1.460938 3.5625 -1.328125 4.0625 -1.328125 C 4.457031 -1.328125 4.773438 -1.398438 5.015625 -1.546875 C 5.265625 -1.691406 5.460938 -1.914062 5.609375 -2.21875 L 5.75 -2.21875 L 6.890625 -1.484375 C 6.660156 -1.003906 6.320312 -0.613281 5.875 -0.3125 C 5.425781 -0.0195312 4.820312 0.125 4.0625 0.125 C 3.351562 0.125 2.738281 -0.00390625 2.21875 -0.265625 C 1.707031 -0.535156 1.3125 -0.9375 1.03125 -1.46875 C 0.75 -2.007812 0.609375 -2.660156 0.609375 -3.421875 C 0.609375 -4.203125 0.753906 -4.859375 1.046875 -5.390625 C 1.347656 -5.929688 1.75 -6.332031 2.25 -6.59375 C 2.75 -6.851562 3.3125 -6.984375 3.9375 -6.984375 C 4.90625 -6.984375 5.648438 -6.726562 6.171875 -6.21875 C 6.691406 -5.707031 6.953125 -4.953125 6.953125 -3.953125 C 6.953125 -3.585938 6.9375 -3.304688 6.90625 -3.109375 Z M 5.296875 -4.15625 C 5.273438 -4.675781 5.148438 -5.054688 4.921875 -5.296875 C 4.703125 -5.535156 4.375 -5.65625 3.9375 -5.65625 C 3.070312 -5.65625 2.5625 -5.15625 2.40625 -4.15625 Z M 5.296875 -4.15625 "/></g></g><g style="fill:#0c2f5d;fill-opacity:1;"><g transform="translate(115.161812, 256.497581)"><path style="stroke:none" d="M 2.671875 0.125 C 2.234375 0.125 1.851562 0.046875 1.53125 -0.109375 C 1.207031 -0.273438 0.957031 -0.515625 0.78125 -0.828125 C 0.601562 -1.140625 0.515625 -1.515625 0.515625 -1.953125 C 0.515625 -2.359375 0.601562 -2.695312 0.78125 -2.96875 C 0.957031 -3.25 1.226562 -3.476562 1.59375 -3.65625 C 1.957031 -3.832031 2.429688 -3.96875 3.015625 -4.0625 C 3.429688 -4.125 3.742188 -4.191406 3.953125 -4.265625 C 4.171875 -4.347656 4.316406 -4.4375 4.390625 -4.53125 C 4.460938 -4.632812 4.5 -4.765625 4.5 -4.921875 C 4.5 -5.140625 4.421875 -5.304688 4.265625 -5.421875 C 4.117188 -5.546875 3.863281 -5.609375 3.5 -5.609375 C 3.125 -5.609375 2.765625 -5.519531 2.421875 -5.34375 C 2.078125 -5.175781 1.773438 -4.953125 1.515625 -4.671875 L 1.40625 -4.671875 L 0.671875 -5.765625 C 1.023438 -6.148438 1.453125 -6.445312 1.953125 -6.65625 C 2.453125 -6.875 3 -6.984375 3.59375 -6.984375 C 4.5 -6.984375 5.15625 -6.789062 5.5625 -6.40625 C 5.96875 -6.019531 6.171875 -5.472656 6.171875 -4.765625 L 6.171875 -1.796875 C 6.171875 -1.484375 6.304688 -1.328125 6.578125 -1.328125 C 6.679688 -1.328125 6.785156 -1.347656 6.890625 -1.390625 L 6.96875 -1.359375 L 7.09375 -0.15625 C 7 -0.09375 6.863281 -0.0390625 6.6875 0 C 6.519531 0.03125 6.335938 0.046875 6.140625 0.046875 C 5.722656 0.046875 5.398438 -0.03125 5.171875 -0.1875 C 4.941406 -0.34375 4.78125 -0.585938 4.6875 -0.921875 L 4.546875 -0.9375 C 4.210938 -0.226562 3.585938 0.125 2.671875 0.125 Z M 3.21875 -1.15625 C 3.613281 -1.15625 3.929688 -1.285156 4.171875 -1.546875 C 4.410156 -1.816406 4.53125 -2.191406 4.53125 -2.671875 L 4.53125 -3.375 L 4.421875 -3.390625 C 4.316406 -3.304688 4.175781 -3.238281 4 -3.1875 C 3.832031 -3.132812 3.59375 -3.078125 3.28125 -3.015625 C 2.90625 -2.953125 2.632812 -2.84375 2.46875 -2.6875 C 2.3125 -2.539062 2.234375 -2.332031 2.234375 -2.0625 C 2.234375 -1.757812 2.316406 -1.53125 2.484375 -1.375 C 2.660156 -1.226562 2.90625 -1.15625 3.21875 -1.15625 Z M 3.21875 -1.15625 "/></g></g><g style="fill:#0c2f5d;fill-opacity:1;"><g transform="translate(122.388858, 256.497581)"><path style="stroke:none" d="M 0.984375 0 L 0.984375 -6.859375 L 2.65625 -6.859375 L 2.65625 -5.84375 L 2.796875 -5.8125 C 2.960938 -6.195312 3.175781 -6.476562 3.4375 -6.65625 C 3.707031 -6.832031 4.035156 -6.921875 4.421875 -6.921875 C 4.816406 -6.921875 5.113281 -6.851562 5.3125 -6.71875 L 5.03125 -5.234375 L 4.890625 -5.203125 C 4.773438 -5.253906 4.664062 -5.289062 4.5625 -5.3125 C 4.46875 -5.332031 4.34375 -5.34375 4.1875 -5.34375 C 3.707031 -5.34375 3.34375 -5.171875 3.09375 -4.828125 C 2.84375 -4.492188 2.71875 -3.953125 2.71875 -3.203125 L 2.71875 0 Z M 0.984375 0 "/></g></g><g style="fill:#0c2f5d;fill-opacity:1;"><g transform="translate(127.764091, 256.497581)"><path style="stroke:none" d="M 0.984375 0 L 0.984375 -6.859375 L 2.640625 -6.859375 L 2.640625 -5.84375 L 2.765625 -5.8125 C 3.191406 -6.59375 3.882812 -6.984375 4.84375 -6.984375 C 5.632812 -6.984375 6.21875 -6.769531 6.59375 -6.34375 C 6.96875 -5.914062 7.15625 -5.285156 7.15625 -4.453125 L 7.15625 0 L 5.421875 0 L 5.421875 -4.25 C 5.421875 -4.707031 5.328125 -5.035156 5.140625 -5.234375 C 4.960938 -5.429688 4.675781 -5.53125 4.28125 -5.53125 C 3.78125 -5.53125 3.394531 -5.367188 3.125 -5.046875 C 2.851562 -4.734375 2.71875 -4.234375 2.71875 -3.546875 L 2.71875 0 Z M 0.984375 0 "/></g></g><g style="fill:#0c2f5d;fill-opacity:1;"><g transform="translate(135.792761, 256.497581)"><path style="stroke:none" d=""/></g></g><g style="fill:#0c2f5d;fill-opacity:1;"><g transform="translate(138.794192, 256.497581)"><path style="stroke:none" d="M 4.734375 -1.640625 L 5.171875 -0.359375 C 4.992188 -0.203125 4.757812 -0.0820312 4.46875 0 C 4.1875 0.0820312 3.867188 0.125 3.515625 0.125 C 2.773438 0.125 2.210938 -0.0703125 1.828125 -0.46875 C 1.441406 -0.875 1.25 -1.460938 1.25 -2.234375 L 1.25 -5.5 L 0.203125 -5.5 L 0.203125 -6.859375 L 1.25 -6.859375 L 1.25 -8.203125 L 2.96875 -8.484375 L 2.96875 -6.859375 L 4.921875 -6.859375 L 4.921875 -5.5 L 2.96875 -5.5 L 2.96875 -2.359375 C 2.96875 -2.023438 3.035156 -1.78125 3.171875 -1.625 C 3.316406 -1.46875 3.523438 -1.390625 3.796875 -1.390625 C 4.109375 -1.390625 4.375 -1.472656 4.59375 -1.640625 Z M 4.734375 -1.640625 "/></g></g><g style="fill:#0c2f5d;fill-opacity:1;"><g transform="translate(144.03887, 256.497581)"><path style="stroke:none" d="M 3.984375 0.125 C 3.316406 0.125 2.726562 -0.0078125 2.21875 -0.28125 C 1.707031 -0.5625 1.3125 -0.96875 1.03125 -1.5 C 0.75 -2.03125 0.609375 -2.671875 0.609375 -3.421875 C 0.609375 -4.179688 0.75 -4.828125 1.03125 -5.359375 C 1.3125 -5.890625 1.707031 -6.289062 2.21875 -6.5625 C 2.726562 -6.84375 3.316406 -6.984375 3.984375 -6.984375 C 4.660156 -6.984375 5.25 -6.84375 5.75 -6.5625 C 6.257812 -6.289062 6.65625 -5.890625 6.9375 -5.359375 C 7.21875 -4.828125 7.359375 -4.179688 7.359375 -3.421875 C 7.359375 -2.671875 7.21875 -2.03125 6.9375 -1.5 C 6.65625 -0.96875 6.257812 -0.5625 5.75 -0.28125 C 5.25 -0.0078125 4.660156 0.125 3.984375 0.125 Z M 3.984375 -1.328125 C 5.046875 -1.328125 5.578125 -2.023438 5.578125 -3.421875 C 5.578125 -4.148438 5.441406 -4.679688 5.171875 -5.015625 C 4.898438 -5.359375 4.503906 -5.53125 3.984375 -5.53125 C 2.921875 -5.53125 2.390625 -4.828125 2.390625 -3.421875 C 2.390625 -2.023438 2.921875 -1.328125 3.984375 -1.328125 Z M 3.984375 -1.328125 "/></g></g><g style="fill:#0c2f5d;fill-opacity:1;"><g transform="translate(152.005399, 256.497581)"><path style="stroke:none" d="M 3.390625 0.125 C 2.847656 0.125 2.367188 -0.00390625 1.953125 -0.265625 C 1.535156 -0.523438 1.207031 -0.921875 0.96875 -1.453125 C 0.726562 -1.984375 0.609375 -2.640625 0.609375 -3.421875 C 0.609375 -4.203125 0.726562 -4.859375 0.96875 -5.390625 C 1.21875 -5.929688 1.554688 -6.332031 1.984375 -6.59375 C 2.410156 -6.851562 2.90625 -6.984375 3.46875 -6.984375 C 3.894531 -6.984375 4.265625 -6.910156 4.578125 -6.765625 C 4.898438 -6.617188 5.164062 -6.390625 5.375 -6.078125 L 5.515625 -6.109375 L 5.515625 -9.609375 L 7.234375 -9.609375 L 7.234375 0 L 5.515625 0 L 5.515625 -0.890625 L 5.375 -0.90625 C 5.1875 -0.582031 4.925781 -0.328125 4.59375 -0.140625 C 4.257812 0.0351562 3.859375 0.125 3.390625 0.125 Z M 3.953125 -1.328125 C 4.429688 -1.328125 4.8125 -1.5 5.09375 -1.84375 C 5.375 -2.195312 5.515625 -2.722656 5.515625 -3.421875 C 5.515625 -4.128906 5.375 -4.65625 5.09375 -5 C 4.8125 -5.351562 4.429688 -5.53125 3.953125 -5.53125 C 3.441406 -5.53125 3.050781 -5.359375 2.78125 -5.015625 C 2.519531 -4.679688 2.390625 -4.148438 2.390625 -3.421875 C 2.390625 -2.703125 2.519531 -2.171875 2.78125 -1.828125 C 3.050781 -1.492188 3.441406 -1.328125 3.953125 -1.328125 Z M 3.953125 -1.328125 "/></g></g><g style="fill:#0c2f5d;fill-opacity:1;"><g transform="translate(160.220494, 256.497581)"><path style="stroke:none" d="M 2.671875 0.125 C 2.234375 0.125 1.851562 0.046875 1.53125 -0.109375 C 1.207031 -0.273438 0.957031 -0.515625 0.78125 -0.828125 C 0.601562 -1.140625 0.515625 -1.515625 0.515625 -1.953125 C 0.515625 -2.359375 0.601562 -2.695312 0.78125 -2.96875 C 0.957031 -3.25 1.226562 -3.476562 1.59375 -3.65625 C 1.957031 -3.832031 2.429688 -3.96875 3.015625 -4.0625 C 3.429688 -4.125 3.742188 -4.191406 3.953125 -4.265625 C 4.171875 -4.347656 4.316406 -4.4375 4.390625 -4.53125 C 4.460938 -4.632812 4.5 -4.765625 4.5 -4.921875 C 4.5 -5.140625 4.421875 -5.304688 4.265625 -5.421875 C 4.117188 -5.546875 3.863281 -5.609375 3.5 -5.609375 C 3.125 -5.609375 2.765625 -5.519531 2.421875 -5.34375 C 2.078125 -5.175781 1.773438 -4.953125 1.515625 -4.671875 L 1.40625 -4.671875 L 0.671875 -5.765625 C 1.023438 -6.148438 1.453125 -6.445312 1.953125 -6.65625 C 2.453125 -6.875 3 -6.984375 3.59375 -6.984375 C 4.5 -6.984375 5.15625 -6.789062 5.5625 -6.40625 C 5.96875 -6.019531 6.171875 -5.472656 6.171875 -4.765625 L 6.171875 -1.796875 C 6.171875 -1.484375 6.304688 -1.328125 6.578125 -1.328125 C 6.679688 -1.328125 6.785156 -1.347656 6.890625 -1.390625 L 6.96875 -1.359375 L 7.09375 -0.15625 C 7 -0.09375 6.863281 -0.0390625 6.6875 0 C 6.519531 0.03125 6.335938 0.046875 6.140625 0.046875 C 5.722656 0.046875 5.398438 -0.03125 5.171875 -0.1875 C 4.941406 -0.34375 4.78125 -0.585938 4.6875 -0.921875 L 4.546875 -0.9375 C 4.210938 -0.226562 3.585938 0.125 2.671875 0.125 Z M 3.21875 -1.15625 C 3.613281 -1.15625 3.929688 -1.285156 4.171875 -1.546875 C 4.410156 -1.816406 4.53125 -2.191406 4.53125 -2.671875 L 4.53125 -3.375 L 4.421875 -3.390625 C 4.316406 -3.304688 4.175781 -3.238281 4 -3.1875 C 3.832031 -3.132812 3.59375 -3.078125 3.28125 -3.015625 C 2.90625 -2.953125 2.632812 -2.84375 2.46875 -2.6875 C 2.3125 -2.539062 2.234375 -2.332031 2.234375 -2.0625 C 2.234375 -1.757812 2.316406 -1.53125 2.484375 -1.375 C 2.660156 -1.226562 2.90625 -1.15625 3.21875 -1.15625 Z M 3.21875 -1.15625 "/></g></g><g style="fill:#0c2f5d;fill-opacity:1;"><g transform="translate(167.316952, 256.497581)"><path style="stroke:none" d="M 1.515625 2.90625 C 1.222656 2.90625 0.957031 2.878906 0.71875 2.828125 C 0.476562 2.785156 0.285156 2.726562 0.140625 2.65625 L 0.40625 1.265625 L 0.515625 1.234375 C 0.617188 1.285156 0.75 1.328125 0.90625 1.359375 C 1.0625 1.390625 1.21875 1.40625 1.375 1.40625 C 1.65625 1.40625 1.882812 1.367188 2.0625 1.296875 C 2.25 1.222656 2.40625 1.101562 2.53125 0.9375 C 2.664062 0.769531 2.785156 0.539062 2.890625 0.25 L 0.15625 -6.859375 L 1.953125 -6.859375 L 3.65625 -2.09375 L 3.8125 -2.09375 L 5.46875 -6.859375 L 7.21875 -6.859375 L 4.46875 0.421875 C 4.25 1.015625 4.003906 1.488281 3.734375 1.84375 C 3.472656 2.207031 3.160156 2.472656 2.796875 2.640625 C 2.441406 2.816406 2.015625 2.90625 1.515625 2.90625 Z M 1.515625 2.90625 "/></g></g><g style="fill:#0c2f5d;fill-opacity:1;"><g transform="translate(173.710663, 256.497581)"><path style="stroke:none" d="M 0.25 1.828125 C 0.613281 1.609375 0.9375 1.335938 1.21875 1.015625 C 1.507812 0.703125 1.664062 0.378906 1.6875 0.046875 C 1.363281 0.046875 1.109375 -0.046875 0.921875 -0.234375 C 0.742188 -0.429688 0.65625 -0.679688 0.65625 -0.984375 C 0.65625 -1.179688 0.695312 -1.359375 0.78125 -1.515625 C 0.875 -1.679688 1.003906 -1.804688 1.171875 -1.890625 C 1.335938 -1.984375 1.523438 -2.03125 1.734375 -2.03125 C 2.085938 -2.03125 2.367188 -1.914062 2.578125 -1.6875 C 2.785156 -1.457031 2.890625 -1.128906 2.890625 -0.703125 C 2.890625 0.0351562 2.703125 0.675781 2.328125 1.21875 C 1.953125 1.769531 1.453125 2.234375 0.828125 2.609375 Z M 0.25 1.828125 "/></g></g><g style="fill:#0c2f5d;fill-opacity:1;"><g transform="translate(177.246509, 256.497581)"><path style="stroke:none" d=""/></g></g><g style="fill:#0c2f5d;fill-opacity:1;"><g transform="translate(180.24794, 256.497581)"><path style="stroke:none" d="M 2.84375 0.125 C 2.226562 0.125 1.753906 -0.0390625 1.421875 -0.375 C 1.097656 -0.707031 0.9375 -1.210938 0.9375 -1.890625 L 0.9375 -9.609375 L 2.671875 -9.609375 L 2.671875 -1.953125 C 2.671875 -1.535156 2.84375 -1.328125 3.1875 -1.328125 C 3.289062 -1.328125 3.394531 -1.34375 3.5 -1.375 L 3.59375 -1.359375 L 3.75 -0.03125 C 3.65625 0.0195312 3.53125 0.0546875 3.375 0.078125 C 3.21875 0.109375 3.039062 0.125 2.84375 0.125 Z M 2.84375 0.125 "/></g></g><g style="fill:#0c2f5d;fill-opacity:1;"><g transform="translate(184.187705, 256.497581)"><path style="stroke:none" d="M 6.78125 -3.046875 L 2.375 -3.046875 C 2.414062 -2.441406 2.582031 -2.003906 2.875 -1.734375 C 3.164062 -1.460938 3.5625 -1.328125 4.0625 -1.328125 C 4.457031 -1.328125 4.773438 -1.398438 5.015625 -1.546875 C 5.265625 -1.691406 5.460938 -1.914062 5.609375 -2.21875 L 5.75 -2.21875 L 6.890625 -1.484375 C 6.660156 -1.003906 6.320312 -0.613281 5.875 -0.3125 C 5.425781 -0.0195312 4.820312 0.125 4.0625 0.125 C 3.351562 0.125 2.738281 -0.00390625 2.21875 -0.265625 C 1.707031 -0.535156 1.3125 -0.9375 1.03125 -1.46875 C 0.75 -2.007812 0.609375 -2.660156 0.609375 -3.421875 C 0.609375 -4.203125 0.753906 -4.859375 1.046875 -5.390625 C 1.347656 -5.929688 1.75 -6.332031 2.25 -6.59375 C 2.75 -6.851562 3.3125 -6.984375 3.9375 -6.984375 C 4.90625 -6.984375 5.648438 -6.726562 6.171875 -6.21875 C 6.691406 -5.707031 6.953125 -4.953125 6.953125 -3.953125 C 6.953125 -3.585938 6.9375 -3.304688 6.90625 -3.109375 Z M 5.296875 -4.15625 C 5.273438 -4.675781 5.148438 -5.054688 4.921875 -5.296875 C 4.703125 -5.535156 4.375 -5.65625 3.9375 -5.65625 C 3.070312 -5.65625 2.5625 -5.15625 2.40625 -4.15625 Z M 5.296875 -4.15625 "/></g></g><g style="fill:#0c2f5d;fill-opacity:1;"><g transform="translate(191.638461, 256.497581)"><path style="stroke:none" d="M 2.671875 0.125 C 2.234375 0.125 1.851562 0.046875 1.53125 -0.109375 C 1.207031 -0.273438 0.957031 -0.515625 0.78125 -0.828125 C 0.601562 -1.140625 0.515625 -1.515625 0.515625 -1.953125 C 0.515625 -2.359375 0.601562 -2.695312 0.78125 -2.96875 C 0.957031 -3.25 1.226562 -3.476562 1.59375 -3.65625 C 1.957031 -3.832031 2.429688 -3.96875 3.015625 -4.0625 C 3.429688 -4.125 3.742188 -4.191406 3.953125 -4.265625 C 4.171875 -4.347656 4.316406 -4.4375 4.390625 -4.53125 C 4.460938 -4.632812 4.5 -4.765625 4.5 -4.921875 C 4.5 -5.140625 4.421875 -5.304688 4.265625 -5.421875 C 4.117188 -5.546875 3.863281 -5.609375 3.5 -5.609375 C 3.125 -5.609375 2.765625 -5.519531 2.421875 -5.34375 C 2.078125 -5.175781 1.773438 -4.953125 1.515625 -4.671875 L 1.40625 -4.671875 L 0.671875 -5.765625 C 1.023438 -6.148438 1.453125 -6.445312 1.953125 -6.65625 C 2.453125 -6.875 3 -6.984375 3.59375 -6.984375 C 4.5 -6.984375 5.15625 -6.789062 5.5625 -6.40625 C 5.96875 -6.019531 6.171875 -5.472656 6.171875 -4.765625 L 6.171875 -1.796875 C 6.171875 -1.484375 6.304688 -1.328125 6.578125 -1.328125 C 6.679688 -1.328125 6.785156 -1.347656 6.890625 -1.390625 L 6.96875 -1.359375 L 7.09375 -0.15625 C 7 -0.09375 6.863281 -0.0390625 6.6875 0 C 6.519531 0.03125 6.335938 0.046875 6.140625 0.046875 C 5.722656 0.046875 5.398438 -0.03125 5.171875 -0.1875 C 4.941406 -0.34375 4.78125 -0.585938 4.6875 -0.921875 L 4.546875 -0.9375 C 4.210938 -0.226562 3.585938 0.125 2.671875 0.125 Z M 3.21875 -1.15625 C 3.613281 -1.15625 3.929688 -1.285156 4.171875 -1.546875 C 4.410156 -1.816406 4.53125 -2.191406 4.53125 -2.671875 L 4.53125 -3.375 L 4.421875 -3.390625 C 4.316406 -3.304688 4.175781 -3.238281 4 -3.1875 C 3.832031 -3.132812 3.59375 -3.078125 3.28125 -3.015625 C 2.90625 -2.953125 2.632812 -2.84375 2.46875 -2.6875 C 2.3125 -2.539062 2.234375 -2.332031 2.234375 -2.0625 C 2.234375 -1.757812 2.316406 -1.53125 2.484375 -1.375 C 2.660156 -1.226562 2.90625 -1.15625 3.21875 -1.15625 Z M 3.21875 -1.15625 "/></g></g><g style="fill:#0c2f5d;fill-opacity:1;"><g transform="translate(198.865507, 256.497581)"><path style="stroke:none" d="M 3.390625 0.125 C 2.847656 0.125 2.367188 -0.00390625 1.953125 -0.265625 C 1.535156 -0.523438 1.207031 -0.921875 0.96875 -1.453125 C 0.726562 -1.984375 0.609375 -2.640625 0.609375 -3.421875 C 0.609375 -4.203125 0.726562 -4.859375 0.96875 -5.390625 C 1.21875 -5.929688 1.554688 -6.332031 1.984375 -6.59375 C 2.410156 -6.851562 2.90625 -6.984375 3.46875 -6.984375 C 3.894531 -6.984375 4.265625 -6.910156 4.578125 -6.765625 C 4.898438 -6.617188 5.164062 -6.390625 5.375 -6.078125 L 5.515625 -6.109375 L 5.515625 -9.609375 L 7.234375 -9.609375 L 7.234375 0 L 5.515625 0 L 5.515625 -0.890625 L 5.375 -0.90625 C 5.1875 -0.582031 4.925781 -0.328125 4.59375 -0.140625 C 4.257812 0.0351562 3.859375 0.125 3.390625 0.125 Z M 3.953125 -1.328125 C 4.429688 -1.328125 4.8125 -1.5 5.09375 -1.84375 C 5.375 -2.195312 5.515625 -2.722656 5.515625 -3.421875 C 5.515625 -4.128906 5.375 -4.65625 5.09375 -5 C 4.8125 -5.351562 4.429688 -5.53125 3.953125 -5.53125 C 3.441406 -5.53125 3.050781 -5.359375 2.78125 -5.015625 C 2.519531 -4.679688 2.390625 -4.148438 2.390625 -3.421875 C 2.390625 -2.703125 2.519531 -2.171875 2.78125 -1.828125 C 3.050781 -1.492188 3.441406 -1.328125 3.953125 -1.328125 Z M 3.953125 -1.328125 "/></g></g><g style="fill:#0c2f5d;fill-opacity:1;"><g transform="translate(207.080602, 256.497581)"><path style="stroke:none" d=""/></g></g><g style="fill:#0c2f5d;fill-opacity:1;"><g transform="translate(210.082033, 256.497581)"><path style="stroke:none" d="M 4.734375 -1.640625 L 5.171875 -0.359375 C 4.992188 -0.203125 4.757812 -0.0820312 4.46875 0 C 4.1875 0.0820312 3.867188 0.125 3.515625 0.125 C 2.773438 0.125 2.210938 -0.0703125 1.828125 -0.46875 C 1.441406 -0.875 1.25 -1.460938 1.25 -2.234375 L 1.25 -5.5 L 0.203125 -5.5 L 0.203125 -6.859375 L 1.25 -6.859375 L 1.25 -8.203125 L 2.96875 -8.484375 L 2.96875 -6.859375 L 4.921875 -6.859375 L 4.921875 -5.5 L 2.96875 -5.5 L 2.96875 -2.359375 C 2.96875 -2.023438 3.035156 -1.78125 3.171875 -1.625 C 3.316406 -1.46875 3.523438 -1.390625 3.796875 -1.390625 C 4.109375 -1.390625 4.375 -1.472656 4.59375 -1.640625 Z M 4.734375 -1.640625 "/></g></g><g style="fill:#0c2f5d;fill-opacity:1;"><g transform="translate(215.326711, 256.497581)"><path style="stroke:none" d="M 3.984375 0.125 C 3.316406 0.125 2.726562 -0.0078125 2.21875 -0.28125 C 1.707031 -0.5625 1.3125 -0.96875 1.03125 -1.5 C 0.75 -2.03125 0.609375 -2.671875 0.609375 -3.421875 C 0.609375 -4.179688 0.75 -4.828125 1.03125 -5.359375 C 1.3125 -5.890625 1.707031 -6.289062 2.21875 -6.5625 C 2.726562 -6.84375 3.316406 -6.984375 3.984375 -6.984375 C 4.660156 -6.984375 5.25 -6.84375 5.75 -6.5625 C 6.257812 -6.289062 6.65625 -5.890625 6.9375 -5.359375 C 7.21875 -4.828125 7.359375 -4.179688 7.359375 -3.421875 C 7.359375 -2.671875 7.21875 -2.03125 6.9375 -1.5 C 6.65625 -0.96875 6.257812 -0.5625 5.75 -0.28125 C 5.25 -0.0078125 4.660156 0.125 3.984375 0.125 Z M 3.984375 -1.328125 C 5.046875 -1.328125 5.578125 -2.023438 5.578125 -3.421875 C 5.578125 -4.148438 5.441406 -4.679688 5.171875 -5.015625 C 4.898438 -5.359375 4.503906 -5.53125 3.984375 -5.53125 C 2.921875 -5.53125 2.390625 -4.828125 2.390625 -3.421875 C 2.390625 -2.023438 2.921875 -1.328125 3.984375 -1.328125 Z M 3.984375 -1.328125 "/></g></g><g style="fill:#0c2f5d;fill-opacity:1;"><g transform="translate(223.29324, 256.497581)"><path style="stroke:none" d="M 0.984375 0 L 0.984375 -6.859375 L 2.640625 -6.859375 L 2.640625 -5.9375 L 2.765625 -5.90625 C 2.992188 -6.28125 3.257812 -6.550781 3.5625 -6.71875 C 3.863281 -6.894531 4.25 -6.984375 4.71875 -6.984375 C 5.226562 -6.984375 5.640625 -6.878906 5.953125 -6.671875 C 6.273438 -6.472656 6.507812 -6.175781 6.65625 -5.78125 L 6.78125 -5.78125 C 6.988281 -6.1875 7.257812 -6.488281 7.59375 -6.6875 C 7.9375 -6.882812 8.351562 -6.984375 8.84375 -6.984375 C 10.269531 -6.984375 10.984375 -6.191406 10.984375 -4.609375 L 10.984375 0 L 9.265625 0 L 9.265625 -4.390625 C 9.265625 -4.796875 9.179688 -5.085938 9.015625 -5.265625 C 8.859375 -5.441406 8.609375 -5.53125 8.265625 -5.53125 C 7.316406 -5.53125 6.84375 -4.898438 6.84375 -3.640625 L 6.84375 0 L 5.125 0 L 5.125 -4.390625 C 5.125 -4.796875 5.039062 -5.085938 4.875 -5.265625 C 4.71875 -5.441406 4.46875 -5.53125 4.125 -5.53125 C 3.675781 -5.53125 3.328125 -5.378906 3.078125 -5.078125 C 2.835938 -4.785156 2.71875 -4.316406 2.71875 -3.671875 L 2.71875 0 Z M 0.984375 0 "/></g></g><g style="fill:#0c2f5d;fill-opacity:1;"><g transform="translate(235.149822, 256.497581)"><path style="stroke:none" d="M 3.984375 0.125 C 3.316406 0.125 2.726562 -0.0078125 2.21875 -0.28125 C 1.707031 -0.5625 1.3125 -0.96875 1.03125 -1.5 C 0.75 -2.03125 0.609375 -2.671875 0.609375 -3.421875 C 0.609375 -4.179688 0.75 -4.828125 1.03125 -5.359375 C 1.3125 -5.890625 1.707031 -6.289062 2.21875 -6.5625 C 2.726562 -6.84375 3.316406 -6.984375 3.984375 -6.984375 C 4.660156 -6.984375 5.25 -6.84375 5.75 -6.5625 C 6.257812 -6.289062 6.65625 -5.890625 6.9375 -5.359375 C 7.21875 -4.828125 7.359375 -4.179688 7.359375 -3.421875 C 7.359375 -2.671875 7.21875 -2.03125 6.9375 -1.5 C 6.65625 -0.96875 6.257812 -0.5625 5.75 -0.28125 C 5.25 -0.0078125 4.660156 0.125 3.984375 0.125 Z M 3.984375 -1.328125 C 5.046875 -1.328125 5.578125 -2.023438 5.578125 -3.421875 C 5.578125 -4.148438 5.441406 -4.679688 5.171875 -5.015625 C 4.898438 -5.359375 4.503906 -5.53125 3.984375 -5.53125 C 2.921875 -5.53125 2.390625 -4.828125 2.390625 -3.421875 C 2.390625 -2.023438 2.921875 -1.328125 3.984375 -1.328125 Z M 3.984375 -1.328125 "/></g></g><g style="fill:#0c2f5d;fill-opacity:1;"><g transform="translate(243.116351, 256.497581)"><path style="stroke:none" d="M 0.984375 0 L 0.984375 -6.859375 L 2.65625 -6.859375 L 2.65625 -5.84375 L 2.796875 -5.8125 C 2.960938 -6.195312 3.175781 -6.476562 3.4375 -6.65625 C 3.707031 -6.832031 4.035156 -6.921875 4.421875 -6.921875 C 4.816406 -6.921875 5.113281 -6.851562 5.3125 -6.71875 L 5.03125 -5.234375 L 4.890625 -5.203125 C 4.773438 -5.253906 4.664062 -5.289062 4.5625 -5.3125 C 4.46875 -5.332031 4.34375 -5.34375 4.1875 -5.34375 C 3.707031 -5.34375 3.34375 -5.171875 3.09375 -4.828125 C 2.84375 -4.492188 2.71875 -3.953125 2.71875 -3.203125 L 2.71875 0 Z M 0.984375 0 "/></g></g><g style="fill:#0c2f5d;fill-opacity:1;"><g transform="translate(248.491584, 256.497581)"><path style="stroke:none" d="M 0.984375 0 L 0.984375 -6.859375 L 2.65625 -6.859375 L 2.65625 -5.84375 L 2.796875 -5.8125 C 2.960938 -6.195312 3.175781 -6.476562 3.4375 -6.65625 C 3.707031 -6.832031 4.035156 -6.921875 4.421875 -6.921875 C 4.816406 -6.921875 5.113281 -6.851562 5.3125 -6.71875 L 5.03125 -5.234375 L 4.890625 -5.203125 C 4.773438 -5.253906 4.664062 -5.289062 4.5625 -5.3125 C 4.46875 -5.332031 4.34375 -5.34375 4.1875 -5.34375 C 3.707031 -5.34375 3.34375 -5.171875 3.09375 -4.828125 C 2.84375 -4.492188 2.71875 -3.953125 2.71875 -3.203125 L 2.71875 0 Z M 0.984375 0 "/></g></g><g style="fill:#0c2f5d;fill-opacity:1;"><g transform="translate(253.686491, 256.497581)"><path style="stroke:none" d="M 3.984375 0.125 C 3.316406 0.125 2.726562 -0.0078125 2.21875 -0.28125 C 1.707031 -0.5625 1.3125 -0.96875 1.03125 -1.5 C 0.75 -2.03125 0.609375 -2.671875 0.609375 -3.421875 C 0.609375 -4.179688 0.75 -4.828125 1.03125 -5.359375 C 1.3125 -5.890625 1.707031 -6.289062 2.21875 -6.5625 C 2.726562 -6.84375 3.316406 -6.984375 3.984375 -6.984375 C 4.660156 -6.984375 5.25 -6.84375 5.75 -6.5625 C 6.257812 -6.289062 6.65625 -5.890625 6.9375 -5.359375 C 7.21875 -4.828125 7.359375 -4.179688 7.359375 -3.421875 C 7.359375 -2.671875 7.21875 -2.03125 6.9375 -1.5 C 6.65625 -0.96875 6.257812 -0.5625 5.75 -0.28125 C 5.25 -0.0078125 4.660156 0.125 3.984375 0.125 Z M 3.984375 -1.328125 C 5.046875 -1.328125 5.578125 -2.023438 5.578125 -3.421875 C 5.578125 -4.148438 5.441406 -4.679688 5.171875 -5.015625 C 4.898438 -5.359375 4.503906 -5.53125 3.984375 -5.53125 C 2.921875 -5.53125 2.390625 -4.828125 2.390625 -3.421875 C 2.390625 -2.023438 2.921875 -1.328125 3.984375 -1.328125 Z M 3.984375 -1.328125 "/></g></g><g style="fill:#0c2f5d;fill-opacity:1;"><g transform="translate(261.603273, 256.497581)"><path style="stroke:none" d="M 3.6875 0 L 1.875 0 L 0.25 -6.859375 L 1.84375 -6.859375 L 2.859375 -2.21875 L 2.984375 -2.21875 L 4.296875 -6.859375 L 5.78125 -6.859375 L 7.125 -2.21875 L 7.265625 -2.21875 L 8.234375 -6.859375 L 9.78125 -6.859375 L 8.171875 0 L 6.375 0 L 5.0625 -4.671875 L 4.9375 -4.671875 Z M 3.6875 0 "/></g></g><g style="fill:#0c2f5d;fill-opacity:1;"><g transform="translate(271.634755, 256.497581)"><path style="stroke:none" d=""/></g></g></g></svg>