<svg xmlns="http://www.w3.org/2000/svg" xmlns:xlink="http://www.w3.org/1999/xlink" width="500" zoomAndPan="magnify" viewBox="0 0 375 374.999991" height="500" preserveAspectRatio="xMidYMid meet" version="1.2"><defs><clipPath id="5b099b1a8e"><path d="M 152 140 L 223 140 L 223 188.238281 L 152 188.238281 Z M 152 140 "/></clipPath><clipPath id="50b12eb8b9"><path d="M 127 101.238281 L 248 101.238281 L 248 161 L 127 161 Z M 127 101.238281 "/></clipPath></defs><g id="93c734896a"><rect x="0" width="375" y="0" height="374.999991" style="fill:#ffffff;fill-opacity:1;stroke:none;"/><rect x="0" width="375" y="0" height="374.999991" style="fill:#ffffff;fill-opacity:1;stroke:none;"/><g clip-rule="nonzero" clip-path="url(#5b099b1a8e)"><path style=" stroke:none;fill-rule:nonzero;fill:#9f0b0b;fill-opacity:1;" d="M 214.371094 170.382812 L 200.851562 170.382812 C 195.875 170.382812 191.070312 172.183594 187.332031 175.332031 C 183.582031 172.171875 178.789062 170.382812 173.8125 170.382812 L 160.308594 170.382812 L 160.308594 140.976562 L 152.074219 140.976562 L 152.074219 178.625 L 173.824219 178.625 C 177.898438 178.625 181.613281 180.5 184.039062 183.769531 L 187.34375 188.238281 L 190.648438 183.769531 C 193.074219 180.5 196.789062 178.625 200.863281 178.625 L 222.613281 178.625 L 222.613281 140.976562 L 214.371094 140.976562 Z M 214.371094 170.382812 "/></g><path style=" stroke:none;fill-rule:nonzero;fill:#9f0b0b;fill-opacity:1;" d="M 167.144531 150.421875 L 176.46875 150.421875 L 176.46875 159.75 L 167.144531 159.75 Z M 167.144531 150.421875 "/><path style=" stroke:none;fill-rule:nonzero;fill:#9f0b0b;fill-opacity:1;" d="M 182.667969 150.421875 L 191.996094 150.421875 L 191.996094 159.75 L 182.667969 159.75 Z M 182.667969 150.421875 "/><path style=" stroke:none;fill-rule:nonzero;fill:#9f0b0b;fill-opacity:1;" d="M 198.195312 150.421875 L 207.519531 150.421875 L 207.519531 159.75 L 198.195312 159.75 Z M 198.195312 150.421875 "/><g clip-rule="nonzero" clip-path="url(#50b12eb8b9)"><path style=" stroke:none;fill-rule:nonzero;fill:#9f0b0b;fill-opacity:1;" d="M 237.644531 148.210938 L 237.644531 126.042969 L 247.414062 122.570312 L 187.332031 101.25 L 127.25 122.570312 L 187.332031 143.898438 L 229.402344 128.960938 L 229.402344 148.210938 C 227.636719 149.484375 226.480469 151.566406 226.480469 153.921875 C 226.480469 157.8125 229.628906 160.960938 233.523438 160.960938 C 237.417969 160.960938 240.566406 157.8125 240.566406 153.921875 C 240.566406 151.578125 239.410156 149.5 237.644531 148.210938 Z M 237.644531 148.210938 "/></g><g style="fill:#0c2f5d;fill-opacity:0.4;"><g transform="translate(108.806826, 228.991845)"><path style="stroke:none" d="M 27.40625 0 L 21.46875 0 L 19.3125 -6.578125 L 8.375 -6.578125 L 6.234375 0 L 0.4375 0 L 10.296875 -28.5625 L 17.546875 -28.5625 Z M 13.578125 -22.59375 L 9.90625 -11.328125 L 17.75 -11.328125 L 14.0625 -22.59375 Z M 13.578125 -22.59375 "/></g></g><g style="fill:#0c2f5d;fill-opacity:0.4;"><g transform="translate(136.636143, 228.991845)"><path style="stroke:none" d="M 10.078125 0.40625 C 8.609375 0.40625 7.257812 0.234375 6.03125 -0.109375 C 4.8125 -0.453125 3.769531 -0.925781 2.90625 -1.53125 C 2.039062 -2.132812 1.398438 -2.828125 0.984375 -3.609375 L 3.984375 -6.859375 L 4.390625 -6.859375 C 5.109375 -5.890625 5.957031 -5.164062 6.9375 -4.6875 C 7.914062 -4.207031 8.976562 -3.96875 10.125 -3.96875 C 11.175781 -3.96875 11.96875 -4.15625 12.5 -4.53125 C 13.03125 -4.90625 13.296875 -5.445312 13.296875 -6.15625 C 13.296875 -6.695312 13.101562 -7.15625 12.71875 -7.53125 C 12.34375 -7.90625 11.722656 -8.195312 10.859375 -8.40625 L 8.015625 -9.078125 C 5.878906 -9.585938 4.316406 -10.363281 3.328125 -11.40625 C 2.347656 -12.457031 1.859375 -13.789062 1.859375 -15.40625 C 1.859375 -16.75 2.195312 -17.914062 2.875 -18.90625 C 3.5625 -19.894531 4.523438 -20.648438 5.765625 -21.171875 C 7.015625 -21.691406 8.46875 -21.953125 10.125 -21.953125 C 12.0625 -21.953125 13.664062 -21.671875 14.9375 -21.109375 C 16.21875 -20.554688 17.21875 -19.8125 17.9375 -18.875 L 15.046875 -15.75 L 14.65625 -15.75 C 14.050781 -16.425781 13.375 -16.921875 12.625 -17.234375 C 11.875 -17.546875 11.039062 -17.703125 10.125 -17.703125 C 7.988281 -17.703125 6.921875 -17.035156 6.921875 -15.703125 C 6.921875 -15.140625 7.117188 -14.679688 7.515625 -14.328125 C 7.910156 -13.984375 8.609375 -13.703125 9.609375 -13.484375 L 12.265625 -12.890625 C 14.453125 -12.421875 16.050781 -11.664062 17.0625 -10.625 C 18.070312 -9.59375 18.578125 -8.207031 18.578125 -6.46875 C 18.578125 -5.101562 18.238281 -3.898438 17.5625 -2.859375 C 16.882812 -1.816406 15.90625 -1.007812 14.625 -0.4375 C 13.351562 0.125 11.835938 0.40625 10.078125 0.40625 Z M 10.078125 0.40625 "/></g></g><g style="fill:#0c2f5d;fill-opacity:0.4;"><g transform="translate(156.497489, 228.991845)"><path style="stroke:none" d="M 3.109375 8.734375 L 3.109375 -21.546875 L 8.515625 -21.546875 L 8.515625 -18.734375 L 8.921875 -18.65625 C 9.566406 -19.75 10.421875 -20.570312 11.484375 -21.125 C 12.554688 -21.675781 13.804688 -21.953125 15.234375 -21.953125 C 16.960938 -21.953125 18.472656 -21.539062 19.765625 -20.71875 C 21.066406 -19.90625 22.078125 -18.660156 22.796875 -16.984375 C 23.523438 -15.304688 23.890625 -13.234375 23.890625 -10.765625 C 23.890625 -8.304688 23.507812 -6.242188 22.75 -4.578125 C 21.988281 -2.910156 20.929688 -1.660156 19.578125 -0.828125 C 18.222656 -0.00390625 16.660156 0.40625 14.890625 0.40625 C 13.546875 0.40625 12.382812 0.179688 11.40625 -0.265625 C 10.425781 -0.710938 9.597656 -1.410156 8.921875 -2.359375 L 8.515625 -2.28125 L 8.515625 8.734375 Z M 13.375 -4.1875 C 14.988281 -4.1875 16.210938 -4.710938 17.046875 -5.765625 C 17.878906 -6.816406 18.296875 -8.484375 18.296875 -10.765625 C 18.296875 -13.046875 17.878906 -14.710938 17.046875 -15.765625 C 16.210938 -16.828125 14.988281 -17.359375 13.375 -17.359375 C 11.863281 -17.359375 10.664062 -16.8125 9.78125 -15.71875 C 8.894531 -14.625 8.453125 -12.972656 8.453125 -10.765625 C 8.453125 -8.566406 8.894531 -6.921875 9.78125 -5.828125 C 10.664062 -4.734375 11.863281 -4.1875 13.375 -4.1875 Z M 13.375 -4.1875 "/></g></g><g style="fill:#0c2f5d;fill-opacity:0.4;"><g transform="translate(182.295755, 228.991845)"><path style="stroke:none" d="M 5.796875 -24.125 C 4.828125 -24.125 4.035156 -24.421875 3.421875 -25.015625 C 2.804688 -25.609375 2.5 -26.375 2.5 -27.3125 C 2.5 -28.226562 2.804688 -28.984375 3.421875 -29.578125 C 4.035156 -30.171875 4.828125 -30.46875 5.796875 -30.46875 C 6.453125 -30.46875 7.03125 -30.332031 7.53125 -30.0625 C 8.039062 -29.789062 8.4375 -29.414062 8.71875 -28.9375 C 9 -28.457031 9.140625 -27.914062 9.140625 -27.3125 C 9.140625 -26.695312 9 -26.144531 8.71875 -25.65625 C 8.4375 -25.175781 8.039062 -24.800781 7.53125 -24.53125 C 7.03125 -24.257812 6.453125 -24.125 5.796875 -24.125 Z M 3.109375 0 L 3.109375 -21.546875 L 8.515625 -21.546875 L 8.515625 0 Z M 3.109375 0 "/></g></g><g style="fill:#0c2f5d;fill-opacity:0.4;"><g transform="translate(193.896184, 228.991845)"><path style="stroke:none" d="M 3.109375 0 L 3.109375 -21.546875 L 8.359375 -21.546875 L 8.359375 -18.34375 L 8.765625 -18.265625 C 9.285156 -19.460938 9.96875 -20.335938 10.8125 -20.890625 C 11.664062 -21.453125 12.695312 -21.734375 13.90625 -21.734375 C 15.132812 -21.734375 16.066406 -21.523438 16.703125 -21.109375 L 15.78125 -16.453125 L 15.375 -16.375 C 15.019531 -16.507812 14.679688 -16.609375 14.359375 -16.671875 C 14.035156 -16.742188 13.640625 -16.78125 13.171875 -16.78125 C 11.660156 -16.78125 10.503906 -16.25 9.703125 -15.1875 C 8.910156 -14.125 8.515625 -12.421875 8.515625 -10.078125 L 8.515625 0 Z M 3.109375 0 "/></g></g><g style="fill:#0c2f5d;fill-opacity:0.4;"><g transform="translate(210.789069, 228.991845)"><path style="stroke:none" d="M 21.296875 -9.546875 L 7.4375 -9.546875 C 7.59375 -7.671875 8.125 -6.304688 9.03125 -5.453125 C 9.945312 -4.609375 11.195312 -4.1875 12.78125 -4.1875 C 14.007812 -4.1875 15.007812 -4.414062 15.78125 -4.875 C 16.550781 -5.332031 17.171875 -6.03125 17.640625 -6.96875 L 18.046875 -6.96875 L 21.640625 -4.671875 C 20.941406 -3.160156 19.878906 -1.9375 18.453125 -1 C 17.035156 -0.0625 15.144531 0.40625 12.78125 0.40625 C 10.550781 0.40625 8.625 -0.015625 7 -0.859375 C 5.382812 -1.703125 4.132812 -2.960938 3.25 -4.640625 C 2.375 -6.316406 1.9375 -8.359375 1.9375 -10.765625 C 1.9375 -13.210938 2.394531 -15.273438 3.3125 -16.953125 C 4.238281 -18.628906 5.488281 -19.878906 7.0625 -20.703125 C 8.644531 -21.535156 10.421875 -21.953125 12.390625 -21.953125 C 15.429688 -21.953125 17.757812 -21.144531 19.375 -19.53125 C 21 -17.914062 21.8125 -15.546875 21.8125 -12.421875 C 21.8125 -11.285156 21.773438 -10.40625 21.703125 -9.78125 Z M 16.640625 -13.046875 C 16.585938 -14.691406 16.207031 -15.882812 15.5 -16.625 C 14.789062 -17.375 13.753906 -17.75 12.390625 -17.75 C 9.648438 -17.75 8.039062 -16.179688 7.5625 -13.046875 Z M 16.640625 -13.046875 "/></g></g><g style="fill:#0c2f5d;fill-opacity:0.4;"><g transform="translate(234.204756, 228.991845)"><path style="stroke:none" d="M 8.953125 0.40625 C 7.003906 0.40625 5.519531 -0.113281 4.5 -1.15625 C 3.476562 -2.207031 2.96875 -3.800781 2.96875 -5.9375 L 2.96875 -30.203125 L 8.375 -30.203125 L 8.375 -6.15625 C 8.375 -4.84375 8.921875 -4.1875 10.015625 -4.1875 C 10.328125 -4.1875 10.660156 -4.238281 11.015625 -4.34375 L 11.296875 -4.265625 L 11.78125 -0.09375 C 11.476562 0.0625 11.078125 0.179688 10.578125 0.265625 C 10.085938 0.359375 9.546875 0.40625 8.953125 0.40625 Z M 8.953125 0.40625 "/></g></g><g style="fill:#0c2f5d;fill-opacity:0.4;"><g transform="translate(246.586358, 228.991845)"><path style="stroke:none" d="M 4.765625 9.140625 C 3.835938 9.140625 3 9.066406 2.25 8.921875 C 1.507812 8.785156 0.90625 8.597656 0.4375 8.359375 L 1.296875 3.984375 L 1.640625 3.875 C 1.960938 4.039062 2.363281 4.175781 2.84375 4.28125 C 3.332031 4.382812 3.832031 4.4375 4.34375 4.4375 C 5.207031 4.4375 5.929688 4.320312 6.515625 4.09375 C 7.097656 3.863281 7.585938 3.484375 7.984375 2.953125 C 8.390625 2.429688 8.75 1.703125 9.0625 0.765625 L 0.46875 -21.546875 L 6.140625 -21.546875 L 11.484375 -6.5625 L 11.953125 -6.5625 L 17.171875 -21.546875 L 22.671875 -21.546875 L 14.03125 1.34375 C 13.332031 3.195312 12.570312 4.6875 11.75 5.8125 C 10.925781 6.9375 9.945312 7.769531 8.8125 8.3125 C 7.6875 8.863281 6.335938 9.140625 4.765625 9.140625 Z M 4.765625 9.140625 "/></g></g><g style="fill:#0c2f5d;fill-opacity:1;"><g transform="translate(107.03906, 227.224087)"><path style="stroke:none" d="M 27.40625 0 L 21.46875 0 L 19.3125 -6.578125 L 8.375 -6.578125 L 6.234375 0 L 0.4375 0 L 10.296875 -28.5625 L 17.546875 -28.5625 Z M 13.578125 -22.59375 L 9.90625 -11.328125 L 17.75 -11.328125 L 14.0625 -22.59375 Z M 13.578125 -22.59375 "/></g></g><g style="fill:#0c2f5d;fill-opacity:1;"><g transform="translate(134.868377, 227.224087)"><path style="stroke:none" d="M 10.078125 0.40625 C 8.609375 0.40625 7.257812 0.234375 6.03125 -0.109375 C 4.8125 -0.453125 3.769531 -0.925781 2.90625 -1.53125 C 2.039062 -2.132812 1.398438 -2.828125 0.984375 -3.609375 L 3.984375 -6.859375 L 4.390625 -6.859375 C 5.109375 -5.890625 5.957031 -5.164062 6.9375 -4.6875 C 7.914062 -4.207031 8.976562 -3.96875 10.125 -3.96875 C 11.175781 -3.96875 11.96875 -4.15625 12.5 -4.53125 C 13.03125 -4.90625 13.296875 -5.445312 13.296875 -6.15625 C 13.296875 -6.695312 13.101562 -7.15625 12.71875 -7.53125 C 12.34375 -7.90625 11.722656 -8.195312 10.859375 -8.40625 L 8.015625 -9.078125 C 5.878906 -9.585938 4.316406 -10.363281 3.328125 -11.40625 C 2.347656 -12.457031 1.859375 -13.789062 1.859375 -15.40625 C 1.859375 -16.75 2.195312 -17.914062 2.875 -18.90625 C 3.5625 -19.894531 4.523438 -20.648438 5.765625 -21.171875 C 7.015625 -21.691406 8.46875 -21.953125 10.125 -21.953125 C 12.0625 -21.953125 13.664062 -21.671875 14.9375 -21.109375 C 16.21875 -20.554688 17.21875 -19.8125 17.9375 -18.875 L 15.046875 -15.75 L 14.65625 -15.75 C 14.050781 -16.425781 13.375 -16.921875 12.625 -17.234375 C 11.875 -17.546875 11.039062 -17.703125 10.125 -17.703125 C 7.988281 -17.703125 6.921875 -17.035156 6.921875 -15.703125 C 6.921875 -15.140625 7.117188 -14.679688 7.515625 -14.328125 C 7.910156 -13.984375 8.609375 -13.703125 9.609375 -13.484375 L 12.265625 -12.890625 C 14.453125 -12.421875 16.050781 -11.664062 17.0625 -10.625 C 18.070312 -9.59375 18.578125 -8.207031 18.578125 -6.46875 C 18.578125 -5.101562 18.238281 -3.898438 17.5625 -2.859375 C 16.882812 -1.816406 15.90625 -1.007812 14.625 -0.4375 C 13.351562 0.125 11.835938 0.40625 10.078125 0.40625 Z M 10.078125 0.40625 "/></g></g><g style="fill:#0c2f5d;fill-opacity:1;"><g transform="translate(154.729723, 227.224087)"><path style="stroke:none" d="M 3.109375 8.734375 L 3.109375 -21.546875 L 8.515625 -21.546875 L 8.515625 -18.734375 L 8.921875 -18.65625 C 9.566406 -19.75 10.421875 -20.570312 11.484375 -21.125 C 12.554688 -21.675781 13.804688 -21.953125 15.234375 -21.953125 C 16.960938 -21.953125 18.472656 -21.539062 19.765625 -20.71875 C 21.066406 -19.90625 22.078125 -18.660156 22.796875 -16.984375 C 23.523438 -15.304688 23.890625 -13.234375 23.890625 -10.765625 C 23.890625 -8.304688 23.507812 -6.242188 22.75 -4.578125 C 21.988281 -2.910156 20.929688 -1.660156 19.578125 -0.828125 C 18.222656 -0.00390625 16.660156 0.40625 14.890625 0.40625 C 13.546875 0.40625 12.382812 0.179688 11.40625 -0.265625 C 10.425781 -0.710938 9.597656 -1.410156 8.921875 -2.359375 L 8.515625 -2.28125 L 8.515625 8.734375 Z M 13.375 -4.1875 C 14.988281 -4.1875 16.210938 -4.710938 17.046875 -5.765625 C 17.878906 -6.816406 18.296875 -8.484375 18.296875 -10.765625 C 18.296875 -13.046875 17.878906 -14.710938 17.046875 -15.765625 C 16.210938 -16.828125 14.988281 -17.359375 13.375 -17.359375 C 11.863281 -17.359375 10.664062 -16.8125 9.78125 -15.71875 C 8.894531 -14.625 8.453125 -12.972656 8.453125 -10.765625 C 8.453125 -8.566406 8.894531 -6.921875 9.78125 -5.828125 C 10.664062 -4.734375 11.863281 -4.1875 13.375 -4.1875 Z M 13.375 -4.1875 "/></g></g><g style="fill:#0c2f5d;fill-opacity:1;"><g transform="translate(180.527989, 227.224087)"><path style="stroke:none" d="M 5.796875 -24.125 C 4.828125 -24.125 4.035156 -24.421875 3.421875 -25.015625 C 2.804688 -25.609375 2.5 -26.375 2.5 -27.3125 C 2.5 -28.226562 2.804688 -28.984375 3.421875 -29.578125 C 4.035156 -30.171875 4.828125 -30.46875 5.796875 -30.46875 C 6.453125 -30.46875 7.03125 -30.332031 7.53125 -30.0625 C 8.039062 -29.789062 8.4375 -29.414062 8.71875 -28.9375 C 9 -28.457031 9.140625 -27.914062 9.140625 -27.3125 C 9.140625 -26.695312 9 -26.144531 8.71875 -25.65625 C 8.4375 -25.175781 8.039062 -24.800781 7.53125 -24.53125 C 7.03125 -24.257812 6.453125 -24.125 5.796875 -24.125 Z M 3.109375 0 L 3.109375 -21.546875 L 8.515625 -21.546875 L 8.515625 0 Z M 3.109375 0 "/></g></g><g style="fill:#0c2f5d;fill-opacity:1;"><g transform="translate(192.128418, 227.224087)"><path style="stroke:none" d="M 3.109375 0 L 3.109375 -21.546875 L 8.359375 -21.546875 L 8.359375 -18.34375 L 8.765625 -18.265625 C 9.285156 -19.460938 9.96875 -20.335938 10.8125 -20.890625 C 11.664062 -21.453125 12.695312 -21.734375 13.90625 -21.734375 C 15.132812 -21.734375 16.066406 -21.523438 16.703125 -21.109375 L 15.78125 -16.453125 L 15.375 -16.375 C 15.019531 -16.507812 14.679688 -16.609375 14.359375 -16.671875 C 14.035156 -16.742188 13.640625 -16.78125 13.171875 -16.78125 C 11.660156 -16.78125 10.503906 -16.25 9.703125 -15.1875 C 8.910156 -14.125 8.515625 -12.421875 8.515625 -10.078125 L 8.515625 0 Z M 3.109375 0 "/></g></g><g style="fill:#0c2f5d;fill-opacity:1;"><g transform="translate(209.021303, 227.224087)"><path style="stroke:none" d="M 21.296875 -9.546875 L 7.4375 -9.546875 C 7.59375 -7.671875 8.125 -6.304688 9.03125 -5.453125 C 9.945312 -4.609375 11.195312 -4.1875 12.78125 -4.1875 C 14.007812 -4.1875 15.007812 -4.414062 15.78125 -4.875 C 16.550781 -5.332031 17.171875 -6.03125 17.640625 -6.96875 L 18.046875 -6.96875 L 21.640625 -4.671875 C 20.941406 -3.160156 19.878906 -1.9375 18.453125 -1 C 17.035156 -0.0625 15.144531 0.40625 12.78125 0.40625 C 10.550781 0.40625 8.625 -0.015625 7 -0.859375 C 5.382812 -1.703125 4.132812 -2.960938 3.25 -4.640625 C 2.375 -6.316406 1.9375 -8.359375 1.9375 -10.765625 C 1.9375 -13.210938 2.394531 -15.273438 3.3125 -16.953125 C 4.238281 -18.628906 5.488281 -19.878906 7.0625 -20.703125 C 8.644531 -21.535156 10.421875 -21.953125 12.390625 -21.953125 C 15.429688 -21.953125 17.757812 -21.144531 19.375 -19.53125 C 21 -17.914062 21.8125 -15.546875 21.8125 -12.421875 C 21.8125 -11.285156 21.773438 -10.40625 21.703125 -9.78125 Z M 16.640625 -13.046875 C 16.585938 -14.691406 16.207031 -15.882812 15.5 -16.625 C 14.789062 -17.375 13.753906 -17.75 12.390625 -17.75 C 9.648438 -17.75 8.039062 -16.179688 7.5625 -13.046875 Z M 16.640625 -13.046875 "/></g></g><g style="fill:#0c2f5d;fill-opacity:1;"><g transform="translate(232.43699, 227.224087)"><path style="stroke:none" d="M 8.953125 0.40625 C 7.003906 0.40625 5.519531 -0.113281 4.5 -1.15625 C 3.476562 -2.207031 2.96875 -3.800781 2.96875 -5.9375 L 2.96875 -30.203125 L 8.375 -30.203125 L 8.375 -6.15625 C 8.375 -4.84375 8.921875 -4.1875 10.015625 -4.1875 C 10.328125 -4.1875 10.660156 -4.238281 11.015625 -4.34375 L 11.296875 -4.265625 L 11.78125 -0.09375 C 11.476562 0.0625 11.078125 0.179688 10.578125 0.265625 C 10.085938 0.359375 9.546875 0.40625 8.953125 0.40625 Z M 8.953125 0.40625 "/></g></g><g style="fill:#0c2f5d;fill-opacity:1;"><g transform="translate(244.818592, 227.224087)"><path style="stroke:none" d="M 4.765625 9.140625 C 3.835938 9.140625 3 9.066406 2.25 8.921875 C 1.507812 8.785156 0.90625 8.597656 0.4375 8.359375 L 1.296875 3.984375 L 1.640625 3.875 C 1.960938 4.039062 2.363281 4.175781 2.84375 4.28125 C 3.332031 4.382812 3.832031 4.4375 4.34375 4.4375 C 5.207031 4.4375 5.929688 4.320312 6.515625 4.09375 C 7.097656 3.863281 7.585938 3.484375 7.984375 2.953125 C 8.390625 2.429688 8.75 1.703125 9.0625 0.765625 L 0.46875 -21.546875 L 6.140625 -21.546875 L 11.484375 -6.5625 L 11.953125 -6.5625 L 17.171875 -21.546875 L 22.671875 -21.546875 L 14.03125 1.34375 C 13.332031 3.195312 12.570312 4.6875 11.75 5.8125 C 10.925781 6.9375 9.945312 7.769531 8.8125 8.3125 C 7.6875 8.863281 6.335938 9.140625 4.765625 9.140625 Z M 4.765625 9.140625 "/></g></g><g style="fill:#ffffff;fill-opacity:1;"><g transform="translate(144.131633, 256.853468)"><path style="stroke:none" d="M 4.625 0.125 C 3.84375 0.125 3.15625 -0.03125 2.5625 -0.34375 C 1.96875 -0.664062 1.503906 -1.148438 1.171875 -1.796875 C 0.835938 -2.453125 0.671875 -3.269531 0.671875 -4.25 C 0.671875 -5.21875 0.835938 -6.023438 1.171875 -6.671875 C 1.503906 -7.328125 1.96875 -7.8125 2.5625 -8.125 C 3.15625 -8.445312 3.84375 -8.609375 4.625 -8.609375 C 5.40625 -8.609375 6.09375 -8.445312 6.6875 -8.125 C 7.28125 -7.8125 7.742188 -7.328125 8.078125 -6.671875 C 8.410156 -6.023438 8.578125 -5.21875 8.578125 -4.25 C 8.578125 -3.269531 8.410156 -2.453125 8.078125 -1.796875 C 7.742188 -1.148438 7.28125 -0.664062 6.6875 -0.34375 C 6.09375 -0.03125 5.40625 0.125 4.625 0.125 Z M 4.625 -1.328125 C 5.34375 -1.328125 5.890625 -1.554688 6.265625 -2.015625 C 6.648438 -2.484375 6.84375 -3.226562 6.84375 -4.25 C 6.84375 -5.257812 6.648438 -5.992188 6.265625 -6.453125 C 5.890625 -6.921875 5.34375 -7.15625 4.625 -7.15625 C 3.90625 -7.15625 3.351562 -6.921875 2.96875 -6.453125 C 2.582031 -5.992188 2.390625 -5.257812 2.390625 -4.25 C 2.390625 -3.226562 2.582031 -2.484375 2.96875 -2.015625 C 3.351562 -1.554688 3.90625 -1.328125 4.625 -1.328125 Z M 4.625 -1.328125 "/></g></g><g style="fill:#ffffff;fill-opacity:1;"><g transform="translate(153.372595, 256.853468)"><path style="stroke:none" d="M 2.734375 0 L 1.109375 0 L 1.109375 -8.484375 L 3.03125 -8.484375 L 6.4375 -3.015625 L 6.578125 -3.046875 L 6.578125 -8.484375 L 8.203125 -8.484375 L 8.203125 0 L 6.484375 0 L 2.875 -5.84375 L 2.734375 -5.8125 Z M 2.734375 0 "/></g></g><g style="fill:#ffffff;fill-opacity:1;"><g transform="translate(162.671568, 256.853468)"><path style="stroke:none" d="M 2.78125 -8.484375 L 2.78125 -1.40625 L 6.59375 -1.40625 L 6.59375 0 L 1.109375 0 L 1.109375 -8.484375 Z M 2.78125 -8.484375 "/></g></g><g style="fill:#ffffff;fill-opacity:1;"><g transform="translate(169.539925, 256.853468)"><path style="stroke:none" d="M 2.78125 0 L 1.109375 0 L 1.109375 -8.484375 L 2.78125 -8.484375 Z M 2.78125 0 "/></g></g><g style="fill:#ffffff;fill-opacity:1;"><g transform="translate(173.426581, 256.853468)"><path style="stroke:none" d="M 2.734375 0 L 1.109375 0 L 1.109375 -8.484375 L 3.03125 -8.484375 L 6.4375 -3.015625 L 6.578125 -3.046875 L 6.578125 -8.484375 L 8.203125 -8.484375 L 8.203125 0 L 6.484375 0 L 2.875 -5.84375 L 2.734375 -5.8125 Z M 2.734375 0 "/></g></g><g style="fill:#ffffff;fill-opacity:1;"><g transform="translate(182.725553, 256.853468)"><path style="stroke:none" d="M 2.78125 -3.734375 L 2.78125 -1.40625 L 6.828125 -1.40625 L 6.828125 0 L 1.109375 0 L 1.109375 -8.484375 L 6.734375 -8.484375 L 6.734375 -7.078125 L 2.78125 -7.078125 L 2.78125 -5.09375 L 6.234375 -5.09375 L 6.234375 -3.734375 Z M 2.78125 -3.734375 "/></g></g><g style="fill:#ffffff;fill-opacity:1;"><g transform="translate(190.017387, 256.853468)"><path style="stroke:none" d=""/></g></g><g style="fill:#ffffff;fill-opacity:1;"><g transform="translate(192.819264, 256.853468)"><path style="stroke:none" d="M 4.640625 0.125 C 3.859375 0.125 3.164062 -0.0351562 2.5625 -0.359375 C 1.96875 -0.691406 1.503906 -1.179688 1.171875 -1.828125 C 0.835938 -2.484375 0.671875 -3.289062 0.671875 -4.25 C 0.671875 -5.195312 0.835938 -6 1.171875 -6.65625 C 1.503906 -7.3125 1.96875 -7.800781 2.5625 -8.125 C 3.164062 -8.445312 3.859375 -8.609375 4.640625 -8.609375 C 5.453125 -8.609375 6.144531 -8.445312 6.71875 -8.125 C 7.289062 -7.8125 7.695312 -7.328125 7.9375 -6.671875 L 6.71875 -5.921875 L 6.578125 -5.921875 C 6.390625 -6.367188 6.140625 -6.6875 5.828125 -6.875 C 5.515625 -7.070312 5.117188 -7.171875 4.640625 -7.171875 C 3.929688 -7.171875 3.378906 -6.9375 2.984375 -6.46875 C 2.585938 -6 2.390625 -5.257812 2.390625 -4.25 C 2.390625 -3.238281 2.585938 -2.5 2.984375 -2.03125 C 3.378906 -1.5625 3.929688 -1.328125 4.640625 -1.328125 C 5.742188 -1.328125 6.421875 -1.863281 6.671875 -2.9375 L 6.8125 -2.9375 L 8.046875 -2.296875 C 7.816406 -1.484375 7.421875 -0.875 6.859375 -0.46875 C 6.296875 -0.0703125 5.554688 0.125 4.640625 0.125 Z M 4.640625 0.125 "/></g></g><g style="fill:#ffffff;fill-opacity:1;"><g transform="translate(201.137867, 256.853468)"><path style="stroke:none" d="M 2.78125 -8.484375 L 2.78125 -1.40625 L 6.59375 -1.40625 L 6.59375 0 L 1.109375 0 L 1.109375 -8.484375 Z M 2.78125 -8.484375 "/></g></g><g style="fill:#ffffff;fill-opacity:1;"><g transform="translate(208.006224, 256.853468)"><path style="stroke:none" d="M 8.140625 0 L 6.375 0 L 5.734375 -1.953125 L 2.484375 -1.953125 L 1.859375 0 L 0.125 0 L 3.0625 -8.484375 L 5.21875 -8.484375 Z M 4.03125 -6.71875 L 2.9375 -3.375 L 5.28125 -3.375 L 4.1875 -6.71875 Z M 4.03125 -6.71875 "/></g></g><g style="fill:#ffffff;fill-opacity:1;"><g transform="translate(216.272623, 256.853468)"><path style="stroke:none" d="M 3.765625 0.125 C 3.171875 0.125 2.644531 0.0507812 2.1875 -0.09375 C 1.726562 -0.238281 1.347656 -0.425781 1.046875 -0.65625 C 0.742188 -0.894531 0.507812 -1.160156 0.34375 -1.453125 L 1.265625 -2.578125 L 1.40625 -2.578125 C 1.664062 -2.191406 1.988281 -1.882812 2.375 -1.65625 C 2.769531 -1.4375 3.234375 -1.328125 3.765625 -1.328125 C 4.210938 -1.328125 4.550781 -1.421875 4.78125 -1.609375 C 5.007812 -1.804688 5.125 -2.066406 5.125 -2.390625 C 5.125 -2.597656 5.085938 -2.769531 5.015625 -2.90625 C 4.941406 -3.039062 4.816406 -3.15625 4.640625 -3.25 C 4.472656 -3.34375 4.242188 -3.425781 3.953125 -3.5 L 2.859375 -3.75 C 2.097656 -3.925781 1.53125 -4.210938 1.15625 -4.609375 C 0.78125 -5.015625 0.59375 -5.539062 0.59375 -6.1875 C 0.59375 -6.675781 0.710938 -7.097656 0.953125 -7.453125 C 1.191406 -7.816406 1.539062 -8.097656 2 -8.296875 C 2.457031 -8.503906 3.007812 -8.609375 3.65625 -8.609375 C 4.3125 -8.609375 4.867188 -8.519531 5.328125 -8.34375 C 5.796875 -8.175781 6.191406 -7.914062 6.515625 -7.5625 L 5.6875 -6.421875 L 5.53125 -6.421875 C 5.289062 -6.671875 5.015625 -6.859375 4.703125 -6.984375 C 4.398438 -7.109375 4.050781 -7.171875 3.65625 -7.171875 C 3.195312 -7.171875 2.84375 -7.085938 2.59375 -6.921875 C 2.351562 -6.765625 2.234375 -6.546875 2.234375 -6.265625 C 2.234375 -5.992188 2.316406 -5.773438 2.484375 -5.609375 C 2.660156 -5.453125 2.957031 -5.332031 3.375 -5.25 L 4.484375 -5.015625 C 5.304688 -4.835938 5.898438 -4.539062 6.265625 -4.125 C 6.640625 -3.707031 6.828125 -3.164062 6.828125 -2.5 C 6.828125 -1.96875 6.710938 -1.503906 6.484375 -1.109375 C 6.265625 -0.722656 5.921875 -0.421875 5.453125 -0.203125 C 4.992188 0.015625 4.429688 0.125 3.765625 0.125 Z M 3.765625 0.125 "/></g></g><g style="fill:#ffffff;fill-opacity:1;"><g transform="translate(223.558651, 256.853468)"><path style="stroke:none" d="M 3.765625 0.125 C 3.171875 0.125 2.644531 0.0507812 2.1875 -0.09375 C 1.726562 -0.238281 1.347656 -0.425781 1.046875 -0.65625 C 0.742188 -0.894531 0.507812 -1.160156 0.34375 -1.453125 L 1.265625 -2.578125 L 1.40625 -2.578125 C 1.664062 -2.191406 1.988281 -1.882812 2.375 -1.65625 C 2.769531 -1.4375 3.234375 -1.328125 3.765625 -1.328125 C 4.210938 -1.328125 4.550781 -1.421875 4.78125 -1.609375 C 5.007812 -1.804688 5.125 -2.066406 5.125 -2.390625 C 5.125 -2.597656 5.085938 -2.769531 5.015625 -2.90625 C 4.941406 -3.039062 4.816406 -3.15625 4.640625 -3.25 C 4.472656 -3.34375 4.242188 -3.425781 3.953125 -3.5 L 2.859375 -3.75 C 2.097656 -3.925781 1.53125 -4.210938 1.15625 -4.609375 C 0.78125 -5.015625 0.59375 -5.539062 0.59375 -6.1875 C 0.59375 -6.675781 0.710938 -7.097656 0.953125 -7.453125 C 1.191406 -7.816406 1.539062 -8.097656 2 -8.296875 C 2.457031 -8.503906 3.007812 -8.609375 3.65625 -8.609375 C 4.3125 -8.609375 4.867188 -8.519531 5.328125 -8.34375 C 5.796875 -8.175781 6.191406 -7.914062 6.515625 -7.5625 L 5.6875 -6.421875 L 5.53125 -6.421875 C 5.289062 -6.671875 5.015625 -6.859375 4.703125 -6.984375 C 4.398438 -7.109375 4.050781 -7.171875 3.65625 -7.171875 C 3.195312 -7.171875 2.84375 -7.085938 2.59375 -6.921875 C 2.351562 -6.765625 2.234375 -6.546875 2.234375 -6.265625 C 2.234375 -5.992188 2.316406 -5.773438 2.484375 -5.609375 C 2.660156 -5.453125 2.957031 -5.332031 3.375 -5.25 L 4.484375 -5.015625 C 5.304688 -4.835938 5.898438 -4.539062 6.265625 -4.125 C 6.640625 -3.707031 6.828125 -3.164062 6.828125 -2.5 C 6.828125 -1.96875 6.710938 -1.503906 6.484375 -1.109375 C 6.265625 -0.722656 5.921875 -0.421875 5.453125 -0.203125 C 4.992188 0.015625 4.429688 0.125 3.765625 0.125 Z M 3.765625 0.125 "/></g></g><g style="fill:#0d356b;fill-opacity:0.302;"><g transform="translate(125.328424, 259.697181)"><path style="stroke:none" d="M 4.390625 0.140625 C 3.703125 0.140625 3.085938 0.0546875 2.546875 -0.109375 C 2.015625 -0.273438 1.570312 -0.492188 1.21875 -0.765625 C 0.863281 -1.046875 0.59375 -1.351562 0.40625 -1.6875 L 1.484375 -3 L 1.640625 -3 C 1.941406 -2.5625 2.320312 -2.207031 2.78125 -1.9375 C 3.238281 -1.675781 3.773438 -1.546875 4.390625 -1.546875 C 4.921875 -1.546875 5.316406 -1.65625 5.578125 -1.875 C 5.847656 -2.101562 5.984375 -2.410156 5.984375 -2.796875 C 5.984375 -3.035156 5.9375 -3.234375 5.84375 -3.390625 C 5.757812 -3.546875 5.617188 -3.679688 5.421875 -3.796875 C 5.222656 -3.910156 4.957031 -4.007812 4.625 -4.09375 L 3.34375 -4.375 C 2.445312 -4.582031 1.78125 -4.921875 1.34375 -5.390625 C 0.914062 -5.867188 0.703125 -6.484375 0.703125 -7.234375 C 0.703125 -7.796875 0.84375 -8.289062 1.125 -8.71875 C 1.40625 -9.144531 1.8125 -9.472656 2.34375 -9.703125 C 2.875 -9.941406 3.515625 -10.0625 4.265625 -10.0625 C 5.023438 -10.0625 5.675781 -9.957031 6.21875 -9.75 C 6.769531 -9.550781 7.234375 -9.242188 7.609375 -8.828125 L 6.640625 -7.5 L 6.46875 -7.5 C 6.1875 -7.789062 5.863281 -8.007812 5.5 -8.15625 C 5.144531 -8.3125 4.734375 -8.390625 4.265625 -8.390625 C 3.722656 -8.390625 3.3125 -8.289062 3.03125 -8.09375 C 2.757812 -7.90625 2.625 -7.644531 2.625 -7.3125 C 2.625 -7 2.71875 -6.75 2.90625 -6.5625 C 3.101562 -6.375 3.445312 -6.226562 3.9375 -6.125 L 5.234375 -5.859375 C 6.203125 -5.660156 6.898438 -5.316406 7.328125 -4.828125 C 7.765625 -4.335938 7.984375 -3.703125 7.984375 -2.921875 C 7.984375 -2.304688 7.847656 -1.769531 7.578125 -1.3125 C 7.316406 -0.851562 6.914062 -0.492188 6.375 -0.234375 C 5.832031 0.015625 5.171875 0.140625 4.390625 0.140625 Z M 4.390625 0.140625 "/></g></g><g style="fill:#0d356b;fill-opacity:0.302;"><g transform="translate(133.844888, 259.697181)"><path style="stroke:none" d="M 1.078125 3.03125 L 1.078125 -7.484375 L 2.953125 -7.484375 L 2.953125 -6.5 L 3.09375 -6.484375 C 3.320312 -6.859375 3.617188 -7.140625 3.984375 -7.328125 C 4.359375 -7.523438 4.796875 -7.625 5.296875 -7.625 C 5.890625 -7.625 6.410156 -7.476562 6.859375 -7.1875 C 7.316406 -6.90625 7.671875 -6.472656 7.921875 -5.890625 C 8.171875 -5.316406 8.296875 -4.597656 8.296875 -3.734375 C 8.296875 -2.878906 8.160156 -2.160156 7.890625 -1.578125 C 7.628906 -1.003906 7.265625 -0.570312 6.796875 -0.28125 C 6.328125 0 5.785156 0.140625 5.171875 0.140625 C 4.703125 0.140625 4.296875 0.0625 3.953125 -0.09375 C 3.617188 -0.25 3.332031 -0.492188 3.09375 -0.828125 L 2.953125 -0.796875 L 2.953125 3.03125 Z M 4.640625 -1.453125 C 5.203125 -1.453125 5.628906 -1.632812 5.921875 -2 C 6.210938 -2.363281 6.359375 -2.941406 6.359375 -3.734375 C 6.359375 -4.523438 6.210938 -5.101562 5.921875 -5.46875 C 5.628906 -5.84375 5.203125 -6.03125 4.640625 -6.03125 C 4.117188 -6.03125 3.703125 -5.835938 3.390625 -5.453125 C 3.085938 -5.078125 2.9375 -4.503906 2.9375 -3.734375 C 2.9375 -2.972656 3.085938 -2.398438 3.390625 -2.015625 C 3.703125 -1.640625 4.117188 -1.453125 4.640625 -1.453125 Z M 4.640625 -1.453125 "/></g></g><g style="fill:#0d356b;fill-opacity:0.302;"><g transform="translate(142.802098, 259.697181)"><path style="stroke:none" d="M 7.390625 -3.3125 L 2.578125 -3.3125 C 2.640625 -2.664062 2.828125 -2.191406 3.140625 -1.890625 C 3.453125 -1.597656 3.882812 -1.453125 4.4375 -1.453125 C 4.863281 -1.453125 5.207031 -1.53125 5.46875 -1.6875 C 5.738281 -1.851562 5.957031 -2.097656 6.125 -2.421875 L 6.265625 -2.421875 L 7.515625 -1.625 C 7.273438 -1.09375 6.90625 -0.664062 6.40625 -0.34375 C 5.914062 -0.0195312 5.257812 0.140625 4.4375 0.140625 C 3.664062 0.140625 3 -0.00390625 2.4375 -0.296875 C 1.875 -0.585938 1.4375 -1.023438 1.125 -1.609375 C 0.820312 -2.191406 0.671875 -2.898438 0.671875 -3.734375 C 0.671875 -4.585938 0.832031 -5.304688 1.15625 -5.890625 C 1.476562 -6.472656 1.910156 -6.90625 2.453125 -7.1875 C 3.003906 -7.476562 3.617188 -7.625 4.296875 -7.625 C 5.359375 -7.625 6.171875 -7.34375 6.734375 -6.78125 C 7.296875 -6.21875 7.578125 -5.394531 7.578125 -4.3125 C 7.578125 -3.914062 7.5625 -3.609375 7.53125 -3.390625 Z M 5.78125 -4.53125 C 5.757812 -5.101562 5.625 -5.519531 5.375 -5.78125 C 5.132812 -6.039062 4.773438 -6.171875 4.296875 -6.171875 C 3.347656 -6.171875 2.789062 -5.625 2.625 -4.53125 Z M 5.78125 -4.53125 "/></g></g><g style="fill:#0d356b;fill-opacity:0.302;"><g transform="translate(150.932072, 259.697181)"><path style="stroke:none" d="M 2.921875 0.140625 C 2.441406 0.140625 2.023438 0.0507812 1.671875 -0.125 C 1.316406 -0.300781 1.039062 -0.554688 0.84375 -0.890625 C 0.65625 -1.234375 0.5625 -1.644531 0.5625 -2.125 C 0.5625 -2.570312 0.65625 -2.945312 0.84375 -3.25 C 1.039062 -3.550781 1.335938 -3.796875 1.734375 -3.984375 C 2.128906 -4.171875 2.648438 -4.316406 3.296875 -4.421875 C 3.742188 -4.492188 4.082031 -4.570312 4.3125 -4.65625 C 4.550781 -4.75 4.707031 -4.847656 4.78125 -4.953125 C 4.863281 -5.066406 4.90625 -5.207031 4.90625 -5.375 C 4.90625 -5.613281 4.820312 -5.796875 4.65625 -5.921875 C 4.488281 -6.046875 4.210938 -6.109375 3.828125 -6.109375 C 3.410156 -6.109375 3.015625 -6.015625 2.640625 -5.828125 C 2.265625 -5.648438 1.9375 -5.40625 1.65625 -5.09375 L 1.53125 -5.09375 L 0.734375 -6.28125 C 1.117188 -6.707031 1.582031 -7.035156 2.125 -7.265625 C 2.675781 -7.503906 3.273438 -7.625 3.921875 -7.625 C 4.910156 -7.625 5.625 -7.410156 6.0625 -6.984375 C 6.507812 -6.566406 6.734375 -5.972656 6.734375 -5.203125 L 6.734375 -1.953125 C 6.734375 -1.617188 6.878906 -1.453125 7.171875 -1.453125 C 7.285156 -1.453125 7.398438 -1.472656 7.515625 -1.515625 L 7.609375 -1.484375 L 7.734375 -0.171875 C 7.628906 -0.109375 7.484375 -0.0546875 7.296875 -0.015625 C 7.117188 0.0234375 6.914062 0.046875 6.6875 0.046875 C 6.238281 0.046875 5.890625 -0.0351562 5.640625 -0.203125 C 5.390625 -0.378906 5.210938 -0.648438 5.109375 -1.015625 L 4.96875 -1.03125 C 4.601562 -0.25 3.921875 0.140625 2.921875 0.140625 Z M 3.515625 -1.265625 C 3.953125 -1.265625 4.296875 -1.410156 4.546875 -1.703125 C 4.804688 -1.992188 4.9375 -2.398438 4.9375 -2.921875 L 4.9375 -3.671875 L 4.8125 -3.703125 C 4.695312 -3.609375 4.546875 -3.53125 4.359375 -3.46875 C 4.179688 -3.414062 3.921875 -3.359375 3.578125 -3.296875 C 3.171875 -3.222656 2.878906 -3.101562 2.703125 -2.9375 C 2.523438 -2.78125 2.4375 -2.550781 2.4375 -2.25 C 2.4375 -1.925781 2.53125 -1.679688 2.71875 -1.515625 C 2.90625 -1.347656 3.171875 -1.265625 3.515625 -1.265625 Z M 3.515625 -1.265625 "/></g></g><g style="fill:#0d356b;fill-opacity:0.302;"><g transform="translate(158.817943, 259.697181)"><path style="stroke:none" d="M 1.078125 0 L 1.078125 -10.484375 L 2.953125 -10.484375 L 2.953125 -4.671875 L 3.140625 -4.671875 L 5.296875 -7.484375 L 7.203125 -7.484375 L 7.203125 -7.328125 L 4.671875 -4.046875 L 7.5 -0.171875 L 7.5 0 L 5.515625 0 L 3.140625 -3.15625 L 2.953125 -3.15625 L 2.953125 0 Z M 1.078125 0 "/></g></g><g style="fill:#0d356b;fill-opacity:0.302;"><g transform="translate(166.3241, 259.697181)"><path style="stroke:none" d=""/></g></g><g style="fill:#0d356b;fill-opacity:0.302;"><g transform="translate(169.599147, 259.697181)"><path style="stroke:none" d="M 5.15625 -1.78125 L 5.65625 -0.390625 C 5.445312 -0.222656 5.1875 -0.09375 4.875 0 C 4.570312 0.09375 4.226562 0.140625 3.84375 0.140625 C 3.03125 0.140625 2.410156 -0.078125 1.984375 -0.515625 C 1.566406 -0.960938 1.359375 -1.601562 1.359375 -2.4375 L 1.359375 -6 L 0.21875 -6 L 0.21875 -7.484375 L 1.359375 -7.484375 L 1.359375 -8.953125 L 3.234375 -9.25 L 3.234375 -7.484375 L 5.359375 -7.484375 L 5.359375 -6 L 3.234375 -6 L 3.234375 -2.578125 C 3.234375 -2.203125 3.3125 -1.929688 3.46875 -1.765625 C 3.625 -1.597656 3.847656 -1.515625 4.140625 -1.515625 C 4.472656 -1.515625 4.765625 -1.601562 5.015625 -1.78125 Z M 5.15625 -1.78125 "/></g></g><g style="fill:#0d356b;fill-opacity:0.302;"><g transform="translate(175.410147, 259.697181)"><path style="stroke:none" d="M 4.34375 0.140625 C 3.613281 0.140625 2.972656 -0.0078125 2.421875 -0.3125 C 1.867188 -0.613281 1.4375 -1.050781 1.125 -1.625 C 0.820312 -2.207031 0.671875 -2.910156 0.671875 -3.734375 C 0.671875 -4.554688 0.820312 -5.257812 1.125 -5.84375 C 1.4375 -6.425781 1.867188 -6.867188 2.421875 -7.171875 C 2.972656 -7.472656 3.613281 -7.625 4.34375 -7.625 C 5.082031 -7.625 5.726562 -7.472656 6.28125 -7.171875 C 6.832031 -6.867188 7.257812 -6.425781 7.5625 -5.84375 C 7.875 -5.257812 8.03125 -4.554688 8.03125 -3.734375 C 8.03125 -2.910156 7.875 -2.207031 7.5625 -1.625 C 7.257812 -1.050781 6.832031 -0.613281 6.28125 -0.3125 C 5.726562 -0.0078125 5.082031 0.140625 4.34375 0.140625 Z M 4.34375 -1.453125 C 5.507812 -1.453125 6.09375 -2.210938 6.09375 -3.734375 C 6.09375 -4.523438 5.941406 -5.101562 5.640625 -5.46875 C 5.347656 -5.84375 4.914062 -6.03125 4.34375 -6.03125 C 3.1875 -6.03125 2.609375 -5.265625 2.609375 -3.734375 C 2.609375 -2.210938 3.1875 -1.453125 4.34375 -1.453125 Z M 4.34375 -1.453125 "/></g></g><g style="fill:#0d356b;fill-opacity:0.302;"><g transform="translate(184.102907, 259.697181)"><path style="stroke:none" d=""/></g></g><g style="fill:#0d356b;fill-opacity:0.302;"><g transform="translate(187.377954, 259.697181)"><path style="stroke:none" d="M 5.15625 -1.78125 L 5.65625 -0.390625 C 5.445312 -0.222656 5.1875 -0.09375 4.875 0 C 4.570312 0.09375 4.226562 0.140625 3.84375 0.140625 C 3.03125 0.140625 2.410156 -0.078125 1.984375 -0.515625 C 1.566406 -0.960938 1.359375 -1.601562 1.359375 -2.4375 L 1.359375 -6 L 0.21875 -6 L 0.21875 -7.484375 L 1.359375 -7.484375 L 1.359375 -8.953125 L 3.234375 -9.25 L 3.234375 -7.484375 L 5.359375 -7.484375 L 5.359375 -6 L 3.234375 -6 L 3.234375 -2.578125 C 3.234375 -2.203125 3.3125 -1.929688 3.46875 -1.765625 C 3.625 -1.597656 3.847656 -1.515625 4.140625 -1.515625 C 4.472656 -1.515625 4.765625 -1.601562 5.015625 -1.78125 Z M 5.15625 -1.78125 "/></g></g><g style="fill:#0d356b;fill-opacity:0.302;"><g transform="translate(193.188954, 259.697181)"><path style="stroke:none" d="M 1.078125 0 L 1.078125 -10.484375 L 2.953125 -10.484375 L 2.953125 -6.5 L 3.09375 -6.484375 C 3.34375 -6.847656 3.648438 -7.128906 4.015625 -7.328125 C 4.378906 -7.523438 4.816406 -7.625 5.328125 -7.625 C 6.972656 -7.625 7.796875 -6.6875 7.796875 -4.8125 L 7.796875 0 L 5.921875 0 L 5.921875 -4.578125 C 5.921875 -5.085938 5.816406 -5.457031 5.609375 -5.6875 C 5.410156 -5.914062 5.097656 -6.03125 4.671875 -6.03125 C 4.140625 -6.03125 3.71875 -5.851562 3.40625 -5.5 C 3.101562 -5.15625 2.953125 -4.613281 2.953125 -3.875 L 2.953125 0 Z M 1.078125 0 "/></g></g><g style="fill:#0d356b;fill-opacity:0.302;"><g transform="translate(201.949521, 259.697181)"><path style="stroke:none" d="M 7.390625 -3.3125 L 2.578125 -3.3125 C 2.640625 -2.664062 2.828125 -2.191406 3.140625 -1.890625 C 3.453125 -1.597656 3.882812 -1.453125 4.4375 -1.453125 C 4.863281 -1.453125 5.207031 -1.53125 5.46875 -1.6875 C 5.738281 -1.851562 5.957031 -2.097656 6.125 -2.421875 L 6.265625 -2.421875 L 7.515625 -1.625 C 7.273438 -1.09375 6.90625 -0.664062 6.40625 -0.34375 C 5.914062 -0.0195312 5.257812 0.140625 4.4375 0.140625 C 3.664062 0.140625 3 -0.00390625 2.4375 -0.296875 C 1.875 -0.585938 1.4375 -1.023438 1.125 -1.609375 C 0.820312 -2.191406 0.671875 -2.898438 0.671875 -3.734375 C 0.671875 -4.585938 0.832031 -5.304688 1.15625 -5.890625 C 1.476562 -6.472656 1.910156 -6.90625 2.453125 -7.1875 C 3.003906 -7.476562 3.617188 -7.625 4.296875 -7.625 C 5.359375 -7.625 6.171875 -7.34375 6.734375 -6.78125 C 7.296875 -6.21875 7.578125 -5.394531 7.578125 -4.3125 C 7.578125 -3.914062 7.5625 -3.609375 7.53125 -3.390625 Z M 5.78125 -4.53125 C 5.757812 -5.101562 5.625 -5.519531 5.375 -5.78125 C 5.132812 -6.039062 4.773438 -6.171875 4.296875 -6.171875 C 3.347656 -6.171875 2.789062 -5.625 2.625 -4.53125 Z M 5.78125 -4.53125 "/></g></g><g style="fill:#0d356b;fill-opacity:0.302;"><g transform="translate(210.079494, 259.697181)"><path style="stroke:none" d=""/></g></g><g style="fill:#0d356b;fill-opacity:0.302;"><g transform="translate(213.354541, 259.697181)"><path style="stroke:none" d="M 4.015625 0 L 2.046875 0 L 0.265625 -7.484375 L 2.015625 -7.484375 L 3.109375 -2.421875 L 3.25 -2.421875 L 4.6875 -7.484375 L 6.3125 -7.484375 L 7.78125 -2.421875 L 7.921875 -2.421875 L 8.984375 -7.484375 L 10.671875 -7.484375 L 8.921875 0 L 6.953125 0 L 5.53125 -5.09375 L 5.390625 -5.09375 Z M 4.015625 0 "/></g></g><g style="fill:#0d356b;fill-opacity:0.302;"><g transform="translate(224.291694, 259.697181)"><path style="stroke:none" d="M 4.34375 0.140625 C 3.613281 0.140625 2.972656 -0.0078125 2.421875 -0.3125 C 1.867188 -0.613281 1.4375 -1.050781 1.125 -1.625 C 0.820312 -2.207031 0.671875 -2.910156 0.671875 -3.734375 C 0.671875 -4.554688 0.820312 -5.257812 1.125 -5.84375 C 1.4375 -6.425781 1.867188 -6.867188 2.421875 -7.171875 C 2.972656 -7.472656 3.613281 -7.625 4.34375 -7.625 C 5.082031 -7.625 5.726562 -7.472656 6.28125 -7.171875 C 6.832031 -6.867188 7.257812 -6.425781 7.5625 -5.84375 C 7.875 -5.257812 8.03125 -4.554688 8.03125 -3.734375 C 8.03125 -2.910156 7.875 -2.207031 7.5625 -1.625 C 7.257812 -1.050781 6.832031 -0.613281 6.28125 -0.3125 C 5.726562 -0.0078125 5.082031 0.140625 4.34375 0.140625 Z M 4.34375 -1.453125 C 5.507812 -1.453125 6.09375 -2.210938 6.09375 -3.734375 C 6.09375 -4.523438 5.941406 -5.101562 5.640625 -5.46875 C 5.347656 -5.84375 4.914062 -6.03125 4.34375 -6.03125 C 3.1875 -6.03125 2.609375 -5.265625 2.609375 -3.734375 C 2.609375 -2.210938 3.1875 -1.453125 4.34375 -1.453125 Z M 4.34375 -1.453125 "/></g></g><g style="fill:#0d356b;fill-opacity:0.302;"><g transform="translate(232.984454, 259.697181)"><path style="stroke:none" d="M 1.078125 0 L 1.078125 -7.484375 L 2.90625 -7.484375 L 2.90625 -6.375 L 3.046875 -6.34375 C 3.222656 -6.757812 3.457031 -7.0625 3.75 -7.25 C 4.050781 -7.445312 4.410156 -7.546875 4.828125 -7.546875 C 5.253906 -7.546875 5.578125 -7.472656 5.796875 -7.328125 L 5.484375 -5.703125 L 5.34375 -5.6875 C 5.21875 -5.738281 5.097656 -5.773438 4.984375 -5.796875 C 4.867188 -5.816406 4.734375 -5.828125 4.578125 -5.828125 C 4.046875 -5.828125 3.640625 -5.640625 3.359375 -5.265625 C 3.085938 -4.898438 2.953125 -4.3125 2.953125 -3.5 L 2.953125 0 Z M 1.078125 0 "/></g></g><g style="fill:#0d356b;fill-opacity:0.302;"><g transform="translate(238.849699, 259.697181)"><path style="stroke:none" d="M 3.109375 0.140625 C 2.429688 0.140625 1.914062 -0.0390625 1.5625 -0.40625 C 1.207031 -0.769531 1.03125 -1.320312 1.03125 -2.0625 L 1.03125 -10.484375 L 2.90625 -10.484375 L 2.90625 -2.140625 C 2.90625 -1.679688 3.097656 -1.453125 3.484375 -1.453125 C 3.585938 -1.453125 3.703125 -1.46875 3.828125 -1.5 L 3.921875 -1.484375 L 4.09375 -0.03125 C 3.988281 0.0195312 3.847656 0.0625 3.671875 0.09375 C 3.503906 0.125 3.316406 0.140625 3.109375 0.140625 Z M 3.109375 0.140625 "/></g></g><g style="fill:#0d356b;fill-opacity:0.302;"><g transform="translate(243.148615, 259.697181)"><path style="stroke:none" d="M 3.703125 0.140625 C 3.109375 0.140625 2.582031 0 2.125 -0.28125 C 1.664062 -0.570312 1.304688 -1.007812 1.046875 -1.59375 C 0.796875 -2.175781 0.671875 -2.890625 0.671875 -3.734375 C 0.671875 -4.585938 0.800781 -5.304688 1.0625 -5.890625 C 1.332031 -6.472656 1.703125 -6.90625 2.171875 -7.1875 C 2.640625 -7.476562 3.179688 -7.625 3.796875 -7.625 C 4.253906 -7.625 4.65625 -7.539062 5 -7.375 C 5.34375 -7.21875 5.628906 -6.972656 5.859375 -6.640625 L 6.015625 -6.671875 L 6.015625 -10.484375 L 7.890625 -10.484375 L 7.890625 0 L 6.015625 0 L 6.015625 -0.96875 L 5.859375 -1 C 5.660156 -0.644531 5.378906 -0.363281 5.015625 -0.15625 C 4.648438 0.0390625 4.210938 0.140625 3.703125 0.140625 Z M 4.3125 -1.453125 C 4.832031 -1.453125 5.242188 -1.640625 5.546875 -2.015625 C 5.859375 -2.390625 6.015625 -2.960938 6.015625 -3.734375 C 6.015625 -4.503906 5.859375 -5.078125 5.546875 -5.453125 C 5.242188 -5.835938 4.832031 -6.03125 4.3125 -6.03125 C 3.757812 -6.03125 3.335938 -5.84375 3.046875 -5.46875 C 2.753906 -5.101562 2.609375 -4.523438 2.609375 -3.734375 C 2.609375 -2.953125 2.753906 -2.375 3.046875 -2 C 3.335938 -1.632812 3.757812 -1.453125 4.3125 -1.453125 Z M 4.3125 -1.453125 "/></g></g><g style="fill:#0d356b;fill-opacity:0.502;"><g transform="translate(124.714552, 259.083307)"><path style="stroke:none" d="M 4.390625 0.140625 C 3.703125 0.140625 3.085938 0.0546875 2.546875 -0.109375 C 2.015625 -0.273438 1.570312 -0.492188 1.21875 -0.765625 C 0.863281 -1.046875 0.59375 -1.351562 0.40625 -1.6875 L 1.484375 -3 L 1.640625 -3 C 1.941406 -2.5625 2.320312 -2.207031 2.78125 -1.9375 C 3.238281 -1.675781 3.773438 -1.546875 4.390625 -1.546875 C 4.921875 -1.546875 5.316406 -1.65625 5.578125 -1.875 C 5.847656 -2.101562 5.984375 -2.410156 5.984375 -2.796875 C 5.984375 -3.035156 5.9375 -3.234375 5.84375 -3.390625 C 5.757812 -3.546875 5.617188 -3.679688 5.421875 -3.796875 C 5.222656 -3.910156 4.957031 -4.007812 4.625 -4.09375 L 3.34375 -4.375 C 2.445312 -4.582031 1.78125 -4.921875 1.34375 -5.390625 C 0.914062 -5.867188 0.703125 -6.484375 0.703125 -7.234375 C 0.703125 -7.796875 0.84375 -8.289062 1.125 -8.71875 C 1.40625 -9.144531 1.8125 -9.472656 2.34375 -9.703125 C 2.875 -9.941406 3.515625 -10.0625 4.265625 -10.0625 C 5.023438 -10.0625 5.675781 -9.957031 6.21875 -9.75 C 6.769531 -9.550781 7.234375 -9.242188 7.609375 -8.828125 L 6.640625 -7.5 L 6.46875 -7.5 C 6.1875 -7.789062 5.863281 -8.007812 5.5 -8.15625 C 5.144531 -8.3125 4.734375 -8.390625 4.265625 -8.390625 C 3.722656 -8.390625 3.3125 -8.289062 3.03125 -8.09375 C 2.757812 -7.90625 2.625 -7.644531 2.625 -7.3125 C 2.625 -7 2.71875 -6.75 2.90625 -6.5625 C 3.101562 -6.375 3.445312 -6.226562 3.9375 -6.125 L 5.234375 -5.859375 C 6.203125 -5.660156 6.898438 -5.316406 7.328125 -4.828125 C 7.765625 -4.335938 7.984375 -3.703125 7.984375 -2.921875 C 7.984375 -2.304688 7.847656 -1.769531 7.578125 -1.3125 C 7.316406 -0.851562 6.914062 -0.492188 6.375 -0.234375 C 5.832031 0.015625 5.171875 0.140625 4.390625 0.140625 Z M 4.390625 0.140625 "/></g></g><g style="fill:#0d356b;fill-opacity:0.502;"><g transform="translate(133.231016, 259.083307)"><path style="stroke:none" d="M 1.078125 3.03125 L 1.078125 -7.484375 L 2.953125 -7.484375 L 2.953125 -6.5 L 3.09375 -6.484375 C 3.320312 -6.859375 3.617188 -7.140625 3.984375 -7.328125 C 4.359375 -7.523438 4.796875 -7.625 5.296875 -7.625 C 5.890625 -7.625 6.410156 -7.476562 6.859375 -7.1875 C 7.316406 -6.90625 7.671875 -6.472656 7.921875 -5.890625 C 8.171875 -5.316406 8.296875 -4.597656 8.296875 -3.734375 C 8.296875 -2.878906 8.160156 -2.160156 7.890625 -1.578125 C 7.628906 -1.003906 7.265625 -0.570312 6.796875 -0.28125 C 6.328125 0 5.785156 0.140625 5.171875 0.140625 C 4.703125 0.140625 4.296875 0.0625 3.953125 -0.09375 C 3.617188 -0.25 3.332031 -0.492188 3.09375 -0.828125 L 2.953125 -0.796875 L 2.953125 3.03125 Z M 4.640625 -1.453125 C 5.203125 -1.453125 5.628906 -1.632812 5.921875 -2 C 6.210938 -2.363281 6.359375 -2.941406 6.359375 -3.734375 C 6.359375 -4.523438 6.210938 -5.101562 5.921875 -5.46875 C 5.628906 -5.84375 5.203125 -6.03125 4.640625 -6.03125 C 4.117188 -6.03125 3.703125 -5.835938 3.390625 -5.453125 C 3.085938 -5.078125 2.9375 -4.503906 2.9375 -3.734375 C 2.9375 -2.972656 3.085938 -2.398438 3.390625 -2.015625 C 3.703125 -1.640625 4.117188 -1.453125 4.640625 -1.453125 Z M 4.640625 -1.453125 "/></g></g><g style="fill:#0d356b;fill-opacity:0.502;"><g transform="translate(142.188226, 259.083307)"><path style="stroke:none" d="M 7.390625 -3.3125 L 2.578125 -3.3125 C 2.640625 -2.664062 2.828125 -2.191406 3.140625 -1.890625 C 3.453125 -1.597656 3.882812 -1.453125 4.4375 -1.453125 C 4.863281 -1.453125 5.207031 -1.53125 5.46875 -1.6875 C 5.738281 -1.851562 5.957031 -2.097656 6.125 -2.421875 L 6.265625 -2.421875 L 7.515625 -1.625 C 7.273438 -1.09375 6.90625 -0.664062 6.40625 -0.34375 C 5.914062 -0.0195312 5.257812 0.140625 4.4375 0.140625 C 3.664062 0.140625 3 -0.00390625 2.4375 -0.296875 C 1.875 -0.585938 1.4375 -1.023438 1.125 -1.609375 C 0.820312 -2.191406 0.671875 -2.898438 0.671875 -3.734375 C 0.671875 -4.585938 0.832031 -5.304688 1.15625 -5.890625 C 1.476562 -6.472656 1.910156 -6.90625 2.453125 -7.1875 C 3.003906 -7.476562 3.617188 -7.625 4.296875 -7.625 C 5.359375 -7.625 6.171875 -7.34375 6.734375 -6.78125 C 7.296875 -6.21875 7.578125 -5.394531 7.578125 -4.3125 C 7.578125 -3.914062 7.5625 -3.609375 7.53125 -3.390625 Z M 5.78125 -4.53125 C 5.757812 -5.101562 5.625 -5.519531 5.375 -5.78125 C 5.132812 -6.039062 4.773438 -6.171875 4.296875 -6.171875 C 3.347656 -6.171875 2.789062 -5.625 2.625 -4.53125 Z M 5.78125 -4.53125 "/></g></g><g style="fill:#0d356b;fill-opacity:0.502;"><g transform="translate(150.3182, 259.083307)"><path style="stroke:none" d="M 2.921875 0.140625 C 2.441406 0.140625 2.023438 0.0507812 1.671875 -0.125 C 1.316406 -0.300781 1.039062 -0.554688 0.84375 -0.890625 C 0.65625 -1.234375 0.5625 -1.644531 0.5625 -2.125 C 0.5625 -2.570312 0.65625 -2.945312 0.84375 -3.25 C 1.039062 -3.550781 1.335938 -3.796875 1.734375 -3.984375 C 2.128906 -4.171875 2.648438 -4.316406 3.296875 -4.421875 C 3.742188 -4.492188 4.082031 -4.570312 4.3125 -4.65625 C 4.550781 -4.75 4.707031 -4.847656 4.78125 -4.953125 C 4.863281 -5.066406 4.90625 -5.207031 4.90625 -5.375 C 4.90625 -5.613281 4.820312 -5.796875 4.65625 -5.921875 C 4.488281 -6.046875 4.210938 -6.109375 3.828125 -6.109375 C 3.410156 -6.109375 3.015625 -6.015625 2.640625 -5.828125 C 2.265625 -5.648438 1.9375 -5.40625 1.65625 -5.09375 L 1.53125 -5.09375 L 0.734375 -6.28125 C 1.117188 -6.707031 1.582031 -7.035156 2.125 -7.265625 C 2.675781 -7.503906 3.273438 -7.625 3.921875 -7.625 C 4.910156 -7.625 5.625 -7.410156 6.0625 -6.984375 C 6.507812 -6.566406 6.734375 -5.972656 6.734375 -5.203125 L 6.734375 -1.953125 C 6.734375 -1.617188 6.878906 -1.453125 7.171875 -1.453125 C 7.285156 -1.453125 7.398438 -1.472656 7.515625 -1.515625 L 7.609375 -1.484375 L 7.734375 -0.171875 C 7.628906 -0.109375 7.484375 -0.0546875 7.296875 -0.015625 C 7.117188 0.0234375 6.914062 0.046875 6.6875 0.046875 C 6.238281 0.046875 5.890625 -0.0351562 5.640625 -0.203125 C 5.390625 -0.378906 5.210938 -0.648438 5.109375 -1.015625 L 4.96875 -1.03125 C 4.601562 -0.25 3.921875 0.140625 2.921875 0.140625 Z M 3.515625 -1.265625 C 3.953125 -1.265625 4.296875 -1.410156 4.546875 -1.703125 C 4.804688 -1.992188 4.9375 -2.398438 4.9375 -2.921875 L 4.9375 -3.671875 L 4.8125 -3.703125 C 4.695312 -3.609375 4.546875 -3.53125 4.359375 -3.46875 C 4.179688 -3.414062 3.921875 -3.359375 3.578125 -3.296875 C 3.171875 -3.222656 2.878906 -3.101562 2.703125 -2.9375 C 2.523438 -2.78125 2.4375 -2.550781 2.4375 -2.25 C 2.4375 -1.925781 2.53125 -1.679688 2.71875 -1.515625 C 2.90625 -1.347656 3.171875 -1.265625 3.515625 -1.265625 Z M 3.515625 -1.265625 "/></g></g><g style="fill:#0d356b;fill-opacity:0.502;"><g transform="translate(158.204071, 259.083307)"><path style="stroke:none" d="M 1.078125 0 L 1.078125 -10.484375 L 2.953125 -10.484375 L 2.953125 -4.671875 L 3.140625 -4.671875 L 5.296875 -7.484375 L 7.203125 -7.484375 L 7.203125 -7.328125 L 4.671875 -4.046875 L 7.5 -0.171875 L 7.5 0 L 5.515625 0 L 3.140625 -3.15625 L 2.953125 -3.15625 L 2.953125 0 Z M 1.078125 0 "/></g></g><g style="fill:#0d356b;fill-opacity:0.502;"><g transform="translate(165.710228, 259.083307)"><path style="stroke:none" d=""/></g></g><g style="fill:#0d356b;fill-opacity:0.502;"><g transform="translate(168.985275, 259.083307)"><path style="stroke:none" d="M 5.15625 -1.78125 L 5.65625 -0.390625 C 5.445312 -0.222656 5.1875 -0.09375 4.875 0 C 4.570312 0.09375 4.226562 0.140625 3.84375 0.140625 C 3.03125 0.140625 2.410156 -0.078125 1.984375 -0.515625 C 1.566406 -0.960938 1.359375 -1.601562 1.359375 -2.4375 L 1.359375 -6 L 0.21875 -6 L 0.21875 -7.484375 L 1.359375 -7.484375 L 1.359375 -8.953125 L 3.234375 -9.25 L 3.234375 -7.484375 L 5.359375 -7.484375 L 5.359375 -6 L 3.234375 -6 L 3.234375 -2.578125 C 3.234375 -2.203125 3.3125 -1.929688 3.46875 -1.765625 C 3.625 -1.597656 3.847656 -1.515625 4.140625 -1.515625 C 4.472656 -1.515625 4.765625 -1.601562 5.015625 -1.78125 Z M 5.15625 -1.78125 "/></g></g><g style="fill:#0d356b;fill-opacity:0.502;"><g transform="translate(174.796275, 259.083307)"><path style="stroke:none" d="M 4.34375 0.140625 C 3.613281 0.140625 2.972656 -0.0078125 2.421875 -0.3125 C 1.867188 -0.613281 1.4375 -1.050781 1.125 -1.625 C 0.820312 -2.207031 0.671875 -2.910156 0.671875 -3.734375 C 0.671875 -4.554688 0.820312 -5.257812 1.125 -5.84375 C 1.4375 -6.425781 1.867188 -6.867188 2.421875 -7.171875 C 2.972656 -7.472656 3.613281 -7.625 4.34375 -7.625 C 5.082031 -7.625 5.726562 -7.472656 6.28125 -7.171875 C 6.832031 -6.867188 7.257812 -6.425781 7.5625 -5.84375 C 7.875 -5.257812 8.03125 -4.554688 8.03125 -3.734375 C 8.03125 -2.910156 7.875 -2.207031 7.5625 -1.625 C 7.257812 -1.050781 6.832031 -0.613281 6.28125 -0.3125 C 5.726562 -0.0078125 5.082031 0.140625 4.34375 0.140625 Z M 4.34375 -1.453125 C 5.507812 -1.453125 6.09375 -2.210938 6.09375 -3.734375 C 6.09375 -4.523438 5.941406 -5.101562 5.640625 -5.46875 C 5.347656 -5.84375 4.914062 -6.03125 4.34375 -6.03125 C 3.1875 -6.03125 2.609375 -5.265625 2.609375 -3.734375 C 2.609375 -2.210938 3.1875 -1.453125 4.34375 -1.453125 Z M 4.34375 -1.453125 "/></g></g><g style="fill:#0d356b;fill-opacity:0.502;"><g transform="translate(183.489035, 259.083307)"><path style="stroke:none" d=""/></g></g><g style="fill:#0d356b;fill-opacity:0.502;"><g transform="translate(186.764082, 259.083307)"><path style="stroke:none" d="M 5.15625 -1.78125 L 5.65625 -0.390625 C 5.445312 -0.222656 5.1875 -0.09375 4.875 0 C 4.570312 0.09375 4.226562 0.140625 3.84375 0.140625 C 3.03125 0.140625 2.410156 -0.078125 1.984375 -0.515625 C 1.566406 -0.960938 1.359375 -1.601562 1.359375 -2.4375 L 1.359375 -6 L 0.21875 -6 L 0.21875 -7.484375 L 1.359375 -7.484375 L 1.359375 -8.953125 L 3.234375 -9.25 L 3.234375 -7.484375 L 5.359375 -7.484375 L 5.359375 -6 L 3.234375 -6 L 3.234375 -2.578125 C 3.234375 -2.203125 3.3125 -1.929688 3.46875 -1.765625 C 3.625 -1.597656 3.847656 -1.515625 4.140625 -1.515625 C 4.472656 -1.515625 4.765625 -1.601562 5.015625 -1.78125 Z M 5.15625 -1.78125 "/></g></g><g style="fill:#0d356b;fill-opacity:0.502;"><g transform="translate(192.575082, 259.083307)"><path style="stroke:none" d="M 1.078125 0 L 1.078125 -10.484375 L 2.953125 -10.484375 L 2.953125 -6.5 L 3.09375 -6.484375 C 3.34375 -6.847656 3.648438 -7.128906 4.015625 -7.328125 C 4.378906 -7.523438 4.816406 -7.625 5.328125 -7.625 C 6.972656 -7.625 7.796875 -6.6875 7.796875 -4.8125 L 7.796875 0 L 5.921875 0 L 5.921875 -4.578125 C 5.921875 -5.085938 5.816406 -5.457031 5.609375 -5.6875 C 5.410156 -5.914062 5.097656 -6.03125 4.671875 -6.03125 C 4.140625 -6.03125 3.71875 -5.851562 3.40625 -5.5 C 3.101562 -5.15625 2.953125 -4.613281 2.953125 -3.875 L 2.953125 0 Z M 1.078125 0 "/></g></g><g style="fill:#0d356b;fill-opacity:0.502;"><g transform="translate(201.335649, 259.083307)"><path style="stroke:none" d="M 7.390625 -3.3125 L 2.578125 -3.3125 C 2.640625 -2.664062 2.828125 -2.191406 3.140625 -1.890625 C 3.453125 -1.597656 3.882812 -1.453125 4.4375 -1.453125 C 4.863281 -1.453125 5.207031 -1.53125 5.46875 -1.6875 C 5.738281 -1.851562 5.957031 -2.097656 6.125 -2.421875 L 6.265625 -2.421875 L 7.515625 -1.625 C 7.273438 -1.09375 6.90625 -0.664062 6.40625 -0.34375 C 5.914062 -0.0195312 5.257812 0.140625 4.4375 0.140625 C 3.664062 0.140625 3 -0.00390625 2.4375 -0.296875 C 1.875 -0.585938 1.4375 -1.023438 1.125 -1.609375 C 0.820312 -2.191406 0.671875 -2.898438 0.671875 -3.734375 C 0.671875 -4.585938 0.832031 -5.304688 1.15625 -5.890625 C 1.476562 -6.472656 1.910156 -6.90625 2.453125 -7.1875 C 3.003906 -7.476562 3.617188 -7.625 4.296875 -7.625 C 5.359375 -7.625 6.171875 -7.34375 6.734375 -6.78125 C 7.296875 -6.21875 7.578125 -5.394531 7.578125 -4.3125 C 7.578125 -3.914062 7.5625 -3.609375 7.53125 -3.390625 Z M 5.78125 -4.53125 C 5.757812 -5.101562 5.625 -5.519531 5.375 -5.78125 C 5.132812 -6.039062 4.773438 -6.171875 4.296875 -6.171875 C 3.347656 -6.171875 2.789062 -5.625 2.625 -4.53125 Z M 5.78125 -4.53125 "/></g></g><g style="fill:#0d356b;fill-opacity:0.502;"><g transform="translate(209.465622, 259.083307)"><path style="stroke:none" d=""/></g></g><g style="fill:#0d356b;fill-opacity:0.502;"><g transform="translate(212.740669, 259.083307)"><path style="stroke:none" d="M 4.015625 0 L 2.046875 0 L 0.265625 -7.484375 L 2.015625 -7.484375 L 3.109375 -2.421875 L 3.25 -2.421875 L 4.6875 -7.484375 L 6.3125 -7.484375 L 7.78125 -2.421875 L 7.921875 -2.421875 L 8.984375 -7.484375 L 10.671875 -7.484375 L 8.921875 0 L 6.953125 0 L 5.53125 -5.09375 L 5.390625 -5.09375 Z M 4.015625 0 "/></g></g><g style="fill:#0d356b;fill-opacity:0.502;"><g transform="translate(223.677822, 259.083307)"><path style="stroke:none" d="M 4.34375 0.140625 C 3.613281 0.140625 2.972656 -0.0078125 2.421875 -0.3125 C 1.867188 -0.613281 1.4375 -1.050781 1.125 -1.625 C 0.820312 -2.207031 0.671875 -2.910156 0.671875 -3.734375 C 0.671875 -4.554688 0.820312 -5.257812 1.125 -5.84375 C 1.4375 -6.425781 1.867188 -6.867188 2.421875 -7.171875 C 2.972656 -7.472656 3.613281 -7.625 4.34375 -7.625 C 5.082031 -7.625 5.726562 -7.472656 6.28125 -7.171875 C 6.832031 -6.867188 7.257812 -6.425781 7.5625 -5.84375 C 7.875 -5.257812 8.03125 -4.554688 8.03125 -3.734375 C 8.03125 -2.910156 7.875 -2.207031 7.5625 -1.625 C 7.257812 -1.050781 6.832031 -0.613281 6.28125 -0.3125 C 5.726562 -0.0078125 5.082031 0.140625 4.34375 0.140625 Z M 4.34375 -1.453125 C 5.507812 -1.453125 6.09375 -2.210938 6.09375 -3.734375 C 6.09375 -4.523438 5.941406 -5.101562 5.640625 -5.46875 C 5.347656 -5.84375 4.914062 -6.03125 4.34375 -6.03125 C 3.1875 -6.03125 2.609375 -5.265625 2.609375 -3.734375 C 2.609375 -2.210938 3.1875 -1.453125 4.34375 -1.453125 Z M 4.34375 -1.453125 "/></g></g><g style="fill:#0d356b;fill-opacity:0.502;"><g transform="translate(232.370582, 259.083307)"><path style="stroke:none" d="M 1.078125 0 L 1.078125 -7.484375 L 2.90625 -7.484375 L 2.90625 -6.375 L 3.046875 -6.34375 C 3.222656 -6.757812 3.457031 -7.0625 3.75 -7.25 C 4.050781 -7.445312 4.410156 -7.546875 4.828125 -7.546875 C 5.253906 -7.546875 5.578125 -7.472656 5.796875 -7.328125 L 5.484375 -5.703125 L 5.34375 -5.6875 C 5.21875 -5.738281 5.097656 -5.773438 4.984375 -5.796875 C 4.867188 -5.816406 4.734375 -5.828125 4.578125 -5.828125 C 4.046875 -5.828125 3.640625 -5.640625 3.359375 -5.265625 C 3.085938 -4.898438 2.953125 -4.3125 2.953125 -3.5 L 2.953125 0 Z M 1.078125 0 "/></g></g><g style="fill:#0d356b;fill-opacity:0.502;"><g transform="translate(238.235827, 259.083307)"><path style="stroke:none" d="M 3.109375 0.140625 C 2.429688 0.140625 1.914062 -0.0390625 1.5625 -0.40625 C 1.207031 -0.769531 1.03125 -1.320312 1.03125 -2.0625 L 1.03125 -10.484375 L 2.90625 -10.484375 L 2.90625 -2.140625 C 2.90625 -1.679688 3.097656 -1.453125 3.484375 -1.453125 C 3.585938 -1.453125 3.703125 -1.46875 3.828125 -1.5 L 3.921875 -1.484375 L 4.09375 -0.03125 C 3.988281 0.0195312 3.847656 0.0625 3.671875 0.09375 C 3.503906 0.125 3.316406 0.140625 3.109375 0.140625 Z M 3.109375 0.140625 "/></g></g><g style="fill:#0d356b;fill-opacity:0.502;"><g transform="translate(242.534743, 259.083307)"><path style="stroke:none" d="M 3.703125 0.140625 C 3.109375 0.140625 2.582031 0 2.125 -0.28125 C 1.664062 -0.570312 1.304688 -1.007812 1.046875 -1.59375 C 0.796875 -2.175781 0.671875 -2.890625 0.671875 -3.734375 C 0.671875 -4.585938 0.800781 -5.304688 1.0625 -5.890625 C 1.332031 -6.472656 1.703125 -6.90625 2.171875 -7.1875 C 2.640625 -7.476562 3.179688 -7.625 3.796875 -7.625 C 4.253906 -7.625 4.65625 -7.539062 5 -7.375 C 5.34375 -7.21875 5.628906 -6.972656 5.859375 -6.640625 L 6.015625 -6.671875 L 6.015625 -10.484375 L 7.890625 -10.484375 L 7.890625 0 L 6.015625 0 L 6.015625 -0.96875 L 5.859375 -1 C 5.660156 -0.644531 5.378906 -0.363281 5.015625 -0.15625 C 4.648438 0.0390625 4.210938 0.140625 3.703125 0.140625 Z M 4.3125 -1.453125 C 4.832031 -1.453125 5.242188 -1.640625 5.546875 -2.015625 C 5.859375 -2.390625 6.015625 -2.960938 6.015625 -3.734375 C 6.015625 -4.503906 5.859375 -5.078125 5.546875 -5.453125 C 5.242188 -5.835938 4.832031 -6.03125 4.3125 -6.03125 C 3.757812 -6.03125 3.335938 -5.84375 3.046875 -5.46875 C 2.753906 -5.101562 2.609375 -4.523438 2.609375 -3.734375 C 2.609375 -2.953125 2.753906 -2.375 3.046875 -2 C 3.335938 -1.632812 3.757812 -1.453125 4.3125 -1.453125 Z M 4.3125 -1.453125 "/></g></g><g style="fill:#0d356b;fill-opacity:1;"><g transform="translate(124.10068, 258.469435)"><path style="stroke:none" d="M 4.390625 0.140625 C 3.703125 0.140625 3.085938 0.0546875 2.546875 -0.109375 C 2.015625 -0.273438 1.570312 -0.492188 1.21875 -0.765625 C 0.863281 -1.046875 0.59375 -1.351562 0.40625 -1.6875 L 1.484375 -3 L 1.640625 -3 C 1.941406 -2.5625 2.320312 -2.207031 2.78125 -1.9375 C 3.238281 -1.675781 3.773438 -1.546875 4.390625 -1.546875 C 4.921875 -1.546875 5.316406 -1.65625 5.578125 -1.875 C 5.847656 -2.101562 5.984375 -2.410156 5.984375 -2.796875 C 5.984375 -3.035156 5.9375 -3.234375 5.84375 -3.390625 C 5.757812 -3.546875 5.617188 -3.679688 5.421875 -3.796875 C 5.222656 -3.910156 4.957031 -4.007812 4.625 -4.09375 L 3.34375 -4.375 C 2.445312 -4.582031 1.78125 -4.921875 1.34375 -5.390625 C 0.914062 -5.867188 0.703125 -6.484375 0.703125 -7.234375 C 0.703125 -7.796875 0.84375 -8.289062 1.125 -8.71875 C 1.40625 -9.144531 1.8125 -9.472656 2.34375 -9.703125 C 2.875 -9.941406 3.515625 -10.0625 4.265625 -10.0625 C 5.023438 -10.0625 5.675781 -9.957031 6.21875 -9.75 C 6.769531 -9.550781 7.234375 -9.242188 7.609375 -8.828125 L 6.640625 -7.5 L 6.46875 -7.5 C 6.1875 -7.789062 5.863281 -8.007812 5.5 -8.15625 C 5.144531 -8.3125 4.734375 -8.390625 4.265625 -8.390625 C 3.722656 -8.390625 3.3125 -8.289062 3.03125 -8.09375 C 2.757812 -7.90625 2.625 -7.644531 2.625 -7.3125 C 2.625 -7 2.71875 -6.75 2.90625 -6.5625 C 3.101562 -6.375 3.445312 -6.226562 3.9375 -6.125 L 5.234375 -5.859375 C 6.203125 -5.660156 6.898438 -5.316406 7.328125 -4.828125 C 7.765625 -4.335938 7.984375 -3.703125 7.984375 -2.921875 C 7.984375 -2.304688 7.847656 -1.769531 7.578125 -1.3125 C 7.316406 -0.851562 6.914062 -0.492188 6.375 -0.234375 C 5.832031 0.015625 5.171875 0.140625 4.390625 0.140625 Z M 4.390625 0.140625 "/></g></g><g style="fill:#0d356b;fill-opacity:1;"><g transform="translate(132.617144, 258.469435)"><path style="stroke:none" d="M 1.078125 3.03125 L 1.078125 -7.484375 L 2.953125 -7.484375 L 2.953125 -6.5 L 3.09375 -6.484375 C 3.320312 -6.859375 3.617188 -7.140625 3.984375 -7.328125 C 4.359375 -7.523438 4.796875 -7.625 5.296875 -7.625 C 5.890625 -7.625 6.410156 -7.476562 6.859375 -7.1875 C 7.316406 -6.90625 7.671875 -6.472656 7.921875 -5.890625 C 8.171875 -5.316406 8.296875 -4.597656 8.296875 -3.734375 C 8.296875 -2.878906 8.160156 -2.160156 7.890625 -1.578125 C 7.628906 -1.003906 7.265625 -0.570312 6.796875 -0.28125 C 6.328125 0 5.785156 0.140625 5.171875 0.140625 C 4.703125 0.140625 4.296875 0.0625 3.953125 -0.09375 C 3.617188 -0.25 3.332031 -0.492188 3.09375 -0.828125 L 2.953125 -0.796875 L 2.953125 3.03125 Z M 4.640625 -1.453125 C 5.203125 -1.453125 5.628906 -1.632812 5.921875 -2 C 6.210938 -2.363281 6.359375 -2.941406 6.359375 -3.734375 C 6.359375 -4.523438 6.210938 -5.101562 5.921875 -5.46875 C 5.628906 -5.84375 5.203125 -6.03125 4.640625 -6.03125 C 4.117188 -6.03125 3.703125 -5.835938 3.390625 -5.453125 C 3.085938 -5.078125 2.9375 -4.503906 2.9375 -3.734375 C 2.9375 -2.972656 3.085938 -2.398438 3.390625 -2.015625 C 3.703125 -1.640625 4.117188 -1.453125 4.640625 -1.453125 Z M 4.640625 -1.453125 "/></g></g><g style="fill:#0d356b;fill-opacity:1;"><g transform="translate(141.574354, 258.469435)"><path style="stroke:none" d="M 7.390625 -3.3125 L 2.578125 -3.3125 C 2.640625 -2.664062 2.828125 -2.191406 3.140625 -1.890625 C 3.453125 -1.597656 3.882812 -1.453125 4.4375 -1.453125 C 4.863281 -1.453125 5.207031 -1.53125 5.46875 -1.6875 C 5.738281 -1.851562 5.957031 -2.097656 6.125 -2.421875 L 6.265625 -2.421875 L 7.515625 -1.625 C 7.273438 -1.09375 6.90625 -0.664062 6.40625 -0.34375 C 5.914062 -0.0195312 5.257812 0.140625 4.4375 0.140625 C 3.664062 0.140625 3 -0.00390625 2.4375 -0.296875 C 1.875 -0.585938 1.4375 -1.023438 1.125 -1.609375 C 0.820312 -2.191406 0.671875 -2.898438 0.671875 -3.734375 C 0.671875 -4.585938 0.832031 -5.304688 1.15625 -5.890625 C 1.476562 -6.472656 1.910156 -6.90625 2.453125 -7.1875 C 3.003906 -7.476562 3.617188 -7.625 4.296875 -7.625 C 5.359375 -7.625 6.171875 -7.34375 6.734375 -6.78125 C 7.296875 -6.21875 7.578125 -5.394531 7.578125 -4.3125 C 7.578125 -3.914062 7.5625 -3.609375 7.53125 -3.390625 Z M 5.78125 -4.53125 C 5.757812 -5.101562 5.625 -5.519531 5.375 -5.78125 C 5.132812 -6.039062 4.773438 -6.171875 4.296875 -6.171875 C 3.347656 -6.171875 2.789062 -5.625 2.625 -4.53125 Z M 5.78125 -4.53125 "/></g></g><g style="fill:#0d356b;fill-opacity:1;"><g transform="translate(149.704328, 258.469435)"><path style="stroke:none" d="M 2.921875 0.140625 C 2.441406 0.140625 2.023438 0.0507812 1.671875 -0.125 C 1.316406 -0.300781 1.039062 -0.554688 0.84375 -0.890625 C 0.65625 -1.234375 0.5625 -1.644531 0.5625 -2.125 C 0.5625 -2.570312 0.65625 -2.945312 0.84375 -3.25 C 1.039062 -3.550781 1.335938 -3.796875 1.734375 -3.984375 C 2.128906 -4.171875 2.648438 -4.316406 3.296875 -4.421875 C 3.742188 -4.492188 4.082031 -4.570312 4.3125 -4.65625 C 4.550781 -4.75 4.707031 -4.847656 4.78125 -4.953125 C 4.863281 -5.066406 4.90625 -5.207031 4.90625 -5.375 C 4.90625 -5.613281 4.820312 -5.796875 4.65625 -5.921875 C 4.488281 -6.046875 4.210938 -6.109375 3.828125 -6.109375 C 3.410156 -6.109375 3.015625 -6.015625 2.640625 -5.828125 C 2.265625 -5.648438 1.9375 -5.40625 1.65625 -5.09375 L 1.53125 -5.09375 L 0.734375 -6.28125 C 1.117188 -6.707031 1.582031 -7.035156 2.125 -7.265625 C 2.675781 -7.503906 3.273438 -7.625 3.921875 -7.625 C 4.910156 -7.625 5.625 -7.410156 6.0625 -6.984375 C 6.507812 -6.566406 6.734375 -5.972656 6.734375 -5.203125 L 6.734375 -1.953125 C 6.734375 -1.617188 6.878906 -1.453125 7.171875 -1.453125 C 7.285156 -1.453125 7.398438 -1.472656 7.515625 -1.515625 L 7.609375 -1.484375 L 7.734375 -0.171875 C 7.628906 -0.109375 7.484375 -0.0546875 7.296875 -0.015625 C 7.117188 0.0234375 6.914062 0.046875 6.6875 0.046875 C 6.238281 0.046875 5.890625 -0.0351562 5.640625 -0.203125 C 5.390625 -0.378906 5.210938 -0.648438 5.109375 -1.015625 L 4.96875 -1.03125 C 4.601562 -0.25 3.921875 0.140625 2.921875 0.140625 Z M 3.515625 -1.265625 C 3.953125 -1.265625 4.296875 -1.410156 4.546875 -1.703125 C 4.804688 -1.992188 4.9375 -2.398438 4.9375 -2.921875 L 4.9375 -3.671875 L 4.8125 -3.703125 C 4.695312 -3.609375 4.546875 -3.53125 4.359375 -3.46875 C 4.179688 -3.414062 3.921875 -3.359375 3.578125 -3.296875 C 3.171875 -3.222656 2.878906 -3.101562 2.703125 -2.9375 C 2.523438 -2.78125 2.4375 -2.550781 2.4375 -2.25 C 2.4375 -1.925781 2.53125 -1.679688 2.71875 -1.515625 C 2.90625 -1.347656 3.171875 -1.265625 3.515625 -1.265625 Z M 3.515625 -1.265625 "/></g></g><g style="fill:#0d356b;fill-opacity:1;"><g transform="translate(157.590199, 258.469435)"><path style="stroke:none" d="M 1.078125 0 L 1.078125 -10.484375 L 2.953125 -10.484375 L 2.953125 -4.671875 L 3.140625 -4.671875 L 5.296875 -7.484375 L 7.203125 -7.484375 L 7.203125 -7.328125 L 4.671875 -4.046875 L 7.5 -0.171875 L 7.5 0 L 5.515625 0 L 3.140625 -3.15625 L 2.953125 -3.15625 L 2.953125 0 Z M 1.078125 0 "/></g></g><g style="fill:#0d356b;fill-opacity:1;"><g transform="translate(165.096356, 258.469435)"><path style="stroke:none" d=""/></g></g><g style="fill:#0d356b;fill-opacity:1;"><g transform="translate(168.371403, 258.469435)"><path style="stroke:none" d="M 5.15625 -1.78125 L 5.65625 -0.390625 C 5.445312 -0.222656 5.1875 -0.09375 4.875 0 C 4.570312 0.09375 4.226562 0.140625 3.84375 0.140625 C 3.03125 0.140625 2.410156 -0.078125 1.984375 -0.515625 C 1.566406 -0.960938 1.359375 -1.601562 1.359375 -2.4375 L 1.359375 -6 L 0.21875 -6 L 0.21875 -7.484375 L 1.359375 -7.484375 L 1.359375 -8.953125 L 3.234375 -9.25 L 3.234375 -7.484375 L 5.359375 -7.484375 L 5.359375 -6 L 3.234375 -6 L 3.234375 -2.578125 C 3.234375 -2.203125 3.3125 -1.929688 3.46875 -1.765625 C 3.625 -1.597656 3.847656 -1.515625 4.140625 -1.515625 C 4.472656 -1.515625 4.765625 -1.601562 5.015625 -1.78125 Z M 5.15625 -1.78125 "/></g></g><g style="fill:#0d356b;fill-opacity:1;"><g transform="translate(174.182403, 258.469435)"><path style="stroke:none" d="M 4.34375 0.140625 C 3.613281 0.140625 2.972656 -0.0078125 2.421875 -0.3125 C 1.867188 -0.613281 1.4375 -1.050781 1.125 -1.625 C 0.820312 -2.207031 0.671875 -2.910156 0.671875 -3.734375 C 0.671875 -4.554688 0.820312 -5.257812 1.125 -5.84375 C 1.4375 -6.425781 1.867188 -6.867188 2.421875 -7.171875 C 2.972656 -7.472656 3.613281 -7.625 4.34375 -7.625 C 5.082031 -7.625 5.726562 -7.472656 6.28125 -7.171875 C 6.832031 -6.867188 7.257812 -6.425781 7.5625 -5.84375 C 7.875 -5.257812 8.03125 -4.554688 8.03125 -3.734375 C 8.03125 -2.910156 7.875 -2.207031 7.5625 -1.625 C 7.257812 -1.050781 6.832031 -0.613281 6.28125 -0.3125 C 5.726562 -0.0078125 5.082031 0.140625 4.34375 0.140625 Z M 4.34375 -1.453125 C 5.507812 -1.453125 6.09375 -2.210938 6.09375 -3.734375 C 6.09375 -4.523438 5.941406 -5.101562 5.640625 -5.46875 C 5.347656 -5.84375 4.914062 -6.03125 4.34375 -6.03125 C 3.1875 -6.03125 2.609375 -5.265625 2.609375 -3.734375 C 2.609375 -2.210938 3.1875 -1.453125 4.34375 -1.453125 Z M 4.34375 -1.453125 "/></g></g><g style="fill:#0d356b;fill-opacity:1;"><g transform="translate(182.875163, 258.469435)"><path style="stroke:none" d=""/></g></g><g style="fill:#0d356b;fill-opacity:1;"><g transform="translate(186.15021, 258.469435)"><path style="stroke:none" d="M 5.15625 -1.78125 L 5.65625 -0.390625 C 5.445312 -0.222656 5.1875 -0.09375 4.875 0 C 4.570312 0.09375 4.226562 0.140625 3.84375 0.140625 C 3.03125 0.140625 2.410156 -0.078125 1.984375 -0.515625 C 1.566406 -0.960938 1.359375 -1.601562 1.359375 -2.4375 L 1.359375 -6 L 0.21875 -6 L 0.21875 -7.484375 L 1.359375 -7.484375 L 1.359375 -8.953125 L 3.234375 -9.25 L 3.234375 -7.484375 L 5.359375 -7.484375 L 5.359375 -6 L 3.234375 -6 L 3.234375 -2.578125 C 3.234375 -2.203125 3.3125 -1.929688 3.46875 -1.765625 C 3.625 -1.597656 3.847656 -1.515625 4.140625 -1.515625 C 4.472656 -1.515625 4.765625 -1.601562 5.015625 -1.78125 Z M 5.15625 -1.78125 "/></g></g><g style="fill:#0d356b;fill-opacity:1;"><g transform="translate(191.961211, 258.469435)"><path style="stroke:none" d="M 1.078125 0 L 1.078125 -10.484375 L 2.953125 -10.484375 L 2.953125 -6.5 L 3.09375 -6.484375 C 3.34375 -6.847656 3.648438 -7.128906 4.015625 -7.328125 C 4.378906 -7.523438 4.816406 -7.625 5.328125 -7.625 C 6.972656 -7.625 7.796875 -6.6875 7.796875 -4.8125 L 7.796875 0 L 5.921875 0 L 5.921875 -4.578125 C 5.921875 -5.085938 5.816406 -5.457031 5.609375 -5.6875 C 5.410156 -5.914062 5.097656 -6.03125 4.671875 -6.03125 C 4.140625 -6.03125 3.71875 -5.851562 3.40625 -5.5 C 3.101562 -5.15625 2.953125 -4.613281 2.953125 -3.875 L 2.953125 0 Z M 1.078125 0 "/></g></g><g style="fill:#0d356b;fill-opacity:1;"><g transform="translate(200.721777, 258.469435)"><path style="stroke:none" d="M 7.390625 -3.3125 L 2.578125 -3.3125 C 2.640625 -2.664062 2.828125 -2.191406 3.140625 -1.890625 C 3.453125 -1.597656 3.882812 -1.453125 4.4375 -1.453125 C 4.863281 -1.453125 5.207031 -1.53125 5.46875 -1.6875 C 5.738281 -1.851562 5.957031 -2.097656 6.125 -2.421875 L 6.265625 -2.421875 L 7.515625 -1.625 C 7.273438 -1.09375 6.90625 -0.664062 6.40625 -0.34375 C 5.914062 -0.0195312 5.257812 0.140625 4.4375 0.140625 C 3.664062 0.140625 3 -0.00390625 2.4375 -0.296875 C 1.875 -0.585938 1.4375 -1.023438 1.125 -1.609375 C 0.820312 -2.191406 0.671875 -2.898438 0.671875 -3.734375 C 0.671875 -4.585938 0.832031 -5.304688 1.15625 -5.890625 C 1.476562 -6.472656 1.910156 -6.90625 2.453125 -7.1875 C 3.003906 -7.476562 3.617188 -7.625 4.296875 -7.625 C 5.359375 -7.625 6.171875 -7.34375 6.734375 -6.78125 C 7.296875 -6.21875 7.578125 -5.394531 7.578125 -4.3125 C 7.578125 -3.914062 7.5625 -3.609375 7.53125 -3.390625 Z M 5.78125 -4.53125 C 5.757812 -5.101562 5.625 -5.519531 5.375 -5.78125 C 5.132812 -6.039062 4.773438 -6.171875 4.296875 -6.171875 C 3.347656 -6.171875 2.789062 -5.625 2.625 -4.53125 Z M 5.78125 -4.53125 "/></g></g><g style="fill:#0d356b;fill-opacity:1;"><g transform="translate(208.85175, 258.469435)"><path style="stroke:none" d=""/></g></g><g style="fill:#0d356b;fill-opacity:1;"><g transform="translate(212.126798, 258.469435)"><path style="stroke:none" d="M 4.015625 0 L 2.046875 0 L 0.265625 -7.484375 L 2.015625 -7.484375 L 3.109375 -2.421875 L 3.25 -2.421875 L 4.6875 -7.484375 L 6.3125 -7.484375 L 7.78125 -2.421875 L 7.921875 -2.421875 L 8.984375 -7.484375 L 10.671875 -7.484375 L 8.921875 0 L 6.953125 0 L 5.53125 -5.09375 L 5.390625 -5.09375 Z M 4.015625 0 "/></g></g><g style="fill:#0d356b;fill-opacity:1;"><g transform="translate(223.06395, 258.469435)"><path style="stroke:none" d="M 4.34375 0.140625 C 3.613281 0.140625 2.972656 -0.0078125 2.421875 -0.3125 C 1.867188 -0.613281 1.4375 -1.050781 1.125 -1.625 C 0.820312 -2.207031 0.671875 -2.910156 0.671875 -3.734375 C 0.671875 -4.554688 0.820312 -5.257812 1.125 -5.84375 C 1.4375 -6.425781 1.867188 -6.867188 2.421875 -7.171875 C 2.972656 -7.472656 3.613281 -7.625 4.34375 -7.625 C 5.082031 -7.625 5.726562 -7.472656 6.28125 -7.171875 C 6.832031 -6.867188 7.257812 -6.425781 7.5625 -5.84375 C 7.875 -5.257812 8.03125 -4.554688 8.03125 -3.734375 C 8.03125 -2.910156 7.875 -2.207031 7.5625 -1.625 C 7.257812 -1.050781 6.832031 -0.613281 6.28125 -0.3125 C 5.726562 -0.0078125 5.082031 0.140625 4.34375 0.140625 Z M 4.34375 -1.453125 C 5.507812 -1.453125 6.09375 -2.210938 6.09375 -3.734375 C 6.09375 -4.523438 5.941406 -5.101562 5.640625 -5.46875 C 5.347656 -5.84375 4.914062 -6.03125 4.34375 -6.03125 C 3.1875 -6.03125 2.609375 -5.265625 2.609375 -3.734375 C 2.609375 -2.210938 3.1875 -1.453125 4.34375 -1.453125 Z M 4.34375 -1.453125 "/></g></g><g style="fill:#0d356b;fill-opacity:1;"><g transform="translate(231.75671, 258.469435)"><path style="stroke:none" d="M 1.078125 0 L 1.078125 -7.484375 L 2.90625 -7.484375 L 2.90625 -6.375 L 3.046875 -6.34375 C 3.222656 -6.757812 3.457031 -7.0625 3.75 -7.25 C 4.050781 -7.445312 4.410156 -7.546875 4.828125 -7.546875 C 5.253906 -7.546875 5.578125 -7.472656 5.796875 -7.328125 L 5.484375 -5.703125 L 5.34375 -5.6875 C 5.21875 -5.738281 5.097656 -5.773438 4.984375 -5.796875 C 4.867188 -5.816406 4.734375 -5.828125 4.578125 -5.828125 C 4.046875 -5.828125 3.640625 -5.640625 3.359375 -5.265625 C 3.085938 -4.898438 2.953125 -4.3125 2.953125 -3.5 L 2.953125 0 Z M 1.078125 0 "/></g></g><g style="fill:#0d356b;fill-opacity:1;"><g transform="translate(237.621955, 258.469435)"><path style="stroke:none" d="M 3.109375 0.140625 C 2.429688 0.140625 1.914062 -0.0390625 1.5625 -0.40625 C 1.207031 -0.769531 1.03125 -1.320312 1.03125 -2.0625 L 1.03125 -10.484375 L 2.90625 -10.484375 L 2.90625 -2.140625 C 2.90625 -1.679688 3.097656 -1.453125 3.484375 -1.453125 C 3.585938 -1.453125 3.703125 -1.46875 3.828125 -1.5 L 3.921875 -1.484375 L 4.09375 -0.03125 C 3.988281 0.0195312 3.847656 0.0625 3.671875 0.09375 C 3.503906 0.125 3.316406 0.140625 3.109375 0.140625 Z M 3.109375 0.140625 "/></g></g><g style="fill:#0d356b;fill-opacity:1;"><g transform="translate(241.920871, 258.469435)"><path style="stroke:none" d="M 3.703125 0.140625 C 3.109375 0.140625 2.582031 0 2.125 -0.28125 C 1.664062 -0.570312 1.304688 -1.007812 1.046875 -1.59375 C 0.796875 -2.175781 0.671875 -2.890625 0.671875 -3.734375 C 0.671875 -4.585938 0.800781 -5.304688 1.0625 -5.890625 C 1.332031 -6.472656 1.703125 -6.90625 2.171875 -7.1875 C 2.640625 -7.476562 3.179688 -7.625 3.796875 -7.625 C 4.253906 -7.625 4.65625 -7.539062 5 -7.375 C 5.34375 -7.21875 5.628906 -6.972656 5.859375 -6.640625 L 6.015625 -6.671875 L 6.015625 -10.484375 L 7.890625 -10.484375 L 7.890625 0 L 6.015625 0 L 6.015625 -0.96875 L 5.859375 -1 C 5.660156 -0.644531 5.378906 -0.363281 5.015625 -0.15625 C 4.648438 0.0390625 4.210938 0.140625 3.703125 0.140625 Z M 4.3125 -1.453125 C 4.832031 -1.453125 5.242188 -1.640625 5.546875 -2.015625 C 5.859375 -2.390625 6.015625 -2.960938 6.015625 -3.734375 C 6.015625 -4.503906 5.859375 -5.078125 5.546875 -5.453125 C 5.242188 -5.835938 4.832031 -6.03125 4.3125 -6.03125 C 3.757812 -6.03125 3.335938 -5.84375 3.046875 -5.46875 C 2.753906 -5.101562 2.609375 -4.523438 2.609375 -3.734375 C 2.609375 -2.953125 2.753906 -2.375 3.046875 -2 C 3.335938 -1.632812 3.757812 -1.453125 4.3125 -1.453125 Z M 4.3125 -1.453125 "/></g></g></g></svg>